<?xml version="1.0" encoding="UTF-8" standalone="no"?>
<svg
   width="982.383125pt"
   height="321.03625pt"
   viewBox="0 0 982.383125 321.03625"
   version="1.1"
   id="svg108"
   sodipodi:docname="monolayer_band_diagrams.svg"
   xml:space="preserve"
   inkscape:version="1.4.2 (f4327f4, 2025-05-13)"
   xmlns:inkscape="http://www.inkscape.org/namespaces/inkscape"
   xmlns:sodipodi="http://sodipodi.sourceforge.net/DTD/sodipodi-0.dtd"
   xmlns:xlink="http://www.w3.org/1999/xlink"
   xmlns="http://www.w3.org/2000/svg"
   xmlns:svg="http://www.w3.org/2000/svg"
   xmlns:rdf="http://www.w3.org/1999/02/22-rdf-syntax-ns#"
   xmlns:cc="http://creativecommons.org/ns#"
   xmlns:dc="http://purl.org/dc/elements/1.1/"
   xmlns:lucid="lucid"><sodipodi:namedview
     id="namedview108"
     pagecolor="#ffffff"
     bordercolor="#000000"
     borderopacity="0.25"
     inkscape:showpageshadow="2"
     inkscape:pageopacity="0.0"
     inkscape:pagecheckerboard="0"
     inkscape:deskcolor="#d1d1d1"
     inkscape:document-units="pt"
     inkscape:zoom="1.3112723"
     inkscape:cx="593.69819"
     inkscape:cy="131.55162"
     inkscape:window-width="2560"
     inkscape:window-height="1351"
     inkscape:window-x="2391"
     inkscape:window-y="902"
     inkscape:window-maximized="1"
     inkscape:current-layer="svg108" /><metadata
     id="metadata1"><rdf:RDF><cc:Work><dc:type
           rdf:resource="http://purl.org/dc/dcmitype/StillImage" /><dc:date>2026-03-17T01:41:25.700721</dc:date><dc:format>image/svg+xml</dc:format><dc:creator><cc:Agent><dc:title>Matplotlib v3.10.7, https://matplotlib.org/</dc:title></cc:Agent></dc:creator></cc:Work></rdf:RDF></metadata><defs
     id="defs1"><style
       type="text/css"
       id="style1">*{stroke-linejoin: round; stroke-linecap: butt}</style></defs><g
     id="figure_1"><g
       id="patch_1"><path
         d="M 0 321.03625  L 982.383125 321.03625  L 982.383125 0  L 0 0  z "
         style="fill: #ffffff"
         id="path1" /></g><g
       id="axes_1"><g
         id="patch_2"><path
           d="M 70.105625 287.48  L 504.371875 287.48  L 504.371875 7.2  L 70.105625 7.2  z "
           style="fill: #ffffff"
           id="path2" /></g><g
         id="patch_3"><path
           d="M 70.105625 189.213577  L 504.371875 189.213577  L 504.371875 152.635688  L 70.105625 152.635688  z "
           clip-path="url(#pe7ba466c5b)"
           style="fill: #4f5f6b; opacity: 0.12; stroke: #4f5f6b; stroke-linejoin: miter"
           id="path3" /></g><g
         id="matplotlib.axis_1"><g
           id="xtick_1"><g
             id="line2d_1"><defs
               id="defs3"><path
                 id="mcaf98025a9"
                 d="M 0 0  L 0 3.5  "
                 style="stroke: #000000; stroke-width: 0.8" /></defs><g
               id="g3"><use
                 xlink:href="#mcaf98025a9"
                 x="70.105625"
                 y="287.48"
                 style="stroke: #000000; stroke-width: 0.8"
                 id="use3" /></g></g><g
             id="text_1"><!-- $\Gamma$ --><g
               transform="translate(64.505625 309.676875) scale(0.2 -0.2)"
               id="g4"><defs
                 id="defs4"><path
                   id="DejaVuSans-393"
                   d="M 628 0  L 628 4666  L 3531 4666  L 3531 4134  L 1259 4134  L 1259 0  L 628 0  z "
                   transform="scale(0.015625)" /></defs><use
                 xlink:href="#DejaVuSans-393"
                 transform="translate(0 0.09375)"
                 id="use4" /></g></g></g><g
           id="xtick_2"><g
             id="line2d_2"><g
               id="g5"><use
                 xlink:href="#mcaf98025a9"
                 x="197.299265"
                 y="287.48"
                 style="stroke: #000000; stroke-width: 0.8"
                 id="use5" /></g></g><g
             id="text_2"><!-- X --><g
               transform="translate(190.449265 309.676875) scale(0.2 -0.2)"
               id="g6"><defs
                 id="defs5"><path
                   id="DejaVuSans-58"
                   d="M 403 4666  L 1081 4666  L 2241 2931  L 3406 4666  L 4084 4666  L 2584 2425  L 4184 0  L 3506 0  L 2194 1984  L 872 0  L 191 0  L 1856 2491  L 403 4666  z "
                   transform="scale(0.015625)" /></defs><use
                 xlink:href="#DejaVuSans-58"
                 id="use6" /></g></g></g><g
           id="xtick_3"><g
             id="line2d_3"><g
               id="g7"><use
                 xlink:href="#mcaf98025a9"
                 x="324.492905"
                 y="287.48"
                 style="stroke: #000000; stroke-width: 0.8"
                 id="use7" /></g></g><g
             id="text_3"><!-- M --><g
               transform="translate(315.86478 309.676875) scale(0.2 -0.2)"
               id="g8"><defs
                 id="defs7"><path
                   id="DejaVuSans-4d"
                   d="M 628 4666  L 1569 4666  L 2759 1491  L 3956 4666  L 4897 4666  L 4897 0  L 4281 0  L 4281 4097  L 3078 897  L 2444 897  L 1241 4097  L 1241 0  L 628 0  L 628 4666  z "
                   transform="scale(0.015625)" /></defs><use
                 xlink:href="#DejaVuSans-4d"
                 id="use8" /></g></g></g><g
           id="xtick_4"><g
             id="line2d_4"><g
               id="g9"><use
                 xlink:href="#mcaf98025a9"
                 x="504.371875"
                 y="287.48"
                 style="stroke: #000000; stroke-width: 0.8"
                 id="use9" /></g></g><g
             id="text_4"><!-- $\Gamma$ --><g
               transform="translate(498.771875 309.676875) scale(0.2 -0.2)"
               id="g10"><use
                 xlink:href="#DejaVuSans-393"
                 transform="translate(0 0.09375)"
                 id="use10" /></g></g></g></g><g
         id="matplotlib.axis_2"><g
           id="ytick_1"><g
             id="line2d_5"><defs
               id="defs10"><path
                 id="m7cca39d680"
                 d="M 0 0  L -3.5 0  "
                 style="stroke: #000000; stroke-width: 0.8" /></defs><g
               id="g11"><use
                 xlink:href="#m7cca39d680"
                 x="70.105625"
                 y="287.48"
                 style="stroke: #000000; stroke-width: 0.8"
                 id="use11" /></g></g><g
             id="text_5"><!-- 0.0 --><g
               transform="translate(34.48 294.318594) scale(0.18 -0.18)"
               id="g14"><defs
                 id="defs11"><path
                   id="DejaVuSans-30"
                   d="M 2034 4250  Q 1547 4250 1301 3770  Q 1056 3291 1056 2328  Q 1056 1369 1301 889  Q 1547 409 2034 409  Q 2525 409 2770 889  Q 3016 1369 3016 2328  Q 3016 3291 2770 3770  Q 2525 4250 2034 4250  z M 2034 4750  Q 2819 4750 3233 4129  Q 3647 3509 3647 2328  Q 3647 1150 3233 529  Q 2819 -91 2034 -91  Q 1250 -91 836 529  Q 422 1150 422 2328  Q 422 3509 836 4129  Q 1250 4750 2034 4750  z "
                   transform="scale(0.015625)" /><path
                   id="DejaVuSans-2e"
                   d="M 684 794  L 1344 794  L 1344 0  L 684 0  L 684 794  z "
                   transform="scale(0.015625)" /></defs><use
                 xlink:href="#DejaVuSans-30"
                 id="use12" /><use
                 xlink:href="#DejaVuSans-2e"
                 transform="translate(63.623047 0)"
                 id="use13" /><use
                 xlink:href="#DejaVuSans-30"
                 transform="translate(95.410156 0)"
                 id="use14" /></g></g></g><g
           id="ytick_2"><g
             id="line2d_6"><g
               id="g15"><use
                 xlink:href="#m7cca39d680"
                 x="70.105625"
                 y="226.530874"
                 style="stroke: #000000; stroke-width: 0.8"
                 id="use15" /></g></g><g
             id="text_6"><!-- 0.2 --><g
               transform="translate(34.48 233.369468) scale(0.18 -0.18)"
               id="g18"><defs
                 id="defs15"><path
                   id="DejaVuSans-32"
                   d="M 1228 531  L 3431 531  L 3431 0  L 469 0  L 469 531  Q 828 903 1448 1529  Q 2069 2156 2228 2338  Q 2531 2678 2651 2914  Q 2772 3150 2772 3378  Q 2772 3750 2511 3984  Q 2250 4219 1831 4219  Q 1534 4219 1204 4116  Q 875 4013 500 3803  L 500 4441  Q 881 4594 1212 4672  Q 1544 4750 1819 4750  Q 2544 4750 2975 4387  Q 3406 4025 3406 3419  Q 3406 3131 3298 2873  Q 3191 2616 2906 2266  Q 2828 2175 2409 1742  Q 1991 1309 1228 531  z "
                   transform="scale(0.015625)" /></defs><use
                 xlink:href="#DejaVuSans-30"
                 id="use16" /><use
                 xlink:href="#DejaVuSans-2e"
                 transform="translate(63.623047 0)"
                 id="use17" /><use
                 xlink:href="#DejaVuSans-32"
                 transform="translate(95.410156 0)"
                 id="use18" /></g></g></g><g
           id="ytick_3"><g
             id="line2d_7"><g
               id="g19"><use
                 xlink:href="#m7cca39d680"
                 x="70.105625"
                 y="165.581749"
                 style="stroke: #000000; stroke-width: 0.8"
                 id="use19" /></g></g><g
             id="text_7"><!-- 0.4 --><g
               transform="translate(34.48 172.420343) scale(0.18 -0.18)"
               id="g22"><defs
                 id="defs19"><path
                   id="DejaVuSans-34"
                   d="M 2419 4116  L 825 1625  L 2419 1625  L 2419 4116  z M 2253 4666  L 3047 4666  L 3047 1625  L 3713 1625  L 3713 1100  L 3047 1100  L 3047 0  L 2419 0  L 2419 1100  L 313 1100  L 313 1709  L 2253 4666  z "
                   transform="scale(0.015625)" /></defs><use
                 xlink:href="#DejaVuSans-30"
                 id="use20" /><use
                 xlink:href="#DejaVuSans-2e"
                 transform="translate(63.623047 0)"
                 id="use21" /><use
                 xlink:href="#DejaVuSans-34"
                 transform="translate(95.410156 0)"
                 id="use22" /></g></g></g><g
           id="ytick_4"><g
             id="line2d_8"><g
               id="g23"><use
                 xlink:href="#m7cca39d680"
                 x="70.105625"
                 y="104.632623"
                 style="stroke: #000000; stroke-width: 0.8"
                 id="use23" /></g></g><g
             id="text_8"><!-- 0.6 --><g
               transform="translate(34.48 111.471217) scale(0.18 -0.18)"
               id="g26"><defs
                 id="defs23"><path
                   id="DejaVuSans-36"
                   d="M 2113 2584  Q 1688 2584 1439 2293  Q 1191 2003 1191 1497  Q 1191 994 1439 701  Q 1688 409 2113 409  Q 2538 409 2786 701  Q 3034 994 3034 1497  Q 3034 2003 2786 2293  Q 2538 2584 2113 2584  z M 3366 4563  L 3366 3988  Q 3128 4100 2886 4159  Q 2644 4219 2406 4219  Q 1781 4219 1451 3797  Q 1122 3375 1075 2522  Q 1259 2794 1537 2939  Q 1816 3084 2150 3084  Q 2853 3084 3261 2657  Q 3669 2231 3669 1497  Q 3669 778 3244 343  Q 2819 -91 2113 -91  Q 1303 -91 875 529  Q 447 1150 447 2328  Q 447 3434 972 4092  Q 1497 4750 2381 4750  Q 2619 4750 2861 4703  Q 3103 4656 3366 4563  z "
                   transform="scale(0.015625)" /></defs><use
                 xlink:href="#DejaVuSans-30"
                 id="use24" /><use
                 xlink:href="#DejaVuSans-2e"
                 transform="translate(63.623047 0)"
                 id="use25" /><use
                 xlink:href="#DejaVuSans-36"
                 transform="translate(95.410156 0)"
                 id="use26" /></g></g></g><g
           id="ytick_5"><g
             id="line2d_9"><g
               id="g27"><use
                 xlink:href="#m7cca39d680"
                 x="70.105625"
                 y="43.683498"
                 style="stroke: #000000; stroke-width: 0.8"
                 id="use27" /></g></g><g
             id="text_9"><!-- 0.8 --><g
               transform="translate(34.48 50.522092) scale(0.18 -0.18)"
               id="g30"><defs
                 id="defs27"><path
                   id="DejaVuSans-38"
                   d="M 2034 2216  Q 1584 2216 1326 1975  Q 1069 1734 1069 1313  Q 1069 891 1326 650  Q 1584 409 2034 409  Q 2484 409 2743 651  Q 3003 894 3003 1313  Q 3003 1734 2745 1975  Q 2488 2216 2034 2216  z M 1403 2484  Q 997 2584 770 2862  Q 544 3141 544 3541  Q 544 4100 942 4425  Q 1341 4750 2034 4750  Q 2731 4750 3128 4425  Q 3525 4100 3525 3541  Q 3525 3141 3298 2862  Q 3072 2584 2669 2484  Q 3125 2378 3379 2068  Q 3634 1759 3634 1313  Q 3634 634 3220 271  Q 2806 -91 2034 -91  Q 1263 -91 848 271  Q 434 634 434 1313  Q 434 1759 690 2068  Q 947 2378 1403 2484  z M 1172 3481  Q 1172 3119 1398 2916  Q 1625 2713 2034 2713  Q 2441 2713 2670 2916  Q 2900 3119 2900 3481  Q 2900 3844 2670 4047  Q 2441 4250 2034 4250  Q 1625 4250 1398 4047  Q 1172 3844 1172 3481  z "
                   transform="scale(0.015625)" /></defs><use
                 xlink:href="#DejaVuSans-30"
                 id="use28" /><use
                 xlink:href="#DejaVuSans-2e"
                 transform="translate(63.623047 0)"
                 id="use29" /><use
                 xlink:href="#DejaVuSans-38"
                 transform="translate(95.410156 0)"
                 id="use30" /></g></g></g><g
           id="text_10"><!-- Frequency $\omega a / (2\pi c)$ --><g
             transform="translate(25.44 266.62) rotate(-90) scale(0.24 -0.24)"
             id="g48"><defs
               id="defs30"><path
                 id="DejaVuSans-46"
                 d="M 628 4666  L 3309 4666  L 3309 4134  L 1259 4134  L 1259 2759  L 3109 2759  L 3109 2228  L 1259 2228  L 1259 0  L 628 0  L 628 4666  z "
                 transform="scale(0.015625)" /><path
                 id="DejaVuSans-72"
                 d="M 2631 2963  Q 2534 3019 2420 3045  Q 2306 3072 2169 3072  Q 1681 3072 1420 2755  Q 1159 2438 1159 1844  L 1159 0  L 581 0  L 581 3500  L 1159 3500  L 1159 2956  Q 1341 3275 1631 3429  Q 1922 3584 2338 3584  Q 2397 3584 2469 3576  Q 2541 3569 2628 3553  L 2631 2963  z "
                 transform="scale(0.015625)" /><path
                 id="DejaVuSans-65"
                 d="M 3597 1894  L 3597 1613  L 953 1613  Q 991 1019 1311 708  Q 1631 397 2203 397  Q 2534 397 2845 478  Q 3156 559 3463 722  L 3463 178  Q 3153 47 2828 -22  Q 2503 -91 2169 -91  Q 1331 -91 842 396  Q 353 884 353 1716  Q 353 2575 817 3079  Q 1281 3584 2069 3584  Q 2775 3584 3186 3129  Q 3597 2675 3597 1894  z M 3022 2063  Q 3016 2534 2758 2815  Q 2500 3097 2075 3097  Q 1594 3097 1305 2825  Q 1016 2553 972 2059  L 3022 2063  z "
                 transform="scale(0.015625)" /><path
                 id="DejaVuSans-71"
                 d="M 947 1747  Q 947 1113 1208 752  Q 1469 391 1925 391  Q 2381 391 2643 752  Q 2906 1113 2906 1747  Q 2906 2381 2643 2742  Q 2381 3103 1925 3103  Q 1469 3103 1208 2742  Q 947 2381 947 1747  z M 2906 525  Q 2725 213 2448 61  Q 2172 -91 1784 -91  Q 1150 -91 751 415  Q 353 922 353 1747  Q 353 2572 751 3078  Q 1150 3584 1784 3584  Q 2172 3584 2448 3432  Q 2725 3281 2906 2969  L 2906 3500  L 3481 3500  L 3481 -1331  L 2906 -1331  L 2906 525  z "
                 transform="scale(0.015625)" /><path
                 id="DejaVuSans-75"
                 d="M 544 1381  L 544 3500  L 1119 3500  L 1119 1403  Q 1119 906 1312 657  Q 1506 409 1894 409  Q 2359 409 2629 706  Q 2900 1003 2900 1516  L 2900 3500  L 3475 3500  L 3475 0  L 2900 0  L 2900 538  Q 2691 219 2414 64  Q 2138 -91 1772 -91  Q 1169 -91 856 284  Q 544 659 544 1381  z M 1991 3584  L 1991 3584  z "
                 transform="scale(0.015625)" /><path
                 id="DejaVuSans-6e"
                 d="M 3513 2113  L 3513 0  L 2938 0  L 2938 2094  Q 2938 2591 2744 2837  Q 2550 3084 2163 3084  Q 1697 3084 1428 2787  Q 1159 2491 1159 1978  L 1159 0  L 581 0  L 581 3500  L 1159 3500  L 1159 2956  Q 1366 3272 1645 3428  Q 1925 3584 2291 3584  Q 2894 3584 3203 3211  Q 3513 2838 3513 2113  z "
                 transform="scale(0.015625)" /><path
                 id="DejaVuSans-63"
                 d="M 3122 3366  L 3122 2828  Q 2878 2963 2633 3030  Q 2388 3097 2138 3097  Q 1578 3097 1268 2742  Q 959 2388 959 1747  Q 959 1106 1268 751  Q 1578 397 2138 397  Q 2388 397 2633 464  Q 2878 531 3122 666  L 3122 134  Q 2881 22 2623 -34  Q 2366 -91 2075 -91  Q 1284 -91 818 406  Q 353 903 353 1747  Q 353 2603 823 3093  Q 1294 3584 2113 3584  Q 2378 3584 2631 3529  Q 2884 3475 3122 3366  z "
                 transform="scale(0.015625)" /><path
                 id="DejaVuSans-79"
                 d="M 2059 -325  Q 1816 -950 1584 -1140  Q 1353 -1331 966 -1331  L 506 -1331  L 506 -850  L 844 -850  Q 1081 -850 1212 -737  Q 1344 -625 1503 -206  L 1606 56  L 191 3500  L 800 3500  L 1894 763  L 2988 3500  L 3597 3500  L 2059 -325  z "
                 transform="scale(0.015625)" /><path
                 id="DejaVuSans-20"
                 transform="scale(0.015625)" /><path
                 id="DejaVuSans-Oblique-3c9"
                 d="M 1369 -91  Q 72 -91 434 1766  Q 575 2500 1256 3500  L 1875 3500  Q 1231 2500 1088 1750  Q 819 397 1519 397  Q 2166 397 2478 2078  L 3009 2078  Q 2669 388 3316 397  Q 4013 403 4275 1750  Q 4419 2500 4169 3500  L 4788 3500  Q 5075 2500 4934 1766  Q 4578 -94 3278 -91  Q 2428 -88 2503 844  Q 2194 -91 1369 -91  z "
                 transform="scale(0.015625)" /><path
                 id="DejaVuSans-Oblique-61"
                 d="M 3438 1997  L 3047 0  L 2472 0  L 2578 531  Q 2325 219 2001 64  Q 1678 -91 1281 -91  Q 834 -91 548 182  Q 263 456 263 884  Q 263 1497 752 1853  Q 1241 2209 2100 2209  L 2900 2209  L 2931 2363  Q 2938 2388 2941 2417  Q 2944 2447 2944 2509  Q 2944 2788 2717 2942  Q 2491 3097 2081 3097  Q 1800 3097 1504 3025  Q 1209 2953 897 2809  L 997 3341  Q 1322 3463 1633 3523  Q 1944 3584 2234 3584  Q 2853 3584 3176 3315  Q 3500 3047 3500 2534  Q 3500 2431 3484 2292  Q 3469 2153 3438 1997  z M 2816 1759  L 2241 1759  Q 1534 1759 1195 1570  Q 856 1381 856 984  Q 856 709 1029 553  Q 1203 397 1509 397  Q 1978 397 2328 733  Q 2678 1069 2791 1631  L 2816 1759  z "
                 transform="scale(0.015625)" /><path
                 id="DejaVuSans-2f"
                 d="M 1625 4666  L 2156 4666  L 531 -594  L 0 -594  L 1625 4666  z "
                 transform="scale(0.015625)" /><path
                 id="DejaVuSans-28"
                 d="M 1984 4856  Q 1566 4138 1362 3434  Q 1159 2731 1159 2009  Q 1159 1288 1364 580  Q 1569 -128 1984 -844  L 1484 -844  Q 1016 -109 783 600  Q 550 1309 550 2009  Q 550 2706 781 3412  Q 1013 4119 1484 4856  L 1984 4856  z "
                 transform="scale(0.015625)" /><path
                 id="DejaVuSans-Oblique-3c0"
                 d="M 584 3500  L 3938 3500  L 3825 2925  L 3384 2925  L 2966 775  Q 2922 550 2981 450  Q 3038 353 3209 353  Q 3256 353 3325 363  Q 3397 369 3419 372  L 3338 -44  Q 3222 -84 3103 -103  Q 2981 -122 2866 -122  Q 2491 -122 2388 81  Q 2284 288 2391 838  L 2797 2925  L 1506 2925  L 938 0  L 350 0  L 919 2925  L 472 2925  L 584 3500  z "
                 transform="scale(0.015625)" /><path
                 id="DejaVuSans-Oblique-63"
                 d="M 3431 3366  L 3316 2797  Q 3109 2947 2876 3022  Q 2644 3097 2394 3097  Q 2119 3097 1870 3000  Q 1622 2903 1453 2725  Q 1184 2453 1037 2087  Q 891 1722 891 1331  Q 891 859 1127 628  Q 1363 397 1844 397  Q 2081 397 2348 469  Q 2616 541 2906 684  L 2797 116  Q 2547 13 2283 -39  Q 2019 -91 1741 -91  Q 1044 -91 669 257  Q 294 606 294 1253  Q 294 1797 489 2255  Q 684 2713 1069 3078  Q 1331 3328 1684 3456  Q 2038 3584 2456 3584  Q 2700 3584 2940 3529  Q 3181 3475 3431 3366  z "
                 transform="scale(0.015625)" /><path
                 id="DejaVuSans-29"
                 d="M 513 4856  L 1013 4856  Q 1481 4119 1714 3412  Q 1947 2706 1947 2009  Q 1947 1309 1714 600  Q 1481 -109 1013 -844  L 513 -844  Q 928 -128 1133 580  Q 1338 1288 1338 2009  Q 1338 2731 1133 3434  Q 928 4138 513 4856  z "
                 transform="scale(0.015625)" /></defs><use
               xlink:href="#DejaVuSans-46"
               transform="translate(0 0.125)"
               id="use31" /><use
               xlink:href="#DejaVuSans-72"
               transform="translate(57.519531 0.125)"
               id="use32" /><use
               xlink:href="#DejaVuSans-65"
               transform="translate(98.632812 0.125)"
               id="use33" /><use
               xlink:href="#DejaVuSans-71"
               transform="translate(160.15625 0.125)"
               id="use34" /><use
               xlink:href="#DejaVuSans-75"
               transform="translate(223.632812 0.125)"
               id="use35" /><use
               xlink:href="#DejaVuSans-65"
               transform="translate(287.011719 0.125)"
               id="use36" /><use
               xlink:href="#DejaVuSans-6e"
               transform="translate(348.535156 0.125)"
               id="use37" /><use
               xlink:href="#DejaVuSans-63"
               transform="translate(411.914062 0.125)"
               id="use38" /><use
               xlink:href="#DejaVuSans-79"
               transform="translate(466.894531 0.125)"
               id="use39" /><use
               xlink:href="#DejaVuSans-20"
               transform="translate(526.074219 0.125)"
               id="use40" /><use
               xlink:href="#DejaVuSans-Oblique-3c9"
               transform="translate(557.861328 0.125)"
               id="use41" /><use
               xlink:href="#DejaVuSans-Oblique-61"
               transform="translate(641.601562 0.125)"
               id="use42" /><use
               xlink:href="#DejaVuSans-2f"
               transform="translate(702.880859 0.125)"
               id="use43" /><use
               xlink:href="#DejaVuSans-28"
               transform="translate(736.572266 0.125)"
               id="use44" /><use
               xlink:href="#DejaVuSans-32"
               transform="translate(775.585938 0.125)"
               id="use45" /><use
               xlink:href="#DejaVuSans-Oblique-3c0"
               transform="translate(839.208984 0.125)"
               id="use46" /><use
               xlink:href="#DejaVuSans-Oblique-63"
               transform="translate(899.414062 0.125)"
               id="use47" /><use
               xlink:href="#DejaVuSans-29"
               transform="translate(954.394531 0.125)"
               id="use48" /></g></g></g><g
         id="line2d_10"><path
           d="M 70.105625 287.48  L 99.784141 262.461881  L 114.623399 250.282332  L 125.222869 241.841515  L 135.822339 233.711319  L 144.301915 227.508345  L 150.661597 223.084883  L 157.021279 218.909034  L 163.380961 215.042298  L 167.620749 212.674836  L 171.860537 210.508868  L 176.100325 208.57783  L 180.340113 206.919044  L 184.579901 205.571986  L 188.819689 204.575244  L 193.059477 203.961973  L 197.299265 203.754812  L 205.778841 203.614209  L 214.258417 203.196929  L 222.737993 202.516619  L 231.217569 201.595735  L 239.697145 200.465002  L 250.296615 198.816277  L 265.135873 196.238506  L 284.214919 192.928217  L 294.814389 191.350991  L 303.293965 190.343208  L 309.653647 189.777846  L 316.013329 189.400186  L 322.373011 189.225309  L 327.490887 189.237064  L 333.486853 189.426137  L 339.482819 189.810536  L 345.478784 190.402371  L 351.47475 191.218222  L 357.470716 192.27795  L 363.466681 193.602209  L 369.462647 195.210045  L 375.458613 197.116316  L 381.454579 199.329532  L 387.450544 201.850562  L 393.44651 204.672679  L 399.442476 207.782144  L 405.438441 211.160024  L 411.434407 214.784005  L 417.430373 218.630173  L 423.426338 222.674422  L 432.420287 229.061852  L 441.414235 235.771372  L 450.408184 242.740462  L 462.400115 252.34506  L 477.390029 264.708254  L 498.375909 282.393179  L 504.371875 287.48  L 504.371875 287.48  "
           clip-path="url(#pe7ba466c5b)"
           style="fill: none; stroke: #4e9ae1; stroke-width: 2; stroke-linecap: square"
           id="path48" /></g><g
         id="line2d_11"><path
           d="M 70.105625 287.48  L 114.623399 239.413444  L 135.822339 216.822893  L 152.781491 199.055042  L 165.500855 186.033313  L 173.980431 177.602649  L 180.340113 171.519501  L 184.579901 167.67678  L 188.819689 164.171843  L 190.939583 162.651954  L 193.059477 161.398547  L 195.179371 160.545492  L 197.299265 160.238356  L 201.539053 160.144413  L 205.778841 159.863008  L 210.018629 159.395472  L 214.258417 158.744135  L 218.498205 157.911957  L 222.737993 156.902825  L 226.977781 155.721283  L 231.217569 154.372538  L 235.457357 152.862289  L 241.817039 150.307965  L 248.176721 147.427175  L 254.536403 144.24466  L 260.896085 140.78646  L 267.255767 137.080492  L 273.615449 133.156785  L 282.095025 127.646633  L 292.694495 120.462253  L 303.293965 113.281784  L 307.533753 110.569286  L 311.773541 108.087377  L 313.893435 106.982911  L 316.013329 106.006017  L 318.133223 105.190115  L 320.253117 104.571251  L 322.373011 104.183202  L 324.492905 104.050996  L 327.490887 104.243661  L 330.48887 104.782458  L 336.484836 106.44965  L 342.480802 108.1152  L 345.478784 108.759292  L 348.476767 109.249552  L 351.47475 109.59591  L 357.470716 109.936773  L 363.466681 109.937585  L 369.462647 109.708984  L 378.456596 109.076485  L 387.450544 108.204699  L 399.442476 106.792452  L 414.43239 104.78113  L 450.408184 99.823279  L 462.400115 98.42559  L 474.392047 97.291243  L 483.385995 96.656041  L 492.379944 96.232234  L 501.373892 96.036293  L 504.371875 96.020473  L 504.371875 96.020473  "
           clip-path="url(#pe7ba466c5b)"
           style="fill: none; stroke: #eba538; stroke-width: 2; stroke-linecap: square"
           id="path49" /></g><g
         id="line2d_12"><path
           d="M 70.105625 110.009247  L 74.345413 110.201303  L 78.585201 110.751871  L 82.824989 111.60129  L 87.064777 112.682929  L 93.424459 114.621604  L 99.784141 116.829247  L 108.263717 120.06379  L 116.743293 123.540246  L 127.342763 128.130459  L 144.301915 135.791339  L 157.021279 141.495934  L 165.500855 145.065335  L 171.860537 147.491292  L 176.100325 148.931701  L 180.340113 150.188287  L 184.579901 151.222  L 188.819689 151.994678  L 193.059477 152.473459  L 197.299265 152.635688  L 203.658947 152.487035  L 210.018629 152.042798  L 216.378311 151.308734  L 222.737993 150.294031  L 229.097675 149.01152  L 235.457357 147.477501  L 241.817039 145.711739  L 248.176721 143.73742  L 256.656297 140.827697  L 265.135873 137.671015  L 279.975131 131.842073  L 290.574601 127.762505  L 296.934283 125.510457  L 303.293965 123.522179  L 307.533753 122.398166  L 311.773541 121.475839  L 316.013329 120.788201  L 320.253117 120.363072  L 324.492905 120.219151  L 330.48887 120.436511  L 336.484836 121.061999  L 342.480802 122.023447  L 348.476767 123.221673  L 372.46063 128.360125  L 378.456596 129.331762  L 384.452561 130.07563  L 390.448527 130.568694  L 396.444493 130.80139  L 402.440458 130.775027  L 408.436424 130.498941  L 414.43239 129.987821  L 420.428355 129.259554  L 426.424321 128.333548  L 432.420287 127.229667  L 441.414235 125.283387  L 450.408184 123.046766  L 459.402132 120.586696  L 477.390029 115.330756  L 486.383978 112.822719  L 492.379944 111.399568  L 495.377926 110.827085  L 498.375909 110.385916  L 501.373892 110.105812  L 504.371875 110.009247  L 504.371875 110.009247  "
           clip-path="url(#pe7ba466c5b)"
           style="fill: none; stroke: #4e9ae1; stroke-opacity: 0.7; stroke-width: 2; stroke-linecap: square"
           id="path50" /></g><g
         id="line2d_13"><path
           d="M 70.105625 96.020473  L 78.585201 96.129355  L 87.064777 96.460769  L 95.544353 97.05645  L 101.904035 97.716591  L 108.263717 98.604448  L 114.623399 99.771876  L 118.863187 100.735198  L 123.102975 101.868479  L 127.342763 103.190791  L 131.582551 104.718306  L 135.822339 106.464038  L 140.062127 108.435532  L 144.301915 110.634046  L 148.541703 113.054451  L 152.781491 115.685525  L 157.021279 118.511271  L 163.380961 123.070967  L 169.740643 127.945267  L 178.220219 134.759933  L 186.699795 141.525924  L 188.819689 143.08127  L 190.939583 144.493816  L 193.059477 145.670846  L 195.179371 146.478199  L 197.299265 146.770131  L 203.658947 146.667013  L 210.018629 146.358667  L 216.378311 145.847915  L 222.737993 145.138965  L 229.097675 144.237997  L 235.457357 143.152615  L 243.936933 141.435379  L 252.416509 139.433782  L 260.896085 137.179918  L 269.375661 134.711972  L 279.975131 131.398902  L 303.293965 123.950265  L 309.653647 122.214926  L 313.893435 121.266725  L 318.133223 120.568312  L 322.373011 120.19412  L 324.492905 120.145971  L 327.490887 120.243114  L 330.48887 120.54197  L 333.486853 121.063103  L 336.484836 121.83511  L 339.482819 122.885398  L 342.480802 124.228652  L 345.478784 125.858713  L 348.476767 127.749895  L 351.47475 129.864755  L 354.472733 132.163882  L 360.468699 137.177733  L 366.464664 142.577864  L 375.458613 151.13037  L 384.452561 160.023905  L 396.444493 172.210533  L 411.434407 187.778893  L 429.422304 206.77086  L 453.406167 232.415909  L 489.381961 271.246902  L 504.371875 287.48  L 504.371875 287.48  "
           clip-path="url(#pe7ba466c5b)"
           style="fill: none; stroke: #eba538; stroke-opacity: 0.7; stroke-width: 2; stroke-linecap: square"
           id="path51" /></g><g
         id="line2d_14"><path
           d="M 70.105625 96.110724  L 87.064777 96.006525  L 106.143823 95.66192  L 131.582551 94.952303  L 167.620749 93.95047  L 186.699795 93.664748  L 199.419159 93.645188  L 203.658947 93.838812  L 207.898735 94.219773  L 212.138523 94.776278  L 218.498205 95.904602  L 224.857887 97.328299  L 231.217569 98.981209  L 239.697145 101.434489  L 252.416509 105.392246  L 269.375661 110.649762  L 277.855237 113.07485  L 286.334813 115.258392  L 292.694495 116.691794  L 299.054177 117.915994  L 305.413859 118.902663  L 311.773541 119.627121  L 318.133223 120.070079  L 324.492905 120.219142  L 333.486853 120.076453  L 342.480802 119.651514  L 351.47475 118.953823  L 360.468699 117.99891  L 369.462647 116.808129  L 378.456596 115.408319  L 390.448527 113.272364  L 405.438441 110.294216  L 441.414235 102.897999  L 453.406167 100.736523  L 462.400115 99.324172  L 471.394064 98.133326  L 480.388012 97.19638  L 489.381961 96.539092  L 498.375909 96.179645  L 504.371875 96.110724  L 504.371875 96.110724  "
           clip-path="url(#pe7ba466c5b)"
           style="fill: none; stroke: #4e9ae1; stroke-opacity: 0.5; stroke-width: 2; stroke-linecap: square"
           id="path52" /></g><g
         id="line2d_15"><path
           d="M 70.105625 36.444532  L 78.585201 36.362164  L 89.184671 36.002646  L 99.784141 35.382675  L 110.383611 34.529999  L 123.102975 33.2579  L 140.062127 31.303581  L 161.261067 28.894153  L 171.860537 27.916913  L 180.340113 27.330566  L 188.819689 26.961005  L 197.299265 26.834704  L 203.658947 26.72964  L 210.018629 26.417946  L 216.378311 25.908619  L 222.737993 25.216189  L 231.217569 24.038681  L 239.697145 22.612054  L 248.176721 20.981187  L 250.296615 20.546667  L 252.416509 25.487832  L 254.536403 27.905429  L 267.255767 38.914413  L 290.574601 59.254305  L 299.054177 66.277244  L 305.413859 71.178543  L 309.653647 74.141403  L 313.893435 76.71049  L 316.013329 77.785359  L 318.133223 78.677404  L 320.253117 79.350671  L 322.373011 79.771286  L 324.492905 79.914517  L 327.490887 79.629282  L 330.48887 78.808552  L 333.486853 77.537059  L 336.484836 75.916305  L 339.482819 74.037676  L 345.478784 69.776778  L 351.47475 65.133506  L 363.466681 55.429852  L 375.458613 45.782303  L 381.454579 41.153847  L 387.450544 36.789458  L 390.448527 34.765698  L 393.44651 32.900681  L 396.444493 31.249762  L 399.442476 29.879732  L 402.440458 28.873008  L 405.438441 28.228218  L 408.436424 27.898296  L 411.434407 27.814911  L 414.43239 27.923975  L 420.428355 28.462878  L 429.422304 29.637378  L 453.406167 32.97218  L 465.398098 34.352594  L 474.392047 35.187317  L 483.385995 35.823982  L 492.379944 36.245151  L 501.373892 36.438924  L 504.371875 36.437123  L 504.371875 36.437123  "
           clip-path="url(#pe7ba466c5b)"
           style="fill: none; stroke: #eba538; stroke-opacity: 0.5; stroke-width: 2; stroke-linecap: square"
           id="path53" /></g><g
         id="line2d_16"><path
           d="M 70.105625 96.110497  L 74.345413 95.939293  L 78.585201 95.449568  L 82.824989 94.700529  L 87.064777 93.757607  L 93.424459 92.094534  L 101.904035 89.585444  L 112.503505 86.161603  L 123.102975 82.504881  L 133.702445 78.634576  L 144.301915 74.543202  L 154.901385 70.218085  L 165.500855 65.65253  L 176.100325 60.857299  L 193.059477 53.086511  L 195.179371 52.369541  L 197.299265 52.063588  L 203.658947 52.143658  L 212.138523 52.501226  L 220.618099 53.151603  L 226.977781 53.837642  L 233.337463 54.698892  L 239.697145 55.739342  L 246.056827 56.960989  L 252.416509 58.362263  L 260.896085 60.497174  L 269.375661 62.901213  L 279.975131 66.17688  L 296.934283 71.458754  L 303.293965 73.187312  L 307.533753 74.177539  L 311.773541 74.996762  L 316.013329 75.611284  L 320.253117 75.992785  L 324.492905 76.1222  L 327.490887 76.057331  L 330.48887 75.864618  L 333.486853 75.549264  L 339.482819 74.586668  L 345.478784 73.263615  L 351.47475 71.696647  L 369.462647 66.786573  L 375.458613 65.490099  L 381.454579 64.548185  L 384.452561 64.236324  L 387.450544 64.04012  L 390.448527 63.963499  L 393.44651 64.007594  L 396.444493 64.170859  L 402.440458 64.837327  L 408.436424 65.911325  L 414.43239 67.326445  L 420.428355 69.014654  L 426.424321 70.914152  L 435.41827 74.047143  L 447.410201 78.545987  L 474.392047 88.871522  L 483.385995 91.985985  L 489.381961 93.787561  L 492.379944 94.554865  L 495.377926 95.199932  L 498.375909 95.692882  L 501.373892 96.004085  L 504.371875 96.110497  L 504.371875 96.110497  "
           clip-path="url(#pe7ba466c5b)"
           style="fill: none; stroke: #4e9ae1; stroke-opacity: 0.35; stroke-width: 2; stroke-linecap: square"
           id="path54" /></g><g
         id="line2d_17"><path
           d="M 70.105625 36.437123  L 74.345413 36.68127  L 78.585201 37.361707  L 82.824989 38.443421  L 87.064777 39.866986  L 91.304565 41.565924  L 95.544353 43.478285  L 101.904035 46.626411  L 112.503505 52.230263  L 123.102975 57.75073  L 129.462657 60.805052  L 135.822339 63.556225  L 140.062127 65.192006  L 144.301915 66.657964  L 148.541703 67.952485  L 152.781491 69.080027  L 159.141173 70.478822  L 165.500855 71.564285  L 171.860537 72.381787  L 178.220219 72.972748  L 184.579901 73.370817  L 193.059477 73.641706  L 203.658947 73.815797  L 210.018629 74.235667  L 216.378311 74.923713  L 222.737993 75.863999  L 229.097675 77.036633  L 235.457357 78.41971  L 241.817039 79.990523  L 250.296615 82.337887  L 258.776191 84.926424  L 269.375661 88.42235  L 284.214919 93.604947  L 299.054177 98.737634  L 305.413859 100.731533  L 309.653647 101.90643  L 313.893435 102.891679  L 318.133223 103.614734  L 322.373011 104.001257  L 327.490887 104.020371  L 333.486853 103.777915  L 339.482819 103.294263  L 345.478784 102.571723  L 351.47475 101.613957  L 357.470716 100.425797  L 363.466681 99.012822  L 369.462647 97.381848  L 375.458613 95.540582  L 381.454579 93.497545  L 387.450544 91.261967  L 393.44651 88.844101  L 399.442476 86.254833  L 408.436424 82.074606  L 417.430373 77.577176  L 426.424321 72.810153  L 438.416253 66.13034  L 471.394064 47.38227  L 477.390029 44.306847  L 483.385995 41.532874  L 486.383978 40.301464  L 489.381961 39.201128  L 492.379944 38.254845  L 495.377926 37.486273  L 498.375909 36.917813  L 501.373892 36.568589  L 504.371875 36.444532  L 504.371875 36.444532  "
           clip-path="url(#pe7ba466c5b)"
           style="fill: none; stroke: #eba538; stroke-opacity: 0.35; stroke-width: 2; stroke-linecap: square"
           id="path55" /></g><g
         id="line2d_18"><path
           d="M 70.105625 287.48  L 70.105625 7.2  "
           clip-path="url(#pe7ba466c5b)"
           style="fill: none; stroke-dasharray: 0.6,0.99; stroke-dashoffset: 0; stroke: #808080; stroke-opacity: 0.5; stroke-width: 0.6"
           id="path56" /></g><g
         id="line2d_19"><path
           d="M 197.299265 287.48  L 197.299265 7.2  "
           clip-path="url(#pe7ba466c5b)"
           style="fill: none; stroke-dasharray: 0.6,0.99; stroke-dashoffset: 0; stroke: #808080; stroke-opacity: 0.5; stroke-width: 0.6"
           id="path57" /></g><g
         id="line2d_20"><path
           d="M 324.492905 287.48  L 324.492905 7.2  "
           clip-path="url(#pe7ba466c5b)"
           style="fill: none; stroke-dasharray: 0.6,0.99; stroke-dashoffset: 0; stroke: #808080; stroke-opacity: 0.5; stroke-width: 0.6"
           id="path58" /></g><g
         id="line2d_21"><path
           d="M 504.371875 287.48  L 504.371875 7.2  "
           clip-path="url(#pe7ba466c5b)"
           style="fill: none; stroke-dasharray: 0.6,0.99; stroke-dashoffset: 0; stroke: #808080; stroke-opacity: 0.5; stroke-width: 0.6"
           id="path59" /></g><g
         id="patch_4"><path
           d="M 70.105625 287.48  L 70.105625 7.2  "
           style="fill: none; stroke: #000000; stroke-width: 0.8; stroke-linejoin: miter; stroke-linecap: square"
           id="path60" /></g><g
         id="patch_5"><path
           d="M 70.105625 287.48  L 504.371875 287.48  "
           style="fill: none; stroke: #000000; stroke-width: 0.8; stroke-linejoin: miter; stroke-linecap: square"
           id="path61" /></g><g
         id="text_11"><!-- TM gap --><g
           style="fill: #4f5f6b; opacity: 0.7"
           transform="translate(262.4475 174.142132) scale(0.12 -0.12)"
           id="g66"><defs
             id="defs61"><path
               id="DejaVuSans-Bold-54"
               d="M 31 4666  L 4331 4666  L 4331 3756  L 2784 3756  L 2784 0  L 1581 0  L 1581 3756  L 31 3756  L 31 4666  z "
               transform="scale(0.015625)" /><path
               id="DejaVuSans-Bold-4d"
               d="M 588 4666  L 2119 4666  L 3181 2169  L 4250 4666  L 5778 4666  L 5778 0  L 4641 0  L 4641 3413  L 3566 897  L 2803 897  L 1728 3413  L 1728 0  L 588 0  L 588 4666  z "
               transform="scale(0.015625)" /><path
               id="DejaVuSans-Bold-20"
               transform="scale(0.015625)" /><path
               id="DejaVuSans-Bold-67"
               d="M 2919 594  Q 2688 288 2409 144  Q 2131 0 1766 0  Q 1125 0 706 504  Q 288 1009 288 1791  Q 288 2575 706 3076  Q 1125 3578 1766 3578  Q 2131 3578 2409 3434  Q 2688 3291 2919 2981  L 2919 3500  L 4044 3500  L 4044 353  Q 4044 -491 3511 -936  Q 2978 -1381 1966 -1381  Q 1638 -1381 1331 -1331  Q 1025 -1281 716 -1178  L 716 -306  Q 1009 -475 1290 -558  Q 1572 -641 1856 -641  Q 2406 -641 2662 -400  Q 2919 -159 2919 353  L 2919 594  z M 2181 2772  Q 1834 2772 1640 2515  Q 1447 2259 1447 1791  Q 1447 1309 1634 1061  Q 1822 813 2181 813  Q 2531 813 2725 1069  Q 2919 1325 2919 1791  Q 2919 2259 2725 2515  Q 2531 2772 2181 2772  z "
               transform="scale(0.015625)" /><path
               id="DejaVuSans-Bold-61"
               d="M 2106 1575  Q 1756 1575 1579 1456  Q 1403 1338 1403 1106  Q 1403 894 1545 773  Q 1688 653 1941 653  Q 2256 653 2472 879  Q 2688 1106 2688 1447  L 2688 1575  L 2106 1575  z M 3816 1997  L 3816 0  L 2688 0  L 2688 519  Q 2463 200 2181 54  Q 1900 -91 1497 -91  Q 953 -91 614 226  Q 275 544 275 1050  Q 275 1666 698 1953  Q 1122 2241 2028 2241  L 2688 2241  L 2688 2328  Q 2688 2594 2478 2717  Q 2269 2841 1825 2841  Q 1466 2841 1156 2769  Q 847 2697 581 2553  L 581 3406  Q 941 3494 1303 3539  Q 1666 3584 2028 3584  Q 2975 3584 3395 3211  Q 3816 2838 3816 1997  z "
               transform="scale(0.015625)" /><path
               id="DejaVuSans-Bold-70"
               d="M 1656 506  L 1656 -1331  L 538 -1331  L 538 3500  L 1656 3500  L 1656 2988  Q 1888 3294 2169 3439  Q 2450 3584 2816 3584  Q 3463 3584 3878 3070  Q 4294 2556 4294 1747  Q 4294 938 3878 423  Q 3463 -91 2816 -91  Q 2450 -91 2169 54  Q 1888 200 1656 506  z M 2400 2772  Q 2041 2772 1848 2508  Q 1656 2244 1656 1747  Q 1656 1250 1848 986  Q 2041 722 2400 722  Q 2759 722 2948 984  Q 3138 1247 3138 1747  Q 3138 2247 2948 2509  Q 2759 2772 2400 2772  z "
               transform="scale(0.015625)" /></defs><use
             xlink:href="#DejaVuSans-Bold-54"
             id="use61" /><use
             xlink:href="#DejaVuSans-Bold-4d"
             transform="translate(68.212891 0)"
             id="use62" /><use
             xlink:href="#DejaVuSans-Bold-20"
             transform="translate(167.724609 0)"
             id="use63" /><use
             xlink:href="#DejaVuSans-Bold-67"
             transform="translate(202.539062 0)"
             id="use64" /><use
             xlink:href="#DejaVuSans-Bold-61"
             transform="translate(274.121094 0)"
             id="use65" /><use
             xlink:href="#DejaVuSans-Bold-70"
             transform="translate(341.601562 0)"
             id="use66" /></g></g><g
         id="legend_1"><g
           id="patch_6"><path
             d="M 418.394375 66.97  L 493.171875 66.97  Q 496.371875 66.97 496.371875 63.77  L 496.371875 18.4  Q 496.371875 15.2 493.171875 15.2  L 418.394375 15.2  Q 415.194375 15.2 415.194375 18.4  L 415.194375 63.77  Q 415.194375 66.97 418.394375 66.97  z "
             style="fill: #ffffff; opacity: 0.9; stroke: #cccccc; stroke-linejoin: miter"
             id="path66" /></g><g
           id="line2d_22"><path
             d="M 421.594375 28.1575  L 437.594375 28.1575  L 453.594375 28.1575  "
             style="fill: none; stroke: #4e9ae1; stroke-width: 2; stroke-linecap: square"
             id="path67" /></g><g
           id="text_12"><!-- TM --><g
             transform="translate(466.394375 33.7575) scale(0.16 -0.16)"
             id="g68"><defs
               id="defs67"><path
                 id="DejaVuSans-54"
                 d="M -19 4666  L 3928 4666  L 3928 4134  L 2272 4134  L 2272 0  L 1638 0  L 1638 4134  L -19 4134  L -19 4666  z "
                 transform="scale(0.015625)" /></defs><use
               xlink:href="#DejaVuSans-54"
               id="use67" /><use
               xlink:href="#DejaVuSans-4d"
               transform="translate(61.083984 0)"
               id="use68" /></g></g><g
           id="line2d_23"><path
             d="M 421.594375 51.6425  L 437.594375 51.6425  L 453.594375 51.6425  "
             style="fill: none; stroke: #eba538; stroke-width: 2; stroke-linecap: square"
             id="path68" /></g><g
           id="text_13"><!-- TE --><g
             transform="translate(466.394375 57.2425) scale(0.16 -0.16)"
             id="g70"><defs
               id="defs68"><path
                 id="DejaVuSans-45"
                 d="M 628 4666  L 3578 4666  L 3578 4134  L 1259 4134  L 1259 2753  L 3481 2753  L 3481 2222  L 1259 2222  L 1259 531  L 3634 531  L 3634 0  L 628 0  L 628 4666  z "
                 transform="scale(0.015625)" /></defs><use
               xlink:href="#DejaVuSans-54"
               id="use69" /><use
               xlink:href="#DejaVuSans-45"
               transform="translate(61.083984 0)"
               id="use70" /></g></g></g></g><g
       id="axes_2"><g
         id="patch_7"><path
           d="M 535.316875 287.48  L 969.583125 287.48  L 969.583125 7.2  L 535.316875 7.2  z "
           style="fill: #ffffff"
           id="path70" /></g><g
         id="patch_8"><path
           d="M 535.316875 156.52433  L 969.583125 156.52433  L 969.583125 126.008362  L 535.316875 126.008362  z "
           clip-path="url(#p8167518607)"
           style="fill: #4f5f6b; opacity: 0.12; stroke: #4f5f6b; stroke-linejoin: miter"
           id="path71" /></g><g
         id="matplotlib.axis_3"><g
           id="xtick_5"><g
             id="line2d_24"><g
               id="g71"><use
                 xlink:href="#mcaf98025a9"
                 x="535.316875"
                 y="287.48"
                 style="stroke: #000000; stroke-width: 0.8"
                 id="use71" /></g></g><g
             id="text_14"><!-- $\Gamma$ --><g
               transform="translate(529.716875 309.676875) scale(0.2 -0.2)"
               id="g72"><use
                 xlink:href="#DejaVuSans-393"
                 transform="translate(0 0.09375)"
                 id="use72" /></g></g></g><g
           id="xtick_6"><g
             id="line2d_25"><g
               id="g73"><use
                 xlink:href="#mcaf98025a9"
                 x="696.864341"
                 y="287.48"
                 style="stroke: #000000; stroke-width: 0.8"
                 id="use73" /></g></g><g
             id="text_15"><!-- M --><g
               transform="translate(688.236216 309.676875) scale(0.2 -0.2)"
               id="g74"><use
                 xlink:href="#DejaVuSans-4d"
                 id="use74" /></g></g></g><g
           id="xtick_7"><g
             id="line2d_26"><g
               id="g75"><use
                 xlink:href="#mcaf98025a9"
                 x="817.274713"
                 y="287.48"
                 style="stroke: #000000; stroke-width: 0.8"
                 id="use75" /></g></g><g
             id="text_16"><!-- K --><g
               transform="translate(810.716901 309.676875) scale(0.2 -0.2)"
               id="g76"><defs
                 id="defs75"><path
                   id="DejaVuSans-4b"
                   d="M 628 4666  L 1259 4666  L 1259 2694  L 3353 4666  L 4166 4666  L 1850 2491  L 4331 0  L 3500 0  L 1259 2247  L 1259 0  L 628 0  L 628 4666  z "
                   transform="scale(0.015625)" /></defs><use
                 xlink:href="#DejaVuSans-4b"
                 id="use76" /></g></g></g><g
           id="xtick_8"><g
             id="line2d_27"><g
               id="g77"><use
                 xlink:href="#mcaf98025a9"
                 x="969.583125"
                 y="287.48"
                 style="stroke: #000000; stroke-width: 0.8"
                 id="use77" /></g></g><g
             id="text_17"><!-- $\Gamma$ --><g
               transform="translate(963.983125 309.676875) scale(0.2 -0.2)"
               id="g78"><use
                 xlink:href="#DejaVuSans-393"
                 transform="translate(0 0.09375)"
                 id="use78" /></g></g></g></g><g
         id="matplotlib.axis_4"><g
           id="ytick_6"><g
             id="line2d_28"><g
               id="g79"><use
                 xlink:href="#m7cca39d680"
                 x="535.316875"
                 y="287.48"
                 style="stroke: #000000; stroke-width: 0.8"
                 id="use79" /></g></g></g><g
           id="ytick_7"><g
             id="line2d_29"><g
               id="g80"><use
                 xlink:href="#m7cca39d680"
                 x="535.316875"
                 y="226.530874"
                 style="stroke: #000000; stroke-width: 0.8"
                 id="use80" /></g></g></g><g
           id="ytick_8"><g
             id="line2d_30"><g
               id="g81"><use
                 xlink:href="#m7cca39d680"
                 x="535.316875"
                 y="165.581749"
                 style="stroke: #000000; stroke-width: 0.8"
                 id="use81" /></g></g></g><g
           id="ytick_9"><g
             id="line2d_31"><g
               id="g82"><use
                 xlink:href="#m7cca39d680"
                 x="535.316875"
                 y="104.632623"
                 style="stroke: #000000; stroke-width: 0.8"
                 id="use82" /></g></g></g><g
           id="ytick_10"><g
             id="line2d_32"><g
               id="g83"><use
                 xlink:href="#m7cca39d680"
                 x="535.316875"
                 y="43.683498"
                 style="stroke: #000000; stroke-width: 0.8"
                 id="use83" /></g></g></g></g><g
         id="line2d_33"><path
           d="M 535.316875 287.48  L 573.011284 263.787151  L 594.550946 250.533495  L 610.705693 240.850997  L 624.167981 233.018802  L 637.63027 225.469618  L 648.400101 219.69437  L 656.477475 215.562854  L 664.554848 211.657504  L 669.939764 209.220711  L 675.324679 206.965913  L 680.709595 204.963075  L 686.09451 203.32454  L 688.786968 202.691679  L 691.479426 202.21499  L 694.171883 201.917503  L 696.864341 201.816215  L 700.87802 201.98142  L 704.891699 202.457088  L 708.905378 203.193179  L 712.919057 204.129099  L 718.939576 205.78793  L 726.966934 208.262028  L 747.03533 214.594571  L 755.062688 216.892008  L 763.090046 218.937498  L 769.110564 220.268647  L 775.131083 221.400107  L 781.151602 222.311952  L 787.17212 222.987708  L 793.192639 223.414808  L 799.213157 223.585229  L 805.233676 223.495727  L 811.254195 223.14789  L 817.274713 222.548332  L 832.505554 228.450296  L 850.274869 235.601661  L 870.582657 244.048118  L 893.428919 253.815661  L 921.352128 266.024284  L 956.890757 281.812305  L 969.583125 287.48  L 969.583125 287.48  "
           clip-path="url(#p8167518607)"
           style="fill: none; stroke: #4e9ae1; stroke-width: 2; stroke-linecap: square"
           id="path83" /></g><g
         id="line2d_34"><path
           d="M 535.316875 287.48  L 575.703742 256.571707  L 597.243404 240.386484  L 613.39815 228.545262  L 624.167981 220.87626  L 634.937812 213.471031  L 643.015186 208.155435  L 651.092559 203.117983  L 656.477475 199.959665  L 661.86239 197.002959  L 667.247306 194.292515  L 672.632221 191.882426  L 678.017137 189.834501  L 683.402052 188.215671  L 686.09451 187.587844  L 688.786968 187.090975  L 691.479426 186.731261  L 694.171883 186.51349  L 698.871181 186.467669  L 702.88486 186.684558  L 706.898539 187.110543  L 710.912218 187.731619  L 714.925897 188.528228  L 720.946416 190.001738  L 726.966934 191.734913  L 734.994292 194.306398  L 757.069527 201.609591  L 765.096885 203.945197  L 771.117404 205.477959  L 777.137923 206.782643  L 783.158441 207.828655  L 789.17896 208.590545  L 795.199478 209.049081  L 801.219997 209.191428  L 807.240516 209.011358  L 813.261034 208.510005  L 817.274713 208.000574  L 829.967081 213.936105  L 842.659449 220.122822  L 857.89029 227.789618  L 875.659604 236.974757  L 898.505866 249.044062  L 928.967549 265.416341  L 969.583125 287.48  L 969.583125 287.48  "
           clip-path="url(#p8167518607)"
           style="fill: none; stroke: #eba538; stroke-width: 2; stroke-linecap: square"
           id="path84" /></g><g
         id="line2d_35"><path
           d="M 535.316875 156.52433  L 543.394248 156.626233  L 551.471622 156.93032  L 559.548995 157.432535  L 567.626368 158.126809  L 575.703742 159.005648  L 583.781115 160.061332  L 594.550946 161.731432  L 605.320777 163.688483  L 616.090608 165.921649  L 626.860439 168.42282  L 637.63027 171.18251  L 648.400101 174.182107  L 661.86239 178.197153  L 678.017137 183.027063  L 683.402052 184.425611  L 688.786968 185.529243  L 691.479426 185.914003  L 694.171883 186.156235  L 698.871181 186.201367  L 702.88486 185.907238  L 706.898539 185.356332  L 710.912218 184.606561  L 716.932737 183.237672  L 728.973774 180.161402  L 739.007971 177.683582  L 747.03533 175.931618  L 755.062688 174.460477  L 761.083206 173.564806  L 767.103725 172.85395  L 773.124243 172.325541  L 781.151602 171.888103  L 789.17896 171.722526  L 797.206318 171.784796  L 807.240516 172.114645  L 817.274713 172.654232  L 832.505554 169.771179  L 847.736396 167.139243  L 862.967237 164.771056  L 875.659604 163.004977  L 888.351972 161.43283  L 901.04434 160.061345  L 913.736707 158.899111  L 926.429075 157.956299  L 939.121443 157.243489  L 951.81381 156.770429  L 964.506178 156.544502  L 969.583125 156.52433  L 969.583125 156.52433  "
           clip-path="url(#p8167518607)"
           style="fill: none; stroke: #4e9ae1; stroke-opacity: 0.7; stroke-width: 2; stroke-linecap: square"
           id="path85" /></g><g
         id="line2d_36"><path
           d="M 535.316875 53.829928  L 538.009333 53.888604  L 540.701791 54.06211  L 543.394248 54.382169  L 546.086706 54.823007  L 548.779164 55.383151  L 554.164079 56.840099  L 559.548995 58.695125  L 564.93391 60.880078  L 570.318826 63.333864  L 575.703742 66.002582  L 583.781115 70.313096  L 591.858488 74.894303  L 602.628319 81.277329  L 621.475524 92.805518  L 637.63027 102.630936  L 648.400101 108.904915  L 656.477475 113.324312  L 661.86239 116.069123  L 667.247306 118.599958  L 672.632221 120.862045  L 678.017137 122.792501  L 683.402052 124.323825  L 686.09451 124.918987  L 688.786968 125.390453  L 691.479426 125.732012  L 694.171883 125.939003  L 698.871181 125.973484  L 702.88486 125.697532  L 706.898539 125.15297  L 710.912218 124.353957  L 714.925897 123.319948  L 718.939576 122.074021  L 722.953255 120.641248  L 728.973774 118.198897  L 734.994292 115.484035  L 743.02165 111.59985  L 755.062688 105.760748  L 759.076367 104.018741  L 763.090046 102.518033  L 767.103725 101.364866  L 771.117404 100.638881  L 775.131083 100.34465  L 779.144762 100.408431  L 783.158441 100.72581  L 789.17896 101.481568  L 801.219997 103.351743  L 813.261034 105.165324  L 817.274713 105.708756  L 832.505554 99.275781  L 862.967237 86.053247  L 883.275025 77.37839  L 895.967393 72.173187  L 906.121287 68.207685  L 916.275181 64.492911  L 923.890601 61.926327  L 931.506022 59.602147  L 939.121443 57.578944  L 944.19839 56.42874  L 949.275337 55.45927  L 954.352284 54.687306  L 959.429231 54.126557  L 964.506178 53.786487  L 967.044651 53.701123  L 969.583125 53.385798  L 969.583125 53.385798  "
           clip-path="url(#p8167518607)"
           style="fill: none; stroke: #eba538; stroke-opacity: 0.7; stroke-width: 2; stroke-linecap: square"
           id="path86" /></g><g
         id="line2d_37"><path
           d="M 535.316875 104.778766  L 551.471622 104.904469  L 567.626368 105.293769  L 586.473573 106.007297  L 613.39815 107.295882  L 645.707644 108.79548  L 664.554848 109.439767  L 680.709595 109.781269  L 698.871181 110.014455  L 702.88486 110.676404  L 722.953255 114.680015  L 730.980613 115.930757  L 737.001132 116.667766  L 743.02165 117.20928  L 749.042169 117.538203  L 755.062688 117.642244  L 761.083206 117.514801  L 767.103725 117.155967  L 773.124243 116.572796  L 779.144762 115.779234  L 785.165281 114.795659  L 793.192639 113.235285  L 803.226836 111.017841  L 811.254195 109.304224  L 815.267874 108.756057  L 888.351972 106.28965  L 918.813654 105.41068  L 941.659916 104.969864  L 961.967704 104.789566  L 969.583125 104.778766  L 969.583125 104.778766  "
           clip-path="url(#p8167518607)"
           style="fill: none; stroke: #4e9ae1; stroke-opacity: 0.5; stroke-width: 2; stroke-linecap: square"
           id="path87" /></g><g
         id="line2d_38"><path
           d="M 535.316875 53.385798  L 538.009333 53.696142  L 546.086706 54.045391  L 554.164079 54.718599  L 562.241453 55.690719  L 570.318826 56.900693  L 581.088657 58.770229  L 599.935861 62.358547  L 618.783066 65.869086  L 632.245355 68.113681  L 643.015186 69.678096  L 653.785017 70.999376  L 664.554848 72.051708  L 675.324679 72.81622  L 683.402052 73.19275  L 691.479426 73.396595  L 700.87802 73.562492  L 704.891699 73.935809  L 708.905378 74.52645  L 712.919057 75.297959  L 718.939576 76.708037  L 726.966934 78.876099  L 745.02849 83.920745  L 751.049009 85.355802  L 755.062688 86.140725  L 759.076367 86.715042  L 763.090046 86.991263  L 767.103725 86.870098  L 769.110564 86.635358  L 771.117404 86.279506  L 775.131083 85.223554  L 779.144762 83.785936  L 783.158441 82.083416  L 791.185799 78.298004  L 799.213157 74.540253  L 803.226836 72.863519  L 807.240516 71.450865  L 811.254195 70.428611  L 813.261034 70.106884  L 815.267874 69.931481  L 817.274713 69.912538  L 832.505554 68.338323  L 847.736396 66.553498  L 868.044184 63.92592  L 916.275181 57.498426  L 928.967549 56.084448  L 939.121443 55.148977  L 949.275337 54.438147  L 959.429231 53.992681  L 969.583125 53.829928  L 969.583125 53.829928  "
           clip-path="url(#p8167518607)"
           style="fill: none; stroke: #eba538; stroke-opacity: 0.5; stroke-width: 2; stroke-linecap: square"
           id="path88" /></g><g
         id="line2d_39"><path
           d="M 535.316875 104.72794  L 546.086706 104.643318  L 559.548995 104.284312  L 599.935861 102.890595  L 608.013235 102.88748  L 616.090608 103.064517  L 624.167981 103.425065  L 634.937812 104.147693  L 653.785017 105.743517  L 667.247306 106.808515  L 678.017137 107.451073  L 688.786968 107.830142  L 696.864341 107.917573  L 698.871181 107.795179  L 702.88486 107.084356  L 708.905378 105.663148  L 732.987453 99.714576  L 741.014811 98.016978  L 747.03533 96.955602  L 753.055848 96.145369  L 757.069527 95.777541  L 761.083206 95.568092  L 765.096885 95.529084  L 769.110564 95.664993  L 773.124243 95.971777  L 779.144762 96.72536  L 785.165281 97.77741  L 791.185799 99.061091  L 799.213157 101.017206  L 811.254195 104.01255  L 815.267874 104.680825  L 817.274713 104.809966  L 837.582501 103.697174  L 850.274869 103.202985  L 862.967237 102.925863  L 875.659604 102.87555  L 890.890446 103.071513  L 911.198234 103.600058  L 944.19839 104.481686  L 961.967704 104.710652  L 969.583125 104.72794  L 969.583125 104.72794  "
           clip-path="url(#p8167518607)"
           style="fill: none; stroke: #4e9ae1; stroke-opacity: 0.35; stroke-width: 2; stroke-linecap: square"
           id="path89" /></g><g
         id="line2d_40"><path
           d="M 535.316875 42.820074  L 543.394248 42.97906  L 554.164079 43.494995  L 573.011284 44.717168  L 637.63027 49.107283  L 653.785017 49.904934  L 669.939764 50.475675  L 686.09451 50.791165  L 698.871181 50.817222  L 702.88486 50.545538  L 706.898539 50.022543  L 710.912218 49.282133  L 716.932737 47.852889  L 722.953255 46.161192  L 734.994292 42.449463  L 743.02165 40.05398  L 749.042169 38.47569  L 753.055848 37.597625  L 757.069527 36.909114  L 761.083206 36.455156  L 765.096885 36.275907  L 769.110564 36.399149  L 773.124243 36.833291  L 777.137923 37.564613  L 781.151602 38.56142  L 785.165281 39.779549  L 791.185799 41.907142  L 805.233676 47.163013  L 809.247355 48.345908  L 813.261034 49.159564  L 815.267874 49.386737  L 817.274713 49.478776  L 842.659449 48.435638  L 875.659604 46.8336  L 941.659916 43.573567  L 956.890757 43.018013  L 967.044651 42.845645  L 969.583125 42.820074  L 969.583125 42.820074  "
           clip-path="url(#p8167518607)"
           style="fill: none; stroke: #eba538; stroke-opacity: 0.35; stroke-width: 2; stroke-linecap: square"
           id="path90" /></g><g
         id="line2d_41"><path
           d="M 535.316875 287.48  L 535.316875 7.2  "
           clip-path="url(#p8167518607)"
           style="fill: none; stroke-dasharray: 0.6,0.99; stroke-dashoffset: 0; stroke: #808080; stroke-opacity: 0.5; stroke-width: 0.6"
           id="path91" /></g><g
         id="line2d_42"><path
           d="M 696.864341 287.48  L 696.864341 7.2  "
           clip-path="url(#p8167518607)"
           style="fill: none; stroke-dasharray: 0.6,0.99; stroke-dashoffset: 0; stroke: #808080; stroke-opacity: 0.5; stroke-width: 0.6"
           id="path92" /></g><g
         id="line2d_43"><path
           d="M 817.274713 287.48  L 817.274713 7.2  "
           clip-path="url(#p8167518607)"
           style="fill: none; stroke-dasharray: 0.6,0.99; stroke-dashoffset: 0; stroke: #808080; stroke-opacity: 0.5; stroke-width: 0.6"
           id="path93" /></g><g
         id="line2d_44"><path
           d="M 969.583125 287.48  L 969.583125 7.2  "
           clip-path="url(#p8167518607)"
           style="fill: none; stroke-dasharray: 0.6,0.99; stroke-dashoffset: 0; stroke: #808080; stroke-opacity: 0.5; stroke-width: 0.6"
           id="path94" /></g><g
         id="patch_9"><path
           d="M 535.316875 287.48  L 535.316875 7.2  "
           style="fill: none; stroke: #000000; stroke-width: 0.8; stroke-linejoin: miter; stroke-linecap: square"
           id="path95" /></g><g
         id="patch_10"><path
           d="M 535.316875 287.48  L 969.583125 287.48  "
           style="fill: none; stroke: #000000; stroke-width: 0.8; stroke-linejoin: miter; stroke-linecap: square"
           id="path96" /></g><g
         id="text_18"><!-- Full gap --><g
           style="fill: #4f5f6b; opacity: 0.7"
           transform="translate(725.539062 144.530721) scale(0.12 -0.12)"
           id="g103"><defs
             id="defs96"><path
               id="DejaVuSans-Bold-46"
               d="M 588 4666  L 3834 4666  L 3834 3756  L 1791 3756  L 1791 2888  L 3713 2888  L 3713 1978  L 1791 1978  L 1791 0  L 588 0  L 588 4666  z "
               transform="scale(0.015625)" /><path
               id="DejaVuSans-Bold-75"
               d="M 500 1363  L 500 3500  L 1625 3500  L 1625 3150  Q 1625 2866 1622 2436  Q 1619 2006 1619 1863  Q 1619 1441 1641 1255  Q 1663 1069 1716 984  Q 1784 875 1895 815  Q 2006 756 2150 756  Q 2500 756 2700 1025  Q 2900 1294 2900 1772  L 2900 3500  L 4019 3500  L 4019 0  L 2900 0  L 2900 506  Q 2647 200 2364 54  Q 2081 -91 1741 -91  Q 1134 -91 817 281  Q 500 653 500 1363  z "
               transform="scale(0.015625)" /><path
               id="DejaVuSans-Bold-6c"
               d="M 538 4863  L 1656 4863  L 1656 0  L 538 0  L 538 4863  z "
               transform="scale(0.015625)" /></defs><use
             xlink:href="#DejaVuSans-Bold-46"
             id="use96" /><use
             xlink:href="#DejaVuSans-Bold-75"
             transform="translate(63.310547 0)"
             id="use97" /><use
             xlink:href="#DejaVuSans-Bold-6c"
             transform="translate(134.501953 0)"
             id="use98" /><use
             xlink:href="#DejaVuSans-Bold-6c"
             transform="translate(168.779297 0)"
             id="use99" /><use
             xlink:href="#DejaVuSans-Bold-20"
             transform="translate(203.056641 0)"
             id="use100" /><use
             xlink:href="#DejaVuSans-Bold-67"
             transform="translate(237.871094 0)"
             id="use101" /><use
             xlink:href="#DejaVuSans-Bold-61"
             transform="translate(309.453125 0)"
             id="use102" /><use
             xlink:href="#DejaVuSans-Bold-70"
             transform="translate(376.933594 0)"
             id="use103" /></g></g><g
         id="legend_2"><g
           id="patch_11"><path
             d="M 883.605625 66.97  L 958.383125 66.97  Q 961.583125 66.97 961.583125 63.77  L 961.583125 18.4  Q 961.583125 15.2 958.383125 15.2  L 883.605625 15.2  Q 880.405625 15.2 880.405625 18.4  L 880.405625 63.77  Q 880.405625 66.97 883.605625 66.97  z "
             style="fill: #ffffff; opacity: 0.9; stroke: #cccccc; stroke-linejoin: miter"
             id="path103" /></g><g
           id="line2d_45"><path
             d="M 886.805625 28.1575  L 902.805625 28.1575  L 918.805625 28.1575  "
             style="fill: none; stroke: #4e9ae1; stroke-width: 2; stroke-linecap: square"
             id="path104" /></g><g
           id="text_19"><!-- TM --><g
             transform="translate(931.605625 33.7575) scale(0.16 -0.16)"
             id="g105"><use
               xlink:href="#DejaVuSans-54"
               id="use104" /><use
               xlink:href="#DejaVuSans-4d"
               transform="translate(61.083984 0)"
               id="use105" /></g></g><g
           id="line2d_46"><path
             d="M 886.805625 51.6425  L 902.805625 51.6425  L 918.805625 51.6425  "
             style="fill: none; stroke: #eba538; stroke-width: 2; stroke-linecap: square"
             id="path105" /></g><g
           id="text_20"><!-- TE --><g
             transform="translate(931.605625 57.2425) scale(0.16 -0.16)"
             id="g107"><use
               xlink:href="#DejaVuSans-54"
               id="use106" /><use
               xlink:href="#DejaVuSans-45"
               transform="translate(61.083984 0)"
               id="use107" /></g></g></g></g></g><defs
     id="defs108"><clipPath
       id="pe7ba466c5b"><rect
         x="70.105625"
         y="7.2"
         width="434.26625"
         height="280.28"
         id="rect107" /></clipPath><clipPath
       id="p8167518607"><rect
         x="535.316875"
         y="7.2"
         width="434.26625"
         height="280.28"
         id="rect108" /></clipPath></defs><g
     lucid:page-tab-id="0_0"
     id="g2"
     transform="matrix(0.2787112,0,0,0.2787112,327.59027,217.0353)"><path
       d="M 1,1 H 241 V 241 H 1 Z"
       stroke="#4c535d"
       stroke-width="2"
       fill-opacity="0"
       id="path1-0" /><path
       d="M 57,40.83 C 57,49.69 49.8,56.86 40.96,56.86 32.1,56.86 24.93,49.69 24.93,40.83 24.93,31.98 32.1,24.8 40.96,24.8 49.8,24.8 57,31.98 57,40.83 Z m 80.33,0.34 c 0,8.85 -7.17,16.03 -16.03,16.03 -8.85,0 -16.03,-7.18 -16.03,-16.03 0,-8.85 7.18,-16.03 16.03,-16.03 8.86,0 16.03,7.18 16.03,16.03 z m 79.93,-0.55 c 0,8.85 -7.18,16.03 -16.04,16.03 -8.85,0 -16.03,-7.18 -16.03,-16.03 0,-8.85 7.17,-16.03 16.02,-16.03 8.86,0 16.04,7.17 16.04,16.02 z M 57.14,121.03 c 0,8.85 -7.17,16.03 -16.03,16.03 -8.84,0 -16.02,-7.18 -16.02,-16.03 0,-8.86 7.18,-16.03 16.03,-16.03 8.87,0 16.04,7.17 16.04,16.03 z m -0.21,80.04 c 0,8.86 -7.17,16.03 -16.03,16.03 -8.85,0 -16.03,-7.17 -16.03,-16.03 0,-8.85 7.18,-16.03 16.03,-16.03 8.86,0 16.03,7.18 16.03,16.03 z m 80.19,-79.94 c 0,8.85 -7.18,16.03 -16.04,16.03 -8.85,0 -16.03,-7.18 -16.03,-16.03 0,-8.86 7.18,-16.04 16.03,-16.04 8.86,0 16.04,7.17 16.04,16.03 z m 0,79.99 c 0,8.85 -7.18,16.03 -16.04,16.03 -8.85,0 -16.03,-7.18 -16.03,-16.03 0,-8.85 7.18,-16.03 16.03,-16.03 8.86,0 16.04,7.17 16.04,16.02 z m 80.18,-79.99 c 0,8.85 -7.17,16.03 -16.02,16.03 -8.85,0 -16.03,-7.18 -16.03,-16.03 0,-8.86 7.18,-16.04 16.03,-16.04 8.85,0 16.03,7.17 16.03,16.03 z m 0,79.79 c 0,8.85 -7.17,16.03 -16.02,16.03 -8.85,0 -16.03,-7.18 -16.03,-16.03 0,-8.86 7.18,-16.04 16.03,-16.04 8.85,0 16.03,7.18 16.03,16.04 z"
       stroke="#000000"
       stroke-opacity="0"
       stroke-width="4"
       fill="#4f5f6b"
       fill-opacity="0.98"
       id="path2-9" /></g><g
     lucid:page-tab-id="0_0"
     id="g2-4"
     transform="matrix(0.24549493,0,0,0.24549493,700.72456,224.26403)"><path
       d="M 1,1 H 248.75 V 241.1 H 1 Z"
       stroke="#3a414a"
       stroke-width="2"
       fill="#4f5f6b"
       fill-opacity="0.98"
       id="path1-8" /><path
       d="m 68.94,36.83 c 0,18 -14.6,32.58 -32.63,32.58 C 18.3,69.4 3.7,54.83 3.7,36.84 c 0,-18 14.6,-32.58 32.63,-32.58 18.03,0 32.64,14.6 32.64,32.58 z m 0,67.97 c 0,18 -14.6,32.6 -32.63,32.6 -18.02,0 -32.62,-14.6 -32.62,-32.6 0,-17.98 14.6,-32.56 32.63,-32.56 18.03,0 32.64,14.58 32.64,32.57 z m 0,68.14 c 0,18 -14.6,32.58 -32.63,32.58 -18.02,0 -32.62,-14.6 -32.62,-32.58 0,-18 14.6,-32.58 32.63,-32.58 18.03,0 32.64,14.6 32.64,32.58 z M 127.83,70.8 c 0,18 -14.6,32.58 -32.63,32.58 -18.03,0 -32.64,-14.6 -32.64,-32.58 0,-18 14.6,-32.58 32.64,-32.58 18.02,0 32.63,14.6 32.63,32.58 z m 0,67.98 c 0,18 -14.6,32.58 -32.63,32.58 -18.03,0 -32.64,-14.58 -32.64,-32.58 0,-18 14.6,-32.58 32.64,-32.58 18.02,0 32.63,14.6 32.63,32.58 z m 0,68.12 c 0,18 -14.6,32.6 -32.63,32.6 -18.03,0 -32.64,-14.6 -32.64,-32.6 0,-17.98 14.6,-32.57 32.64,-32.57 18.02,0 32.63,14.6 32.63,32.58 z M 186.74,36.42 c 0,18 -14.6,32.58 -32.63,32.58 -18,0 -32.62,-14.58 -32.62,-32.58 0,-18 14.6,-32.58 32.63,-32.58 18.03,0 32.64,14.6 32.64,32.58 z m 0,67.98 c 0,18 -14.6,32.58 -32.63,32.58 -18,0 -32.62,-14.58 -32.62,-32.58 0,-18 14.6,-32.57 32.63,-32.57 18.03,0 32.64,14.58 32.64,32.57 z m 0,68.13 c 0,18 -14.6,32.58 -32.63,32.58 -18,0 -32.62,-14.58 -32.62,-32.57 0,-18 14.6,-32.58 32.63,-32.58 18.03,0 32.64,14.6 32.64,32.58 z M 245.72,70.8 c 0,18 -14.6,32.58 -32.63,32.58 -18.03,0 -32.64,-14.6 -32.64,-32.58 0,-18 14.6,-32.58 32.63,-32.58 18,0 32.62,14.6 32.62,32.58 z m 0,67.98 c 0,18 -14.6,32.58 -32.63,32.58 -18.03,0 -32.64,-14.58 -32.64,-32.58 0,-18 14.6,-32.58 32.63,-32.58 18,0 32.62,14.6 32.62,32.58 z m 0,68.12 c 0,18 -14.6,32.6 -32.63,32.6 -18.03,0 -32.64,-14.6 -32.64,-32.6 0,-17.98 14.6,-32.57 32.63,-32.57 18,0 32.62,14.6 32.62,32.58 z"
       stroke="#000000"
       stroke-opacity="0"
       stroke-width="4"
       fill="#ffffff"
       id="path2-8" /></g><g
     lucid:page-tab-id="0_0"
     id="g13"
     transform="matrix(0.36756543,0,0,0.36756543,231.40818,206.7093)"><path
       d="M 93.4,117.93 179,31.08"
       stroke="#979ea8"
       stroke-width="2"
       fill="none"
       id="path1-09" /><path
       d="m 94.12,118.6 -0.05,0.04 h -2.73 l 1.4,-1.4 z"
       stroke="#979ea8"
       stroke-width="0.05"
       fill="#979ea8"
       id="path2-4" /><path
       d="m 178.97,31.1 0.72,-0.73 m -0.39,87.27 V 31.77"
       stroke="#979ea8"
       stroke-width="2"
       fill="none"
       id="path3-8" /><path
       d="m 180.27,118.64 h -1.95 v -1.02 h 1.95 z"
       stroke="#979ea8"
       stroke-width="0.05"
       fill="#979ea8"
       id="path4" /><path
       d="m 179.3,31.8 v -1.03 m -3.36,87.87 h -81.7"
       stroke="#979ea8"
       stroke-width="2"
       fill="none"
       id="path5" /><path
       d="m 179.94,118.64 h -4.03 v -0.97 h 4.04 z m -85.66,0 h -4.03 v -0.97 h 4.03 z"
       stroke="#979ea8"
       stroke-width="0.05"
       fill="#979ea8"
       id="path6" /><path
       d="M 66.07,121.13 H 87.75 V 154 H 66.07 Z"
       fill="#ffffff"
       fill-opacity="0"
       id="path7" /><path
       d="m 87.37,131 h -0.93 c -0.36,-3.64 -1.44,-4.8 -5.16,-4.8 h -6.46 c -1.04,0 -1.33,0.3 -1.33,1.5 v 17.38 c 0,2.88 0.47,3.32 3.35,3.47 v 0.7 H 66.47 v -0.7 c 2.8,-0.2 3.25,-0.63 3.25,-3.88 V 128.9 c 0,-2.7 -0.37,-3.17 -3.2,-3.4 v -0.7 h 20.66"
       id="path8" /><path
       d="m 185.65,0 h 31.44 v 31.47 h -31.45 z"
       fill="#ffffff"
       fill-opacity="0"
       id="path9" /><path
       d="m 216.18,26.93 h -9.9 v -0.68 c 2.8,-0.17 3.2,-0.74 3.2,-3.67 V 6.7 l -9.02,20.23 h -0.5 l -8.9,-19.4 v 14.06 c 0,3.88 0.56,4.5 3.28,4.65 v 0.68 h -8.27 v -0.68 c 2.93,-0.2 3.43,-0.7 3.43,-4.66 V 7.5 c 0,-2.7 -0.46,-3.14 -3.36,-3.32 V 3.51 h 7 l 8.16,17.74 7.82,-17.74 h 7.03 v 0.67 c -2.55,0.03 -3.08,0.63 -3.08,3.3 v 15.47 c 0,2.5 0.53,3.1 3.1,3.28 v 0.68"
       id="path10" /><path
       d="m 188.04,103.47 h 25.55 v 31.5 h -25.56 z"
       fill="#ffffff"
       fill-opacity="0"
       id="path11" /><path
       d="m 212.94,130.4 h -10.47 v -0.66 l 0.92,-0.07 c 1.12,-0.07 1.76,-0.4 1.76,-1.03 0,-0.56 -0.6,-1.66 -1.8,-3.46 l -3.37,-5 -4.2,5.28 c -1.32,1.63 -1.9,2.62 -1.9,3.15 0,0.68 0.65,1 2.7,1.14 v 0.67 h -8.2 v -0.66 c 1.83,-0.18 2.4,-0.6 5.12,-4.03 l 5.52,-6.9 -3.75,-5.47 c -3.4,-5 -4.15,-5.4 -6.48,-5.66 V 107 h 10.64 v 0.67 l -1.02,0.04 c -1,0.04 -1.63,0.22 -1.63,1.03 0,1.03 1.07,2.37 2.95,5.13 l 1.55,2.26 3.96,-4.95 c 1.06,-1.3 1.42,-1.84 1.42,-2.37 0,-0.8 -0.5,-1.06 -2.4,-1.13 V 107 h 8.37 v 0.67 c -2.26,0.14 -3.14,0.74 -5.37,3.5 l -5.06,6.26 6.8,9.7 c 1.37,1.97 2.04,2.4 3.92,2.6 v 0.68"
       id="path12" /><path
       d="m 1,30.2 h 89.44 v 89.44 H 1 Z m 89.76,0 h 89.44 v 89.44 H 90.76 Z M 1,119.64 h 89.44 v 89.44 H 1 Z m 89.76,0 h 89.44 v 89.44 H 90.76 Z"
       stroke="#4c535d"
       stroke-width="2"
       fill-opacity="0"
       id="path13" /></g><g
     lucid:page-tab-id="0_0"
     id="g8-8"
     transform="matrix(0.29095487,0,0,0.29095487,631.12826,221.94853)"><path
       d="m 56.44,33.84 98.1,-0.18 M 56.5,33.84 h -2.06 m 100.03,-0.18 h 2.06 M 3.02,123.24 53.67,209 M 3.04,123.28 2,121.52 m 51.65,87.43 1.04,1.76 M 3.08,121.94 55.18,34.64 M 3.1,121.9 2.05,123.66 m 53.1,-88.99 1.05,-1.76 m -1.4,176.69 98.97,-0.17 M 54.86,209.6 H 52.8 m 100.92,-0.17 h 2.05 m -0.77,-0.88 49.1,-84.4 m -49.08,84.35 -1.03,1.78 m 50.08,-86.08 1.03,-1.78 m -49.43,-87.92 48.46,88.12 m -48.43,-88.07 -1,-1.8 m 49.4,89.83 1,1.8"
       stroke="#3a414a"
       stroke-width="4"
       fill="none"
       id="path1-2" /><path
       d="m 106.65,120.84 -0.24,-85.6 m 0.24,85.56 v 1.54 M 106.4,35.3 v -1.55 m 1.16,86.5 46.73,-84.38 m -46.71,84.35 -0.75,1.35 m 47.44,-85.67 0.75,-1.35 m -48.62,-0.8 48.48,0.03 m -48.43,-0.03 h -1.54 m 49.93,0.03 h 1.54"
       stroke="#979ea8"
       stroke-width="3"
       fill="none"
       id="path2-45" /><path
       d="m 82,121.6 h 21.7 v 32.86 H 82 Z"
       fill="#ffffff"
       fill-opacity="0"
       id="path3-5" /><path
       d="m 103.3,131.48 h -0.92 c -0.37,-3.66 -1.44,-4.8 -5.17,-4.8 h -6.45 c -1.03,0 -1.32,0.3 -1.32,1.47 v 17.4 c 0,2.87 0.48,3.3 3.35,3.46 v 0.7 H 82.4 v -0.7 c 2.82,-0.17 3.26,-0.62 3.26,-3.87 v -15.76 c 0,-2.7 -0.37,-3.17 -3.2,-3.4 v -0.7 h 20.66"
       id="path4-1" /><path
       d="m 82.38,0 h 31.44 V 31.47 H 82.38 Z"
       fill="#ffffff"
       fill-opacity="0"
       id="path5-7" /><path
       d="m 112.9,26.93 h -9.88 v -0.67 c 2.8,-0.18 3.18,-0.75 3.18,-3.68 V 6.7 l -9,20.23 H 96.7 L 87.78,7.53 v 14.06 c 0,3.88 0.57,4.5 3.3,4.66 v 0.67 H 82.8 v -0.67 c 2.93,-0.22 3.43,-0.7 3.43,-4.67 V 7.5 c 0,-2.68 -0.46,-3.14 -3.36,-3.32 V 3.51 h 7 l 8.16,17.74 7.82,-17.74 h 7.03 v 0.67 c -2.55,0.03 -3.08,0.64 -3.08,3.3 v 15.47 c 0,2.5 0.53,3.1 3.1,3.3 v 0.66"
       id="path6-1" /><path
       d="m 156.67,0.7 h 24.37 v 30 h -24.37 z"
       fill="#ffffff"
       fill-opacity="0"
       id="path7-1" /><path
       d="m 181.02,26.36 h -10.2 v -0.64 l 0.9,-0.03 c 0.98,-0.05 1.42,-0.35 1.42,-0.82 0,-0.9 -1.95,-2.96 -4.6,-5.73 l -3.38,-3.47 -0.88,0.7 v 6.24 c 0,2.6 0.54,2.9 3,3.1 v 0.64 h -9.5 v -0.64 c 2.66,-0.13 3.07,-0.64 3.07,-3.57 V 7.87 c 0,-2.5 -0.37,-3 -3.03,-3.17 V 4.06 h 9.5 V 4.7 c -2.8,0.2 -3.04,0.6 -3.04,3.2 v 6.74 l 6,-5.52 c 1.62,-1.52 2.63,-2.5 2.63,-3.34 0,-0.67 -0.26,-1 -1.38,-1.04 L 170.69,4.7 V 4.06 h 8.73 V 4.7 c -2.28,0.17 -2.92,0.5 -5.25,2.73 l -6.26,6 7.87,8.62 c 2.8,3.06 3.7,3.67 5.25,3.67 v 0.64"
       id="path8-5" /></g></svg>
