<?xml version="1.0" encoding="UTF-8" standalone="no"?>
<!-- Created with Inkscape (http://www.inkscape.org/) -->

<svg
   width="297mm"
   height="297mm"
   viewBox="0 0 297 297"
   version="1.1"
   id="svg5"
   xml:space="preserve"
   xmlns="http://www.w3.org/2000/svg"
   xmlns:svg="http://www.w3.org/2000/svg"><defs
     id="defs2" /><g
     id="layer2"><path
       style="opacity:1;fill:#ffffff;fill-opacity:1;stroke:#ffffff;stroke-width:0;stroke-opacity:0.904624"
       d="m 103.32487,214.35206 c -0.071,-7.6e-4 -1.18311,3.83968 -1.65827,5.79035 -0.54255,2.22736 -1.06367,4.46846 -1.35924,6.74183 -0.23524,1.80939 -0.30114,3.63968 -0.326211,5.46412 -0.03869,2.81935 4.8e-4,5.64795 0.271851,8.45447 0.19083,1.97363 0.57264,3.9256 0.95147,5.87191 0.43677,2.24407 0.81544,4.5133 1.52233,6.68745 0.81088,2.4939 1.94202,4.87779 3.09907,7.23115 1.41935,2.88686 2.89354,5.76748 4.70296,8.42727 1.66613,2.44916 3.63298,4.68747 5.62725,6.87773 2.13539,2.34526 4.30075,4.69552 6.769,6.68745 2.30792,1.86256 4.87074,3.39976 7.44863,4.8661 2.64899,1.50679 5.37442,2.90612 8.2098,4.02333 3.39239,1.3367 6.8838,2.50086 10.46612,3.18062 3.78688,0.71857 7.67322,0.82376 11.52635,0.92428 2.92703,0.0763 5.8598,-0.0401 8.78067,-0.24467 2.99273,-0.20961 6.00991,-0.37914 8.94379,-1.00583 3.70215,-0.79077 7.29931,-2.05987 10.81953,-3.45247 3.15465,-1.24798 6.23868,-2.701 9.18845,-4.37675 3.02216,-1.71687 5.90953,-3.68076 8.67194,-5.79034 2.99651,-2.28836 5.78159,-4.84678 8.53601,-7.42143 2.04559,-1.91209 4.12803,-3.80713 5.92628,-5.95347 2.04717,-2.44343 3.8009,-5.12668 5.49132,-7.82921 1.66486,-2.66166 3.2157,-5.40325 4.56704,-8.23699 1.1357,-2.38154 2.15525,-4.82814 2.96314,-7.33988 0.85668,-2.66342 1.55881,-5.3902 1.98449,-8.15543 0.41316,-2.68385 0.43487,-5.41496 0.5437,-8.12824 0.10858,-2.70748 0.29516,-5.42501 0.10874,-8.12825 -0.21125,-3.06334 -0.67481,-6.11988 -1.38642,-9.10689 -0.65414,-2.74573 -1.62711,-5.41093 -2.63692,-8.04669 -0.8361,-2.18229 -1.78314,-4.32483 -2.82722,-6.4156 -0.76128,-1.52444 -1.52575,-3.06102 -2.50099,-4.4583 -0.98951,-1.4177 -3.31394,-4.01793 -3.37092,-3.9418 -0.0691,0.0924 2.24241,6.23593 2.96893,9.20823 0.7335,3.00082 1.23114,5.6497 1.67693,8.70653 0.40779,2.79627 0.49969,5.66748 0.54836,8.49291 0.0515,2.9922 -0.18372,5.96182 -0.54563,8.93252 -0.34776,2.85612 -0.93821,5.69118 -1.73982,8.45446 -0.79899,2.75427 -1.80711,5.45966 -3.04469,8.0467 -1.51437,3.16563 -3.34918,6.18179 -5.32822,9.07971 -1.69203,2.47761 -3.52823,4.87236 -5.57287,7.06803 -1.9715,2.11712 -4.11751,4.08753 -6.41561,5.84472 -1.68941,1.29177 -5.38258,3.42529 -5.38258,3.42529 -0.0229,0.006 3.89623,-5.78351 5.51851,-8.86224 1.71566,-3.25593 3.23622,-6.6318 4.43112,-10.11273 0.63433,-1.84797 1.14921,-3.74968 1.44078,-5.68161 0.26405,-1.74952 0.30933,-3.5321 0.27185,-5.30104 -0.0473,-2.22934 -0.15641,-4.48026 -0.62524,-6.66026 -0.435,-2.02273 -1.20526,-3.96656 -2.01167,-5.8719 -0.89562,-2.11609 -1.86078,-4.22582 -3.12626,-6.14377 -1.22235,-1.85256 -2.67774,-3.56243 -4.268,-5.11072 -1.77955,-1.7326 -3.71059,-3.35093 -5.84473,-4.62142 -1.95685,-1.16495 -4.1748,-2.15215 -6.31812,-2.92195 -2.55028,-0.91595 -5.07317,-1.72939 -7.76358,-2.05285 -2.17948,-0.26204 -6.56339,0.16446 -6.57872,0.29902 -0.009,0.0828 7.12804,2.68785 10.33021,4.70296 1.39931,0.88057 2.66503,1.984 3.80588,3.18062 1.52195,1.59636 2.9803,3.31609 3.99615,5.27384 1.12587,2.16979 1.89354,4.56515 2.22915,6.9865 0.48421,3.49352 0.48937,7.15012 -0.35341,10.57487 -0.80284,3.2625 -2.5352,6.26949 -4.37674,9.07971 -2.03202,3.1009 -4.34145,6.13893 -7.25834,8.42726 -4.08761,3.20679 -9.01522,5.27504 -13.8914,7.06804 -3.77708,1.38886 -7.74179,2.377 -11.74383,2.80003 -5.76887,0.60979 -11.68558,0.60084 -17.39824,-0.40776 -4.56867,-0.80663 -9.04595,-2.36191 -13.1846,-4.45831 -4.2655,-2.16064 -8.37015,-4.84859 -11.74382,-8.23698 -3.67486,-3.69089 -6.58713,-8.17279 -8.9166,-12.83121 -1.53281,-3.06529 -2.3737,-6.44215 -3.23499,-9.75932 -0.47522,-1.83026 -0.73113,-3.7108 -1.0602,-5.57288 -0.1566,-0.88606 -0.3314,-1.77029 -0.43496,-2.6641 -0.0606,-0.52333 0.0487,-1.57502 -0.10874,-1.57672 z"
       id="path361" /><path
       style="opacity:1;fill:#ffffff;fill-opacity:1;stroke:#ffffff;stroke-width:0;stroke-opacity:0.904624"
       d="m 125.43008,294.78478 c -0.0167,0.009 -4.29609,-0.58532 -6.38188,-1.15336 -2.00292,-0.54548 -3.92415,-1.36249 -5.84365,-2.15291 -3.5952,-1.48046 -7.19364,-2.98937 -10.61083,-4.84408 -3.736951,-2.02825 -7.326382,-4.34181 -10.764619,-6.84321 -3.444417,-2.5059 -6.735102,-5.2364 -9.841934,-8.15036 -2.671368,-2.50553 -5.209636,-5.16718 -7.535232,-7.99657 -2.239969,-2.72523 -4.296102,-5.61122 -6.151209,-8.6117 -2.043945,-3.3059 -3.890811,-6.74704 -5.459199,-10.30328 -1.504796,-3.41207 -2.707862,-6.95855 -3.767615,-10.53394 -0.928779,-3.13353 -1.577067,-6.34463 -2.262165,-9.54028 -0.665344,-3.10353 -1.465615,-6.19458 -1.794193,-9.35156 -0.315239,-3.02883 -0.238178,-6.08984 -0.16311,-9.13408 0.09985,-4.04938 0.380453,-8.09724 0.815544,-12.12441 0.356247,-3.2974 0.758486,-6.60107 1.467977,-9.84089 0.666212,-3.04218 1.600567,-6.02472 2.609736,-8.97096 1.212688,-3.54041 2.649938,-7.00262 4.132085,-10.43896 1.473868,-3.41713 2.985006,-6.82585 4.730147,-10.11273 1.673237,-3.15144 3.64254,-6.13666 5.491321,-9.18844 1.256206,-2.07362 2.642104,-4.07126 3.805867,-6.19813 1.497955,-2.73763 2.843522,-5.56103 4.077716,-8.42727 0.88924,-2.06512 1.717366,-4.1621 2.392258,-6.30686 0.600309,-1.90775 1.113047,-3.84932 1.467976,-5.81754 0.352694,-1.95582 0.554436,-3.94133 0.652434,-5.92627 0.08132,-1.64732 0.07158,-3.30314 -0.05437,-4.94764 -0.09786,-1.27777 -0.233169,-2.56256 -0.543697,-3.80587 -0.322292,-1.29041 -1.405249,-3.73886 -1.359238,-3.75149 0,0 1.736497,0.67698 2.500998,1.19612 1.103397,0.74927 1.996347,1.7719 2.935953,2.71848 0.985089,0.9924 1.932066,2.02484 2.827216,3.09907 1.092915,1.31157 2.176858,2.64097 3.099062,4.07771 0.788358,1.2282 1.462535,2.53141 2.066045,3.86023 0.720989,1.58755 1.30487,3.2366 1.848554,4.89327 0.586852,1.78818 1.153412,3.59144 1.522352,5.43694 0.32213,1.61135 0.50609,3.25262 0.59807,4.89327 0.1055,1.88193 0.016,3.77084 -0.0543,5.65442 -0.0311,0.83485 -0.22882,2.45929 -0.16312,2.501 0,0 1.55576,-0.73927 2.28353,-1.19613 1.26173,-0.79206 2.42881,-1.72884 3.58839,-2.66411 1.19963,-0.96759 2.36986,-1.97523 3.47964,-3.04469 1.56015,-1.50349 3.13387,-3.01538 4.4583,-4.73014 1.29407,-1.67545 2.36224,-3.52132 3.37091,-5.38259 0.90403,-1.66819 1.71086,-3.39428 2.39227,-5.16511 0.7905,-2.05435 1.50655,-4.1523 1.95729,-6.30686 0.4668,-2.23125 0.62658,-4.52061 0.76117,-6.7962 0.1616,-2.73188 0.22307,-5.478332 0.0544,-8.209797 -0.17237,-2.791114 -0.64606,-5.557143 -1.08739,-8.318535 -0.43081,-2.695598 -1.05839,-5.356594 -1.52235,-8.046686 -0.48008,-2.783562 -0.87264,-5.581515 -1.30486,-8.372907 -0.18238,-1.177829 -0.45678,-2.345327 -0.54371,-3.53402 -0.19825,-2.711298 -0.11977,-5.442474 0.0543,-8.155428 0.15321,-2.386866 0.4115,-4.77497 0.86991,-7.122408 0.439,-2.248022 1.10382,-4.449117 1.7942,-6.63308 0.78451,-2.48176 1.63637,-4.948577 2.6641,-7.339886 0.84808,-1.973281 1.8384,-3.885714 2.88159,-5.763168 1.17755,-2.119272 2.45502,-4.184883 3.80587,-6.198126 1.48853,-2.218443 3.06711,-4.379155 4.73014,-6.469975 1.86365,-2.343045 3.86031,-4.578865 5.87192,-6.79619 2.11883,-2.335524 4.32889,-4.5868961 6.52433,-6.8505587 1.43645,-1.4810918 4.34956,-4.4039312 4.34956,-4.4039312 0,0 -0.88452,3.3162102 -1.19613,5.0019957 -0.37876,2.049139 -0.64086,4.1216092 -0.81554,6.1981262 -0.24628,2.927626 -0.38953,5.870577 -0.32621,8.807863 0.0537,2.490286 0.25354,4.981699 0.59806,7.448623 0.39622,2.83719 0.8741,5.679852 1.68546,8.427278 1.0599,3.589102 2.55197,7.046551 4.13208,10.438945 1.0956,2.352203 2.3409,4.638358 3.69712,6.850563 1.23232,2.010077 2.62102,3.922152 4.02336,5.817537 1.44271,1.949976 3.00674,3.807214 4.51265,5.708799 1.73787,2.194462 3.5174,4.356389 5.21948,6.578712 1.57587,2.057529 3.14142,4.12496 4.62141,6.252495 1.28599,1.848649 2.52776,3.729904 3.69714,5.654432 0.93968,1.546491 1.89915,3.09018 2.6641,4.730148 0.76125,1.632053 1.31836,3.353015 1.90293,5.056359 0.6345,1.84886 1.02297,3.781555 1.73983,5.600068 0.42805,1.085902 0.92152,2.152732 1.52235,3.153442 0.47395,0.78935 0.93129,1.6308 1.63108,2.22915 0.51133,0.4372 1.14177,0.76014 1.7942,0.92428 1.01953,0.25648 2.13927,0.33129 3.15343,0.0543 0.90254,-0.24646 1.70162,-0.83684 2.39225,-1.46797 0.85087,-0.77756 1.57751,-1.72885 2.06605,-2.77285 0.56079,-1.19838 0.71355,-2.554009 0.92428,-3.860236 0.27233,-1.687918 0.39726,-3.401416 0.43496,-5.110739 0.0392,-1.777118 -0.0429,-3.559264 -0.21749,-5.328215 -0.16041,-1.624895 -0.39442,-3.247811 -0.76116,-4.838886 -0.2086,-0.904984 -0.51491,-1.785398 -0.81555,-2.664107 -0.596,-1.742041 -1.95731,-5.165104 -1.95731,-5.165104 0.0521,-0.09676 3.35309,2.87675 4.94763,4.403931 1.24031,1.187907 2.40958,2.448181 3.58839,3.697126 1.2326,1.30592 2.47226,2.607123 3.64275,3.968977 1.39473,1.622748 2.76262,3.273086 4.02335,5.001995 1.12542,1.543329 2.10202,3.189855 3.15344,4.784517 1.12335,1.70378 2.37086,3.331801 3.37091,5.110741 1.06071,1.88686 1.85495,3.91161 2.77285,5.87191 0.71175,1.52004 1.49493,3.0095 2.1204,4.56704 0.87778,2.18586 1.6569,4.41679 2.28353,6.68745 0.62597,2.26829 1.08103,4.58388 1.46796,6.90493 0.32124,1.92685 0.57076,3.86884 0.70682,5.81754 0.13636,1.95288 0.13992,3.91452 0.10874,5.87191 -0.0345,2.15913 -0.0761,4.32511 -0.32623,6.46997 -0.29027,2.48918 -0.77923,4.95625 -1.35923,7.39426 -0.32785,1.37805 -0.73776,2.73741 -1.19613,4.07771 -0.64254,1.87879 -1.35758,3.73602 -2.17478,5.54569 -0.91402,2.02408 -1.87309,4.03957 -3.04469,5.92628 -1.14157,1.83835 -2.4814,3.55169 -3.86024,5.21947 -1.2095,1.46296 -2.56927,2.79487 -3.86024,4.18645 -0.75869,0.81785 -2.28352,2.44664 -2.28352,2.44664 -0.0147,0.0838 1.01445,0.72555 1.52235,1.08738 0.68807,0.49019 1.38065,0.97408 2.06605,1.46798 0.94696,0.68238 1.92182,1.32938 2.82721,2.06605 0.98535,0.80172 1.9066,1.68006 2.82721,2.55536 0.42722,0.40619 0.82714,0.84029 1.25051,1.2505 0.10933,0.10593 0.32963,0.29294 0.3308,0.29724 0.002,0.006 0.51063,1.60385 0.77697,2.39405 0.25287,0.7502 0.52816,1.49272 0.78156,2.24274 0.29604,0.8762 0.59718,1.75112 0.86312,2.63693 0.22962,0.7648 0.43921,1.53581 0.63204,2.3107 0.2523,1.01388 0.47679,2.03474 0.68643,3.05828 0.1322,0.64554 0.24599,1.29476 0.36019,1.94371 0.12418,0.70571 0.24255,1.41249 0.3534,2.12042 0.13779,0.87992 0.28843,1.75858 0.38738,2.64371 0.098,0.87615 0.15317,1.75679 0.20389,2.63692 0.0687,1.19275 0.11557,2.38706 0.13592,3.5816 0.0201,1.17785 0.026,2.35668 -0.0136,3.53402 -0.0408,1.21375 -0.12336,2.42632 -0.23107,3.63596 -0.0953,1.06976 -0.22328,2.13667 -0.367,3.20101 -0.14203,1.05194 -0.28485,2.10503 -0.48933,3.14664 -0.23772,1.211 -0.53439,2.41058 -0.85632,3.60197 -0.28713,1.06267 -0.60172,2.1188 -0.95826,3.16023 -0.5012,1.464 -1.04767,2.91411 -1.65826,4.33597 -0.49739,1.15824 -1.05261,2.29175 -1.63109,3.41169 -0.62453,1.20915 -1.28067,2.4032 -1.98449,3.568 -0.7253,1.20032 -1.51444,2.36129 -2.30391,3.52042 -0.8361,1.22761 -1.66453,2.46305 -2.57575,3.63597 -0.82821,1.06607 -1.72322,2.07936 -2.62333,3.08547 -0.56421,0.63062 -1.14219,1.24951 -1.73982,1.84856 -0.81037,0.81229 -1.63659,1.61056 -2.501,2.36508 -1.05604,0.92178 -2.14188,1.81279 -3.27577,2.63692 -0.81018,0.58884 -1.66381,1.11617 -2.51458,1.64467 -0.7505,0.46621 -2.27083,1.37125 -2.28354,1.34565 -0.009,-0.019 1.38753,-2.16052 2.07718,-3.24542 0.84122,-1.32337 1.71427,-2.6316 2.49327,-3.99252 0.78037,-1.3633 1.54094,-2.73875 2.22575,-4.15248 0.69432,-1.43335 1.32225,-2.89912 1.91654,-4.37674 0.5295,-1.3166 1.0371,-2.64407 1.46796,-3.99616 0.36776,-1.15403 0.70371,-2.32124 0.95147,-3.50684 0.22767,-1.08947 0.40571,-2.19309 0.48933,-3.30294 0.10315,-1.36897 0.0583,-2.74639 0.0136,-4.1185 -0.0388,-1.19375 -0.0948,-2.38983 -0.24465,-3.57479 -0.14041,-1.11086 -0.33902,-2.21695 -0.61167,-3.30295 -0.24319,-0.96866 -0.5618,-1.9186 -0.91068,-2.8544 -0.446,-1.19626 -0.96198,-2.36674 -1.50876,-3.52043 -0.73077,-1.54192 -1.4483,-3.10073 -2.36507,-4.53984 -0.77611,-1.21829 -1.68879,-2.3491 -2.63692,-3.43889 -0.83486,-0.95959 -1.73131,-1.86868 -2.67771,-2.71846 -1.20463,-1.08166 -2.46174,-2.11505 -3.80587,-3.01752 -1.07451,-0.72146 -2.2238,-1.33029 -3.38449,-1.90293 -1.19776,-0.59094 -2.43456,-1.10356 -3.68353,-1.57672 -1.38808,-0.52586 -2.79186,-1.02188 -4.22724,-1.40001 -1.26396,-0.33298 -2.54601,-0.63163 -3.84664,-0.76117 -1.42018,-0.14144 -2.8566,-0.093 -4.2816,-0.0136 -0.79231,0.0441 -1.57938,0.16051 -2.36508,0.27184 -1.53767,0.21787 -3.14309,0.3208 -4.68216,0.52856 -2.48677,0.33568 -4.9394,0.52259 -7.40146,1.00738 -3.3702,0.66359 -6.72912,1.55848 -9.88166,2.92237 -2.64451,1.1441 -5.07732,2.74616 -7.46222,4.36315 -1.53631,1.04164 -3.03735,2.15456 -4.39034,3.42527 -2.33015,2.18847 -4.50533,4.57395 -6.36123,7.17678 -1.41339,1.98223 -2.46793,4.19989 -3.58838,6.36124 -0.72009,1.38903 -1.91087,4.28841 -2.01168,4.24082 -0.0525,-0.0248 -1.51303,-2.89728 -1.9573,-4.4583 -0.67141,-2.35911 -0.90647,-4.83599 -1.03302,-7.28551 -0.17404,-3.36882 -0.0493,-6.76694 0.38058,-10.11274 0.35247,-2.74323 0.93983,-5.47052 1.7942,-8.10106 0.84244,-2.59377 1.87384,-5.15566 3.26218,-7.50298 1.64425,-2.78005 3.69871,-5.32727 5.92627,-7.66612 2.25183,-2.36433 4.80532,-4.44452 7.44863,-6.36123 2.33761,-1.69505 4.83176,-3.18174 7.39424,-4.51267 3.22692,-1.67602 6.65442,-2.93448 10.00399,-4.34956 3.51874,-1.48654 7.16065,-2.69182 10.60206,-4.34955 2.28049,-1.09853 4.59975,-2.18949 6.63308,-3.69713 1.15313,-0.85499 2.18872,-1.88038 3.09906,-2.99033 0.91498,-1.11558 1.73437,-2.33224 2.33791,-3.64275 0.65713,-1.42693 1.18043,-2.95192 1.35923,-4.51268 0.25632,-2.23731 0.0654,-4.59168 -0.0371,-6.84131 -0.10699,-2.35143 -0.38396,-4.23105 -0.8566,-5.86814 -0.86477,-2.99528 -1.17847,-4.68664 -2.73257,-7.74507 -1.59142,-3.13189 -2.96707,-4.30766 -5.09663,-7.02271 -1.7188,-2.19137 -4.37162,-4.01733 -6.71356,-5.78563 -2.29122,-1.72999 -4.10136,-2.8799 -6.21247,-4.13361 -2.58238,-1.53355 -4.4118,-2.47305 -6.33238,-3.4701 -2.13552,-1.10864 -4.04994,-1.89803 -6.02859,-2.83365 -0.58731,-0.27771 -2.12121,-0.41609 -2.14593,-0.33908 -0.0257,0.0802 0.16549,3.9501 0.16311,5.92628 -0.003,3.02791 0.0252,6.06637 -0.27185,9.07969 -0.20371,2.06665 -0.59795,4.11318 -1.03301,6.14376 -0.4356,2.03306 -0.96157,4.04891 -1.57672,6.03501 -1.01423,3.27465 -2.02745,6.57247 -3.47965,9.67778 -1.35226,2.89164 -3.03409,5.63114 -4.83889,8.26418 -1.79384,2.61707 -3.85783,5.04268 -5.92628,7.44861 -2.9177,3.39375 -6.02885,6.61784 -9.13408,9.84089 -3.62766,3.7653 -7.59282,7.20582 -11.09138,11.09138 -2.87116,3.18877 -5.63614,6.49172 -8.10106,10.00399 -1.93365,2.75528 -3.66666,5.65824 -5.21948,8.64476 -1.718108,3.30446 -3.244716,6.71951 -4.512655,10.22147 -1.187338,3.27933 -2.217284,6.63455 -2.881586,10.05837 -0.596977,3.07682 -0.839778,6.22041 -0.978653,9.35154 -0.1542,3.47666 -0.140087,6.97211 0.163109,10.43896 0.329412,3.76659 0.914845,7.52283 1.794196,11.20011 0.717135,2.99896 1.735,5.92429 2.827216,8.80787 0.974432,2.57265 1.999615,5.14202 3.316533,7.55736 1.50868,2.76704 3.3619,5.33759 5.21948,7.88357 1.51977,2.08298 3.09491,4.13581 4.83888,6.03503 2.13286,2.32272 4.49132,4.43194 6.85056,6.52434 1.10761,0.98233 2.30396,1.86058 3.42528,2.82723 1.33107,1.14745 3.94305,3.51268 3.91861,3.52706 z"
       id="path2519" /></g></svg>
