<?xml version="1.0" encoding="UTF-8" standalone="no"?>
<!-- Created with Inkscape (http://www.inkscape.org/) -->

<svg
   width="171.4994mm"
   height="276.87537mm"
   viewBox="0 0 171.4994 276.87537"
   version="1.1"
   id="svg5"
   xml:space="preserve"
   xmlns="http://www.w3.org/2000/svg"
   xmlns:svg="http://www.w3.org/2000/svg"><defs
     id="defs2" /><g
     id="layer2"
     transform="translate(-17.370049,-10.122227)"><path
       style="opacity:1;fill:#317cb8;fill-opacity:1;stroke:#ffffff;stroke-width:0;stroke-opacity:0.904624"
       d="m 63.008327,210.59862 c -0.06677,-7.2e-4 -1.112457,3.61036 -1.559235,5.44453 -0.510152,2.09434 -1.000144,4.20159 -1.278059,6.33918 -0.221195,1.70133 -0.283156,3.42231 -0.306734,5.13779 -0.03644,2.65096 4.54e-4,5.31062 0.255614,7.94953 0.179436,1.85576 0.538441,3.69115 0.894641,5.52122 0.410694,2.11004 0.76674,4.24375 1.431425,6.28805 0.762444,2.34496 1.826027,4.58647 2.913975,6.79928 1.334584,2.71445 2.720728,5.42302 4.422087,7.92397 1.566618,2.30288 3.416004,4.40751 5.291164,6.46696 2.007864,2.20519 4.04389,4.41508 6.364737,6.28806 2.170089,1.75132 4.579841,3.1967 7.003764,4.57547 2.49078,1.4168 5.053439,2.73255 7.719478,3.78304 3.189793,1.25687 6.472676,2.3515 9.841056,2.99066 3.56071,0.67565 7.21494,0.77457 10.83795,0.86908 2.75222,0.0718 5.50983,-0.0377 8.25626,-0.23005 2.81399,-0.19709 5.65098,-0.35651 8.40963,-0.94576 3.48105,-0.74355 6.86337,-1.93685 10.17335,-3.24628 2.96624,-1.17345 5.86608,-2.53968 8.63968,-4.11535 2.84167,-1.61434 5.5566,-3.46094 8.15402,-5.44452 2.81755,-2.15169 5.43629,-4.55732 8.02621,-6.9782 1.92342,-1.79789 3.88148,-3.57976 5.57234,-5.59791 1.9249,-2.2975 3.57389,-4.82049 5.16336,-7.36162 1.56543,-2.50269 3.02365,-5.08054 4.29428,-7.74504 1.06787,-2.23931 2.02653,-4.53978 2.78617,-6.90152 0.80551,-2.50435 1.46571,-5.06828 1.86597,-7.66836 0.38848,-2.52356 0.4089,-5.09155 0.51122,-7.64279 0.1021,-2.54578 0.27753,-5.10101 0.10225,-7.6428 -0.19863,-2.88038 -0.63451,-5.75438 -1.30362,-8.56299 -0.61507,-2.58175 -1.52993,-5.08777 -2.47944,-7.56611 -0.78616,-2.05196 -1.67663,-4.06654 -2.65836,-6.03244 -0.71582,-1.4334 -1.43462,-2.87821 -2.35163,-4.19204 -0.93041,-1.33302 -3.11601,-3.77796 -3.16959,-3.70637 -0.065,0.0869 2.10849,5.86349 2.79162,8.65828 0.68969,2.8216 1.15761,5.31227 1.57677,8.18654 0.38344,2.62927 0.46985,5.32899 0.51561,7.98568 0.0485,2.81349 -0.17274,5.60576 -0.51304,8.39904 -0.32699,2.68554 -0.88218,5.35128 -1.63591,7.94953 -0.75127,2.58977 -1.69918,5.13358 -2.86285,7.56611 -1.42393,2.97657 -3.14915,5.8126 -5.01,8.53744 -1.59097,2.32965 -3.31751,4.58137 -5.24004,6.64591 -1.85375,1.99067 -3.8716,3.8434 -6.03244,5.49565 -1.58851,1.21462 -5.06112,3.22071 -5.06112,3.22071 -0.0215,0.006 3.66354,-5.43809 5.18893,-8.33294 1.61319,-3.06149 3.04294,-6.23573 4.16647,-9.50877 0.59646,-1.7376 1.08058,-3.52573 1.35474,-5.34228 0.24828,-1.64503 0.29085,-3.32115 0.25561,-4.98444 -0.0444,-2.0962 -0.14707,-4.21268 -0.5879,-6.26249 -0.40902,-1.90193 -1.13327,-3.72966 -1.89153,-5.52121 -0.84213,-1.9897 -1.74964,-3.97344 -2.93954,-5.77683 -1.14935,-1.74193 -2.51781,-3.34967 -4.0131,-4.8055 -1.67327,-1.62912 -3.48898,-3.1508 -5.49566,-4.34541 -1.83998,-1.09537 -3.92547,-2.02362 -5.94078,-2.74744 -2.39797,-0.86125 -4.77019,-1.62611 -7.29991,-1.93025 -2.04931,-0.24638 -6.1714,0.15465 -6.18581,0.28117 -0.009,0.0778 6.70233,2.52732 9.71325,4.42208 1.31573,0.82798 2.50586,1.8655 3.57857,2.99066 1.43106,1.50102 2.80231,3.11804 3.75749,4.95887 1.05863,2.0402 1.78046,4.29249 2.09602,6.56923 0.45529,3.28488 0.46014,6.72309 -0.3323,9.9433 -0.7549,3.06766 -2.3838,5.89506 -4.11535,8.53744 -1.91066,2.9157 -4.08216,5.77229 -6.82484,7.92396 -3.84349,3.01526 -8.4768,4.95999 -13.06176,6.64591 -3.5515,1.30591 -7.27942,2.23504 -11.04244,2.6328 -5.42433,0.57337 -10.98768,0.56495 -16.359157,-0.38341 -4.295811,-0.75845 -8.505691,-2.22085 -12.397173,-4.19204 -4.01074,-2.0316 -7.870252,-4.55902 -11.042433,-7.74504 -3.455386,-3.47046 -6.193726,-7.68468 -8.384069,-12.06488 -1.441268,-2.88222 -2.231925,-6.0574 -3.041782,-9.17646 -0.44684,-1.72095 -0.687465,-3.48917 -0.996887,-5.24005 -0.147236,-0.83314 -0.311606,-1.66456 -0.408979,-2.50499 -0.05701,-0.49207 0.04578,-1.48095 -0.102243,-1.48255 z"
       id="path361" /><path
       style="opacity:1;fill:#eb7929;fill-opacity:1;stroke:#ffffff;stroke-width:0;stroke-opacity:0.904624"
       d="m 83.793329,286.2276 c -0.01572,0.009 -4.039513,-0.55036 -6.000729,-1.08448 -1.883303,-0.5129 -3.689786,-1.28111 -5.494647,-2.02433 -3.380481,-1.39204 -6.764004,-2.81083 -9.977117,-4.55477 -3.513754,-1.90711 -6.88882,-4.0825 -10.121712,-6.43451 -3.238704,-2.35624 -6.332858,-4.92366 -9.254138,-7.66359 -2.511824,-2.35589 -4.898498,-4.85857 -7.0852,-7.51899 -2.10619,-2.56246 -4.039523,-5.27609 -5.783837,-8.09737 -1.921873,-3.10846 -3.658437,-6.34408 -5.133155,-9.68793 -1.414925,-3.20828 -2.546139,-6.54296 -3.542599,-9.90482 -0.873309,-2.94638 -1.482879,-5.9657 -2.12706,-8.9705 -0.625608,-2.91817 -1.378084,-5.82461 -1.687038,-8.79305 -0.296411,-2.84793 -0.223953,-5.72612 -0.153368,-8.58856 0.09389,-3.80753 0.357731,-7.61364 0.766836,-11.40029 0.334971,-3.10047 0.713187,-6.20683 1.380304,-9.25315 0.626424,-2.8605 1.504975,-5.66491 2.453874,-8.43519 1.140261,-3.32896 2.491673,-6.5844 3.885301,-9.8155 1.385843,-3.21305 2.806731,-6.41819 4.447645,-9.50876 1.573305,-2.96323 3.424994,-5.77016 5.16336,-8.63968 1.18118,-1.94977 2.484307,-3.8281 3.578566,-5.82795 1.408491,-2.57413 2.673697,-5.22891 3.83418,-7.92396 0.836132,-1.94179 1.614799,-3.91353 2.249384,-5.9302 0.564456,-1.79381 1.046571,-3.61942 1.380303,-5.47009 0.331629,-1.83901 0.521322,-3.70594 0.613468,-5.57234 0.07647,-1.54892 0.06731,-3.10586 -0.05112,-4.65214 -0.09202,-1.20145 -0.219243,-2.40951 -0.511226,-3.57857 -0.303043,-1.21334 -1.321322,-3.51555 -1.278059,-3.52744 0,0 1.632787,0.63656 2.35163,1.12469 1.037497,0.70452 1.877117,1.66607 2.760607,2.55612 0.926255,0.93313 1.816676,1.90391 2.658364,2.91398 1.027642,1.23323 2.046847,2.48325 2.913975,3.83417 0.741275,1.15485 1.375189,2.38023 1.94265,3.62969 0.677942,1.49273 1.226947,3.0433 1.738162,4.60102 0.551799,1.68139 1.084516,3.37695 1.431425,5.11223 0.302893,1.51511 0.475865,3.05836 0.562348,4.60102 0.0992,1.76954 0.0151,3.54564 -0.05112,5.31672 -0.02935,0.78499 -0.215149,2.31241 -0.153368,2.35163 0,0 1.462842,-0.69512 2.147141,-1.12469 1.186382,-0.74475 2.283759,-1.62559 3.374075,-2.505 1.127988,-0.9098 2.228339,-1.85726 3.271833,-2.86285 1.466973,-1.41369 2.946705,-2.83529 4.192034,-4.44764 1.216773,-1.57538 2.221161,-3.31102 3.169587,-5.06112 0.850045,-1.56856 1.608675,-3.19156 2.249386,-4.85663 0.743296,-1.93166 1.416587,-3.90431 1.840405,-5.93019 0.438906,-2.098 0.589157,-4.25062 0.715714,-6.3903 0.151934,-2.56873 0.209735,-5.15115 0.05112,-7.719476 -0.162079,-2.624422 -0.607475,-5.225253 -1.022445,-7.821724 -0.405083,-2.534608 -0.995177,-5.036679 -1.431428,-7.566109 -0.451409,-2.617317 -0.820517,-5.248166 -1.226936,-7.872846 -0.171489,-1.107485 -0.429497,-2.205256 -0.511225,-3.322955 -0.186414,-2.549369 -0.112621,-5.11743 0.05112,-7.668356 0.14406,-2.244314 0.38693,-4.489791 0.81796,-6.697032 0.412776,-2.113762 1.037892,-4.183399 1.687039,-6.236928 0.737663,-2.33354 1.53864,-4.65303 2.504995,-6.901521 0.797425,-1.85543 1.728602,-3.653645 2.709484,-5.418971 1.10722,-1.992701 2.308399,-3.934946 3.578567,-5.827951 1.39963,-2.085949 2.883938,-4.117615 4.447648,-6.083564 1.752347,-2.20311 3.629758,-4.305399 5.521216,-6.390296 1.992292,-2.196039 4.070362,-4.31295 6.134682,-6.441419 1.35066,-1.392635 4.08979,-4.140912 4.08979,-4.140912 0,0 -0.8317,3.118154 -1.12469,4.703258 -0.35614,1.926757 -0.60259,3.875452 -0.76684,5.827951 -0.23157,2.752778 -0.36626,5.519965 -0.30673,8.281825 0.0505,2.341557 0.2384,4.684174 0.56234,7.003764 0.37256,2.667743 0.8219,5.340631 1.5848,7.92397 0.99661,3.374748 2.39956,6.625705 3.8853,9.815493 1.03017,2.211721 2.20109,4.361338 3.47632,6.441422 1.15872,1.890028 2.46448,3.687907 3.78306,5.470093 1.35655,1.833516 2.82717,3.579833 4.24315,5.367849 1.63407,2.0634 3.30732,4.096209 4.90775,6.185807 1.48175,1.934645 2.9538,3.878601 4.3454,5.879073 1.20918,1.738241 2.37679,3.50714 3.47633,5.316728 0.88356,1.454129 1.78573,2.905623 2.50499,4.447646 0.71579,1.534581 1.23963,3.152761 1.78928,4.75438 0.5966,1.738436 0.96188,3.555701 1.63592,5.265601 0.40249,1.02105 0.86648,2.02416 1.43143,2.9651 0.44564,0.74222 0.87567,1.53341 1.53367,2.09602 0.48079,0.41109 1.07358,0.71475 1.68704,0.86908 0.95864,0.24117 2.0115,0.3115 2.96509,0.0511 0.84864,-0.23174 1.6,-0.78686 2.24939,-1.3803 0.80005,-0.73112 1.48329,-1.6256 1.94265,-2.60724 0.5273,-1.12682 0.67093,-2.40148 0.86908,-3.62969 0.25606,-1.587103 0.37353,-3.19827 0.40898,-4.805505 0.0369,-1.670982 -0.0403,-3.346692 -0.20449,-5.009994 -0.15084,-1.527851 -0.37087,-3.053841 -0.71571,-4.549891 -0.19614,-0.850934 -0.48416,-1.678767 -0.76684,-2.504996 -0.56041,-1.638 -1.84041,-4.856625 -1.84041,-4.856625 0.0489,-0.09098 3.15283,2.70494 4.65214,4.140912 1.16623,1.11696 2.26567,2.301966 3.37408,3.47632 1.15898,1.227926 2.3246,2.451416 3.42519,3.731935 1.31143,1.525831 2.59762,3.077606 3.78306,4.703257 1.0582,1.451156 1.97648,2.999347 2.9651,4.498771 1.05626,1.602016 2.22927,3.132806 3.16959,4.805506 0.99736,1.77417 1.74416,3.67799 2.60724,5.52121 0.66925,1.42926 1.40566,2.82977 1.99377,4.29428 0.82535,2.05532 1.55794,4.15301 2.14714,6.28805 0.58859,2.13283 1.01647,4.31012 1.3803,6.49255 0.30204,1.81177 0.53666,3.63778 0.6646,5.47009 0.12821,1.83625 0.13156,3.68073 0.10224,5.52122 -0.0324,2.03017 -0.0716,4.0668 -0.30674,6.08356 -0.27293,2.34052 -0.73269,4.66024 -1.27806,6.95264 -0.30826,1.29575 -0.69369,2.57393 -1.12469,3.83418 -0.60416,1.76658 -1.2765,3.51289 -2.04489,5.21448 -0.85943,1.90319 -1.76122,3.79831 -2.86285,5.57234 -1.07339,1.72856 -2.3332,3.33957 -3.62969,4.90775 -1.13726,1.37558 -2.41583,2.62794 -3.62969,3.93642 -0.71339,0.769 -2.14714,2.30051 -2.14714,2.30051 -0.0138,0.0788 0.95386,0.68222 1.43143,1.02244 0.64698,0.46091 1.29818,0.9159 1.94265,1.38031 0.89041,0.64163 1.80705,1.24998 2.65836,1.94265 0.9265,0.75384 1.79273,1.57973 2.65836,2.40275 0.4017,0.38193 0.77774,0.79011 1.17582,1.17582 0.10281,0.0996 0.30995,0.27544 0.31105,0.27948 0.002,0.006 0.48013,1.50806 0.73057,2.25107 0.23776,0.7054 0.49661,1.40357 0.73488,2.1088 0.27836,0.82387 0.56151,1.64654 0.81157,2.47944 0.2159,0.71913 0.41298,1.44408 0.59429,2.1727 0.23723,0.95332 0.44832,1.91322 0.64543,2.87563 0.12431,0.60698 0.2313,1.21742 0.33868,1.82762 0.11677,0.66356 0.22807,1.32813 0.3323,1.99378 0.12955,0.82737 0.2712,1.65355 0.36424,2.48582 0.0921,0.82382 0.14403,1.65187 0.19171,2.47944 0.0646,1.12151 0.10867,2.24448 0.12781,3.36769 0.0189,1.1075 0.0245,2.21592 -0.0128,3.32295 -0.0384,1.14126 -0.11599,2.28141 -0.21727,3.41881 -0.0896,1.00587 -0.20995,2.00906 -0.34508,3.00983 -0.13355,0.98911 -0.26784,1.97931 -0.4601,2.95871 -0.22353,1.13868 -0.50248,2.26661 -0.80518,3.38685 -0.26999,0.9992 -0.56579,1.99226 -0.90103,2.97149 -0.47127,1.37656 -0.9851,2.74007 -1.55923,4.07701 -0.46768,1.08906 -0.98975,2.15488 -1.53367,3.20793 -0.58724,1.13693 -1.20419,2.25968 -1.86597,3.3549 -0.68198,1.12864 -1.424,2.22028 -2.16631,3.31018 -0.78617,1.15429 -1.56512,2.31594 -2.42192,3.41881 -0.77875,1.0024 -1.6203,1.95518 -2.46666,2.90119 -0.53051,0.59296 -1.07397,1.17489 -1.63591,1.73816 -0.76197,0.76378 -1.53884,1.51437 -2.35163,2.22383 -0.99297,0.86673 -2.01396,1.70453 -3.08013,2.47943 -0.76179,0.55368 -1.56444,1.04952 -2.3644,1.54645 -0.70567,0.43836 -2.1352,1.28935 -2.14715,1.26528 -0.009,-0.0179 1.30466,-2.03148 1.95311,-3.05159 0.79099,-1.24434 1.61189,-2.47443 2.34437,-3.75407 0.73377,-1.28188 1.44891,-2.57519 2.09282,-3.90448 0.65285,-1.34774 1.24328,-2.72597 1.80207,-4.11535 0.49789,-1.23796 0.97517,-2.48615 1.3803,-3.75749 0.34579,-1.08511 0.66168,-2.18261 0.89464,-3.2974 0.21407,-1.0244 0.38148,-2.06211 0.4601,-3.10568 0.097,-1.2872 0.0548,-2.58236 0.0128,-3.87252 -0.0365,-1.12246 -0.0892,-2.2471 -0.23005,-3.36129 -0.13202,-1.04452 -0.31876,-2.08455 -0.57513,-3.10569 -0.22867,-0.9108 -0.52825,-1.80401 -0.8563,-2.68392 -0.41936,-1.12482 -0.90452,-2.22539 -1.41864,-3.31018 -0.68713,-1.44983 -1.3618,-2.91555 -2.22383,-4.26871 -0.72976,-1.14553 -1.58792,-2.2088 -2.47943,-3.2335 -0.785,-0.90228 -1.62791,-1.75708 -2.51778,-2.55611 -1.13269,-1.01706 -2.31472,-1.98873 -3.57857,-2.8373 -1.01035,-0.67837 -2.09099,-1.25084 -3.18236,-1.78928 -1.12623,-0.55564 -2.28916,-1.03765 -3.46354,-1.48255 -1.30518,-0.49445 -2.62512,-0.96085 -3.97477,-1.3164 -1.18847,-0.31309 -2.39395,-0.59391 -3.61691,-0.71571 -1.33536,-0.13299 -2.68599,-0.0874 -4.02588,-0.0128 -0.745,0.0415 -1.48505,0.15093 -2.22383,0.25561 -1.44584,0.20486 -2.95537,0.30164 -4.40252,0.49699 -2.33825,0.31564 -4.64441,0.49139 -6.95942,0.94722 -3.16892,0.62396 -6.32724,1.4654 -9.29149,2.74783 -2.48658,1.07577 -4.77408,2.58215 -7.01655,4.10257 -1.44456,0.97943 -2.85595,2.02588 -4.12813,3.2207 -2.190991,2.05777 -4.236264,4.30078 -5.981318,6.74816 -1.328974,1.86384 -2.320533,3.94905 -3.374078,5.98132 -0.677079,1.30607 -1.796735,4.03229 -1.891527,3.98754 -0.04927,-0.0233 -1.422671,-2.72424 -1.840407,-4.19203 -0.63131,-2.21822 -0.852332,-4.54717 -0.971325,-6.8504 -0.16365,-3.16761 -0.04636,-6.36279 0.357857,-9.50876 0.331421,-2.5794 0.883695,-5.14381 1.687038,-7.61723 0.792124,-2.43887 1.761932,-4.84775 3.067344,-7.05489 1.546055,-2.61401 3.477816,-5.0091 5.572339,-7.20826 2.117347,-2.22312 4.518337,-4.17908 7.003767,-5.98132 2.19801,-1.59382 4.5432,-2.99171 6.95264,-4.24315 3.03419,-1.57593 6.25699,-2.75923 9.40651,-4.08979 3.30859,-1.39777 6.73299,-2.53106 9.96887,-4.08979 2.14429,-1.03291 4.32504,-2.05872 6.23693,-3.47632 1.08425,-0.80393 2.058,-1.76808 2.91397,-2.81173 0.86033,-1.04896 1.63079,-2.19295 2.19827,-3.4252 0.61789,-1.34171 1.10993,-2.77561 1.27806,-4.24316 0.24101,-2.10369 0.0614,-4.31745 -0.0348,-6.43272 -0.1006,-2.211 -0.36103,-3.97836 -0.80544,-5.51768 -0.81312,-2.81639 -1.10809,-4.40673 -2.56937,-7.2825 -1.49638,-2.94484 -2.78987,-4.05039 -4.79224,-6.60329 -1.61615,-2.06049 -4.11053,-3.7774 -6.31261,-5.44009 -2.15437,-1.62667 -3.8564,-2.7079 -5.84143,-3.88673 -2.42815,-1.44196 -4.14831,-2.32535 -5.95419,-3.26286 -2.00797,-1.04243 -3.80806,-1.78467 -5.66854,-2.66441 -0.55223,-0.26112 -1.99452,-0.39124 -2.01776,-0.31884 -0.0242,0.0754 0.1556,3.71419 0.15336,5.57234 -0.003,2.84708 0.0237,5.70408 -0.25561,8.53743 -0.19155,1.94322 -0.56224,3.86752 -0.97132,5.77683 -0.40958,1.91163 -0.90414,3.80709 -1.48255,5.67458 -0.95366,3.07907 -1.90636,6.17993 -3.27183,9.09979 -1.2715,2.71893 -2.85289,5.29482 -4.549893,7.7706 -1.686713,2.46077 -3.627427,4.74152 -5.57234,7.00376 -2.743447,3.19106 -5.668788,6.22259 -8.58856,9.25315 -3.411008,3.54043 -7.139344,6.77547 -10.428964,10.42897 -2.699698,2.99832 -5.29953,6.104 -7.617233,9.40651 -1.818167,2.59072 -3.447678,5.32031 -4.907748,8.12846 -1.615508,3.10711 -3.050941,6.3182 -4.243157,9.61101 -1.116424,3.08348 -2.084857,6.23831 -2.709484,9.45764 -0.561324,2.89307 -0.789624,5.84891 -0.920205,8.79304 -0.144991,3.26902 -0.131721,6.55571 0.153368,9.8155 0.309738,3.54164 0.860207,7.07354 1.687039,10.53121 0.674306,2.81984 1.631386,5.57046 2.658364,8.28182 0.916246,2.41901 1.88019,4.83493 3.118464,7.10601 1.418581,2.60178 3.161109,5.01881 4.907748,7.41273 1.429003,1.95858 2.910073,3.88881 4.549891,5.6746 2.005475,2.184 4.22308,4.16725 6.441419,6.13468 1.041455,0.92366 2.166356,1.74947 3.220709,2.65838 1.251575,1.07892 3.707546,3.30289 3.684571,3.31641 z"
       id="path2519" /></g></svg>
