<?xml version="1.0" encoding="utf-8" standalone="no"?>
<!DOCTYPE svg PUBLIC "-//W3C//DTD SVG 1.1//EN"
  "http://www.w3.org/Graphics/SVG/1.1/DTD/svg11.dtd">
<svg xmlns:xlink="http://www.w3.org/1999/xlink" width="1145.166256pt" height="497.509062pt" viewBox="0 0 1145.166256 497.509062" xmlns="http://www.w3.org/2000/svg" version="1.1">
 <metadata>
  <rdf:RDF xmlns:dc="http://purl.org/dc/elements/1.1/" xmlns:cc="http://creativecommons.org/ns#" xmlns:rdf="http://www.w3.org/1999/02/22-rdf-syntax-ns#">
   <cc:Work>
    <dc:type rdf:resource="http://purl.org/dc/dcmitype/StillImage"/>
    <dc:date>2026-03-26T02:30:50.422837</dc:date>
    <dc:format>image/svg+xml</dc:format>
    <dc:creator>
     <cc:Agent>
      <dc:title>Matplotlib v3.10.8, https://matplotlib.org/</dc:title>
     </cc:Agent>
    </dc:creator>
   </cc:Work>
  </rdf:RDF>
 </metadata>
 <defs>
  <style type="text/css">*{stroke-linejoin: round; stroke-linecap: butt}</style>
 </defs>
 <g id="figure_1">
  <g id="patch_1">
   <path d="M 0 497.509062 
L 1145.166256 497.509062 
L 1145.166256 0 
L 0 0 
z
" style="fill: #ffffff"/>
  </g>
  <g id="axes_1">
   <g id="patch_2">
    <path d="M 81.791875 440.596562 
L 602.729066 440.596562 
L 602.729066 33.916562 
L 81.791875 33.916562 
z
" style="fill: #ffffff"/>
   </g>
   <g id="matplotlib.axis_1">
    <g id="xtick_1">
     <g id="line2d_1">
      <path d="M 105.470838 440.596562 
L 105.470838 33.916562 
" clip-path="url(#pb829ba8682)" style="fill: none; stroke-dasharray: 0.8,1.32; stroke-dashoffset: 0; stroke: #b0b0b0; stroke-opacity: 0.4; stroke-width: 0.8"/>
     </g>
     <g id="line2d_2">
      <defs>
       <path id="mf165043763" d="M 0 0 
L 0 3.5 
" style="stroke: #000000; stroke-width: 0.8"/>
      </defs>
      <g>
       <use xlink:href="#mf165043763" x="105.470838" y="440.596562" style="stroke: #000000; stroke-width: 0.8"/>
      </g>
     </g>
     <g id="text_1">
      <!-- 8 -->
      <g transform="translate(99.744588 461.27375) scale(0.18 -0.18)">
       <defs>
        <path id="DejaVuSans-38" d="M 2034 2216 
Q 1584 2216 1326 1975 
Q 1069 1734 1069 1313 
Q 1069 891 1326 650 
Q 1584 409 2034 409 
Q 2484 409 2743 651 
Q 3003 894 3003 1313 
Q 3003 1734 2745 1975 
Q 2488 2216 2034 2216 
z
M 1403 2484 
Q 997 2584 770 2862 
Q 544 3141 544 3541 
Q 544 4100 942 4425 
Q 1341 4750 2034 4750 
Q 2731 4750 3128 4425 
Q 3525 4100 3525 3541 
Q 3525 3141 3298 2862 
Q 3072 2584 2669 2484 
Q 3125 2378 3379 2068 
Q 3634 1759 3634 1313 
Q 3634 634 3220 271 
Q 2806 -91 2034 -91 
Q 1263 -91 848 271 
Q 434 634 434 1313 
Q 434 1759 690 2068 
Q 947 2378 1403 2484 
z
M 1172 3481 
Q 1172 3119 1398 2916 
Q 1625 2713 2034 2713 
Q 2441 2713 2670 2916 
Q 2900 3119 2900 3481 
Q 2900 3844 2670 4047 
Q 2441 4250 2034 4250 
Q 1625 4250 1398 4047 
Q 1172 3844 1172 3481 
z
" transform="scale(0.015625)"/>
       </defs>
       <use xlink:href="#DejaVuSans-38"/>
      </g>
     </g>
    </g>
    <g id="xtick_2">
     <g id="line2d_3">
      <path d="M 223.865654 440.596562 
L 223.865654 33.916562 
" clip-path="url(#pb829ba8682)" style="fill: none; stroke-dasharray: 0.8,1.32; stroke-dashoffset: 0; stroke: #b0b0b0; stroke-opacity: 0.4; stroke-width: 0.8"/>
     </g>
     <g id="line2d_4">
      <g>
       <use xlink:href="#mf165043763" x="223.865654" y="440.596562" style="stroke: #000000; stroke-width: 0.8"/>
      </g>
     </g>
     <g id="text_2">
      <!-- 16 -->
      <g transform="translate(212.413154 461.27375) scale(0.18 -0.18)">
       <defs>
        <path id="DejaVuSans-31" d="M 794 531 
L 1825 531 
L 1825 4091 
L 703 3866 
L 703 4441 
L 1819 4666 
L 2450 4666 
L 2450 531 
L 3481 531 
L 3481 0 
L 794 0 
L 794 531 
z
" transform="scale(0.015625)"/>
        <path id="DejaVuSans-36" d="M 2113 2584 
Q 1688 2584 1439 2293 
Q 1191 2003 1191 1497 
Q 1191 994 1439 701 
Q 1688 409 2113 409 
Q 2538 409 2786 701 
Q 3034 994 3034 1497 
Q 3034 2003 2786 2293 
Q 2538 2584 2113 2584 
z
M 3366 4563 
L 3366 3988 
Q 3128 4100 2886 4159 
Q 2644 4219 2406 4219 
Q 1781 4219 1451 3797 
Q 1122 3375 1075 2522 
Q 1259 2794 1537 2939 
Q 1816 3084 2150 3084 
Q 2853 3084 3261 2657 
Q 3669 2231 3669 1497 
Q 3669 778 3244 343 
Q 2819 -91 2113 -91 
Q 1303 -91 875 529 
Q 447 1150 447 2328 
Q 447 3434 972 4092 
Q 1497 4750 2381 4750 
Q 2619 4750 2861 4703 
Q 3103 4656 3366 4563 
z
" transform="scale(0.015625)"/>
       </defs>
       <use xlink:href="#DejaVuSans-31"/>
       <use xlink:href="#DejaVuSans-36" transform="translate(63.623047 0)"/>
      </g>
     </g>
    </g>
    <g id="xtick_3">
     <g id="line2d_5">
      <path d="M 293.122182 440.596562 
L 293.122182 33.916562 
" clip-path="url(#pb829ba8682)" style="fill: none; stroke-dasharray: 0.8,1.32; stroke-dashoffset: 0; stroke: #b0b0b0; stroke-opacity: 0.4; stroke-width: 0.8"/>
     </g>
     <g id="line2d_6">
      <g>
       <use xlink:href="#mf165043763" x="293.122182" y="440.596562" style="stroke: #000000; stroke-width: 0.8"/>
      </g>
     </g>
     <g id="text_3">
      <!-- 24 -->
      <g transform="translate(281.669682 461.27375) scale(0.18 -0.18)">
       <defs>
        <path id="DejaVuSans-32" d="M 1228 531 
L 3431 531 
L 3431 0 
L 469 0 
L 469 531 
Q 828 903 1448 1529 
Q 2069 2156 2228 2338 
Q 2531 2678 2651 2914 
Q 2772 3150 2772 3378 
Q 2772 3750 2511 3984 
Q 2250 4219 1831 4219 
Q 1534 4219 1204 4116 
Q 875 4013 500 3803 
L 500 4441 
Q 881 4594 1212 4672 
Q 1544 4750 1819 4750 
Q 2544 4750 2975 4387 
Q 3406 4025 3406 3419 
Q 3406 3131 3298 2873 
Q 3191 2616 2906 2266 
Q 2828 2175 2409 1742 
Q 1991 1309 1228 531 
z
" transform="scale(0.015625)"/>
        <path id="DejaVuSans-34" d="M 2419 4116 
L 825 1625 
L 2419 1625 
L 2419 4116 
z
M 2253 4666 
L 3047 4666 
L 3047 1625 
L 3713 1625 
L 3713 1100 
L 3047 1100 
L 3047 0 
L 2419 0 
L 2419 1100 
L 313 1100 
L 313 1709 
L 2253 4666 
z
" transform="scale(0.015625)"/>
       </defs>
       <use xlink:href="#DejaVuSans-32"/>
       <use xlink:href="#DejaVuSans-34" transform="translate(63.623047 0)"/>
      </g>
     </g>
    </g>
    <g id="xtick_4">
     <g id="line2d_7">
      <path d="M 342.26047 440.596562 
L 342.26047 33.916562 
" clip-path="url(#pb829ba8682)" style="fill: none; stroke-dasharray: 0.8,1.32; stroke-dashoffset: 0; stroke: #b0b0b0; stroke-opacity: 0.4; stroke-width: 0.8"/>
     </g>
     <g id="line2d_8">
      <g>
       <use xlink:href="#mf165043763" x="342.26047" y="440.596562" style="stroke: #000000; stroke-width: 0.8"/>
      </g>
     </g>
     <g id="text_4">
      <!-- 32 -->
      <g transform="translate(330.80797 461.27375) scale(0.18 -0.18)">
       <defs>
        <path id="DejaVuSans-33" d="M 2597 2516 
Q 3050 2419 3304 2112 
Q 3559 1806 3559 1356 
Q 3559 666 3084 287 
Q 2609 -91 1734 -91 
Q 1441 -91 1130 -33 
Q 819 25 488 141 
L 488 750 
Q 750 597 1062 519 
Q 1375 441 1716 441 
Q 2309 441 2620 675 
Q 2931 909 2931 1356 
Q 2931 1769 2642 2001 
Q 2353 2234 1838 2234 
L 1294 2234 
L 1294 2753 
L 1863 2753 
Q 2328 2753 2575 2939 
Q 2822 3125 2822 3475 
Q 2822 3834 2567 4026 
Q 2313 4219 1838 4219 
Q 1578 4219 1281 4162 
Q 984 4106 628 3988 
L 628 4550 
Q 988 4650 1302 4700 
Q 1616 4750 1894 4750 
Q 2613 4750 3031 4423 
Q 3450 4097 3450 3541 
Q 3450 3153 3228 2886 
Q 3006 2619 2597 2516 
z
" transform="scale(0.015625)"/>
       </defs>
       <use xlink:href="#DejaVuSans-33"/>
       <use xlink:href="#DejaVuSans-32" transform="translate(63.623047 0)"/>
      </g>
     </g>
    </g>
    <g id="xtick_5">
     <g id="line2d_9">
      <path d="M 411.516998 440.596562 
L 411.516998 33.916562 
" clip-path="url(#pb829ba8682)" style="fill: none; stroke-dasharray: 0.8,1.32; stroke-dashoffset: 0; stroke: #b0b0b0; stroke-opacity: 0.4; stroke-width: 0.8"/>
     </g>
     <g id="line2d_10">
      <g>
       <use xlink:href="#mf165043763" x="411.516998" y="440.596562" style="stroke: #000000; stroke-width: 0.8"/>
      </g>
     </g>
     <g id="text_5">
      <!-- 48 -->
      <g transform="translate(400.064498 461.27375) scale(0.18 -0.18)">
       <use xlink:href="#DejaVuSans-34"/>
       <use xlink:href="#DejaVuSans-38" transform="translate(63.623047 0)"/>
      </g>
     </g>
    </g>
    <g id="xtick_6">
     <g id="line2d_11">
      <path d="M 460.655286 440.596562 
L 460.655286 33.916562 
" clip-path="url(#pb829ba8682)" style="fill: none; stroke-dasharray: 0.8,1.32; stroke-dashoffset: 0; stroke: #b0b0b0; stroke-opacity: 0.4; stroke-width: 0.8"/>
     </g>
     <g id="line2d_12">
      <g>
       <use xlink:href="#mf165043763" x="460.655286" y="440.596562" style="stroke: #000000; stroke-width: 0.8"/>
      </g>
     </g>
     <g id="text_6">
      <!-- 64 -->
      <g transform="translate(449.202786 461.27375) scale(0.18 -0.18)">
       <use xlink:href="#DejaVuSans-36"/>
       <use xlink:href="#DejaVuSans-34" transform="translate(63.623047 0)"/>
      </g>
     </g>
    </g>
    <g id="xtick_7">
     <g id="line2d_13">
      <path d="M 529.911814 440.596562 
L 529.911814 33.916562 
" clip-path="url(#pb829ba8682)" style="fill: none; stroke-dasharray: 0.8,1.32; stroke-dashoffset: 0; stroke: #b0b0b0; stroke-opacity: 0.4; stroke-width: 0.8"/>
     </g>
     <g id="line2d_14">
      <g>
       <use xlink:href="#mf165043763" x="529.911814" y="440.596562" style="stroke: #000000; stroke-width: 0.8"/>
      </g>
     </g>
     <g id="text_7">
      <!-- 96 -->
      <g transform="translate(518.459314 461.27375) scale(0.18 -0.18)">
       <defs>
        <path id="DejaVuSans-39" d="M 703 97 
L 703 672 
Q 941 559 1184 500 
Q 1428 441 1663 441 
Q 2288 441 2617 861 
Q 2947 1281 2994 2138 
Q 2813 1869 2534 1725 
Q 2256 1581 1919 1581 
Q 1219 1581 811 2004 
Q 403 2428 403 3163 
Q 403 3881 828 4315 
Q 1253 4750 1959 4750 
Q 2769 4750 3195 4129 
Q 3622 3509 3622 2328 
Q 3622 1225 3098 567 
Q 2575 -91 1691 -91 
Q 1453 -91 1209 -44 
Q 966 3 703 97 
z
M 1959 2075 
Q 2384 2075 2632 2365 
Q 2881 2656 2881 3163 
Q 2881 3666 2632 3958 
Q 2384 4250 1959 4250 
Q 1534 4250 1286 3958 
Q 1038 3666 1038 3163 
Q 1038 2656 1286 2365 
Q 1534 2075 1959 2075 
z
" transform="scale(0.015625)"/>
       </defs>
       <use xlink:href="#DejaVuSans-39"/>
       <use xlink:href="#DejaVuSans-36" transform="translate(63.623047 0)"/>
      </g>
     </g>
    </g>
    <g id="xtick_8">
     <g id="line2d_15">
      <path d="M 579.050102 440.596562 
L 579.050102 33.916562 
" clip-path="url(#pb829ba8682)" style="fill: none; stroke-dasharray: 0.8,1.32; stroke-dashoffset: 0; stroke: #b0b0b0; stroke-opacity: 0.4; stroke-width: 0.8"/>
     </g>
     <g id="line2d_16">
      <g>
       <use xlink:href="#mf165043763" x="579.050102" y="440.596562" style="stroke: #000000; stroke-width: 0.8"/>
      </g>
     </g>
     <g id="text_8">
      <!-- 128 -->
      <g transform="translate(561.871352 461.27375) scale(0.18 -0.18)">
       <use xlink:href="#DejaVuSans-31"/>
       <use xlink:href="#DejaVuSans-32" transform="translate(63.623047 0)"/>
       <use xlink:href="#DejaVuSans-38" transform="translate(127.246094 0)"/>
      </g>
     </g>
    </g>
    <g id="text_9">
     <!-- Resolution $N$ -->
     <g transform="translate(272.52047 485.73375) scale(0.22 -0.22)">
      <defs>
       <path id="DejaVuSans-52" d="M 2841 2188 
Q 3044 2119 3236 1894 
Q 3428 1669 3622 1275 
L 4263 0 
L 3584 0 
L 2988 1197 
Q 2756 1666 2539 1819 
Q 2322 1972 1947 1972 
L 1259 1972 
L 1259 0 
L 628 0 
L 628 4666 
L 2053 4666 
Q 2853 4666 3247 4331 
Q 3641 3997 3641 3322 
Q 3641 2881 3436 2590 
Q 3231 2300 2841 2188 
z
M 1259 4147 
L 1259 2491 
L 2053 2491 
Q 2509 2491 2742 2702 
Q 2975 2913 2975 3322 
Q 2975 3731 2742 3939 
Q 2509 4147 2053 4147 
L 1259 4147 
z
" transform="scale(0.015625)"/>
       <path id="DejaVuSans-65" d="M 3597 1894 
L 3597 1613 
L 953 1613 
Q 991 1019 1311 708 
Q 1631 397 2203 397 
Q 2534 397 2845 478 
Q 3156 559 3463 722 
L 3463 178 
Q 3153 47 2828 -22 
Q 2503 -91 2169 -91 
Q 1331 -91 842 396 
Q 353 884 353 1716 
Q 353 2575 817 3079 
Q 1281 3584 2069 3584 
Q 2775 3584 3186 3129 
Q 3597 2675 3597 1894 
z
M 3022 2063 
Q 3016 2534 2758 2815 
Q 2500 3097 2075 3097 
Q 1594 3097 1305 2825 
Q 1016 2553 972 2059 
L 3022 2063 
z
" transform="scale(0.015625)"/>
       <path id="DejaVuSans-73" d="M 2834 3397 
L 2834 2853 
Q 2591 2978 2328 3040 
Q 2066 3103 1784 3103 
Q 1356 3103 1142 2972 
Q 928 2841 928 2578 
Q 928 2378 1081 2264 
Q 1234 2150 1697 2047 
L 1894 2003 
Q 2506 1872 2764 1633 
Q 3022 1394 3022 966 
Q 3022 478 2636 193 
Q 2250 -91 1575 -91 
Q 1294 -91 989 -36 
Q 684 19 347 128 
L 347 722 
Q 666 556 975 473 
Q 1284 391 1588 391 
Q 1994 391 2212 530 
Q 2431 669 2431 922 
Q 2431 1156 2273 1281 
Q 2116 1406 1581 1522 
L 1381 1569 
Q 847 1681 609 1914 
Q 372 2147 372 2553 
Q 372 3047 722 3315 
Q 1072 3584 1716 3584 
Q 2034 3584 2315 3537 
Q 2597 3491 2834 3397 
z
" transform="scale(0.015625)"/>
       <path id="DejaVuSans-6f" d="M 1959 3097 
Q 1497 3097 1228 2736 
Q 959 2375 959 1747 
Q 959 1119 1226 758 
Q 1494 397 1959 397 
Q 2419 397 2687 759 
Q 2956 1122 2956 1747 
Q 2956 2369 2687 2733 
Q 2419 3097 1959 3097 
z
M 1959 3584 
Q 2709 3584 3137 3096 
Q 3566 2609 3566 1747 
Q 3566 888 3137 398 
Q 2709 -91 1959 -91 
Q 1206 -91 779 398 
Q 353 888 353 1747 
Q 353 2609 779 3096 
Q 1206 3584 1959 3584 
z
" transform="scale(0.015625)"/>
       <path id="DejaVuSans-6c" d="M 603 4863 
L 1178 4863 
L 1178 0 
L 603 0 
L 603 4863 
z
" transform="scale(0.015625)"/>
       <path id="DejaVuSans-75" d="M 544 1381 
L 544 3500 
L 1119 3500 
L 1119 1403 
Q 1119 906 1312 657 
Q 1506 409 1894 409 
Q 2359 409 2629 706 
Q 2900 1003 2900 1516 
L 2900 3500 
L 3475 3500 
L 3475 0 
L 2900 0 
L 2900 538 
Q 2691 219 2414 64 
Q 2138 -91 1772 -91 
Q 1169 -91 856 284 
Q 544 659 544 1381 
z
M 1991 3584 
L 1991 3584 
z
" transform="scale(0.015625)"/>
       <path id="DejaVuSans-74" d="M 1172 4494 
L 1172 3500 
L 2356 3500 
L 2356 3053 
L 1172 3053 
L 1172 1153 
Q 1172 725 1289 603 
Q 1406 481 1766 481 
L 2356 481 
L 2356 0 
L 1766 0 
Q 1100 0 847 248 
Q 594 497 594 1153 
L 594 3053 
L 172 3053 
L 172 3500 
L 594 3500 
L 594 4494 
L 1172 4494 
z
" transform="scale(0.015625)"/>
       <path id="DejaVuSans-69" d="M 603 3500 
L 1178 3500 
L 1178 0 
L 603 0 
L 603 3500 
z
M 603 4863 
L 1178 4863 
L 1178 4134 
L 603 4134 
L 603 4863 
z
" transform="scale(0.015625)"/>
       <path id="DejaVuSans-6e" d="M 3513 2113 
L 3513 0 
L 2938 0 
L 2938 2094 
Q 2938 2591 2744 2837 
Q 2550 3084 2163 3084 
Q 1697 3084 1428 2787 
Q 1159 2491 1159 1978 
L 1159 0 
L 581 0 
L 581 3500 
L 1159 3500 
L 1159 2956 
Q 1366 3272 1645 3428 
Q 1925 3584 2291 3584 
Q 2894 3584 3203 3211 
Q 3513 2838 3513 2113 
z
" transform="scale(0.015625)"/>
       <path id="DejaVuSans-20" transform="scale(0.015625)"/>
       <path id="DejaVuSans-Oblique-4e" d="M 1081 4666 
L 1931 4666 
L 3219 666 
L 4000 4666 
L 4616 4666 
L 3706 0 
L 2853 0 
L 1569 4025 
L 788 0 
L 172 0 
L 1081 4666 
z
" transform="scale(0.015625)"/>
      </defs>
      <use xlink:href="#DejaVuSans-52" transform="translate(0 0.015625)"/>
      <use xlink:href="#DejaVuSans-65" transform="translate(69.482422 0.015625)"/>
      <use xlink:href="#DejaVuSans-73" transform="translate(131.005859 0.015625)"/>
      <use xlink:href="#DejaVuSans-6f" transform="translate(183.105469 0.015625)"/>
      <use xlink:href="#DejaVuSans-6c" transform="translate(244.287109 0.015625)"/>
      <use xlink:href="#DejaVuSans-75" transform="translate(272.070312 0.015625)"/>
      <use xlink:href="#DejaVuSans-74" transform="translate(335.449219 0.015625)"/>
      <use xlink:href="#DejaVuSans-69" transform="translate(374.658203 0.015625)"/>
      <use xlink:href="#DejaVuSans-6f" transform="translate(402.441406 0.015625)"/>
      <use xlink:href="#DejaVuSans-6e" transform="translate(463.623047 0.015625)"/>
      <use xlink:href="#DejaVuSans-20" transform="translate(527.001953 0.015625)"/>
      <use xlink:href="#DejaVuSans-Oblique-4e" transform="translate(558.789062 0.015625)"/>
     </g>
    </g>
   </g>
   <g id="matplotlib.axis_2">
    <g id="ytick_1">
     <g id="line2d_17">
      <path d="M 81.791875 403.43245 
L 602.729066 403.43245 
" clip-path="url(#pb829ba8682)" style="fill: none; stroke-dasharray: 0.8,1.32; stroke-dashoffset: 0; stroke: #b0b0b0; stroke-opacity: 0.4; stroke-width: 0.8"/>
     </g>
     <g id="line2d_18">
      <defs>
       <path id="mdb2247e6f2" d="M 0 0 
L -3.5 0 
" style="stroke: #000000; stroke-width: 0.8"/>
      </defs>
      <g>
       <use xlink:href="#mdb2247e6f2" x="81.791875" y="403.43245" style="stroke: #000000; stroke-width: 0.8"/>
      </g>
     </g>
     <g id="text_10">
      <!-- $\mathdefault{10^{-5}}$ -->
      <g transform="translate(32.491875 410.271044) scale(0.18 -0.18)">
       <defs>
        <path id="DejaVuSans-30" d="M 2034 4250 
Q 1547 4250 1301 3770 
Q 1056 3291 1056 2328 
Q 1056 1369 1301 889 
Q 1547 409 2034 409 
Q 2525 409 2770 889 
Q 3016 1369 3016 2328 
Q 3016 3291 2770 3770 
Q 2525 4250 2034 4250 
z
M 2034 4750 
Q 2819 4750 3233 4129 
Q 3647 3509 3647 2328 
Q 3647 1150 3233 529 
Q 2819 -91 2034 -91 
Q 1250 -91 836 529 
Q 422 1150 422 2328 
Q 422 3509 836 4129 
Q 1250 4750 2034 4750 
z
" transform="scale(0.015625)"/>
        <path id="DejaVuSans-2212" d="M 678 2272 
L 4684 2272 
L 4684 1741 
L 678 1741 
L 678 2272 
z
" transform="scale(0.015625)"/>
        <path id="DejaVuSans-35" d="M 691 4666 
L 3169 4666 
L 3169 4134 
L 1269 4134 
L 1269 2991 
Q 1406 3038 1543 3061 
Q 1681 3084 1819 3084 
Q 2600 3084 3056 2656 
Q 3513 2228 3513 1497 
Q 3513 744 3044 326 
Q 2575 -91 1722 -91 
Q 1428 -91 1123 -41 
Q 819 9 494 109 
L 494 744 
Q 775 591 1075 516 
Q 1375 441 1709 441 
Q 2250 441 2565 725 
Q 2881 1009 2881 1497 
Q 2881 1984 2565 2268 
Q 2250 2553 1709 2553 
Q 1456 2553 1204 2497 
Q 953 2441 691 2322 
L 691 4666 
z
" transform="scale(0.015625)"/>
       </defs>
       <use xlink:href="#DejaVuSans-31" transform="translate(0 0.684375)"/>
       <use xlink:href="#DejaVuSans-30" transform="translate(63.623047 0.684375)"/>
       <use xlink:href="#DejaVuSans-2212" transform="translate(128.203125 38.965625) scale(0.7)"/>
       <use xlink:href="#DejaVuSans-35" transform="translate(186.855469 38.965625) scale(0.7)"/>
      </g>
     </g>
    </g>
    <g id="ytick_2">
     <g id="line2d_19">
      <path d="M 81.791875 220.632866 
L 602.729066 220.632866 
" clip-path="url(#pb829ba8682)" style="fill: none; stroke-dasharray: 0.8,1.32; stroke-dashoffset: 0; stroke: #b0b0b0; stroke-opacity: 0.4; stroke-width: 0.8"/>
     </g>
     <g id="line2d_20">
      <g>
       <use xlink:href="#mdb2247e6f2" x="81.791875" y="220.632866" style="stroke: #000000; stroke-width: 0.8"/>
      </g>
     </g>
     <g id="text_11">
      <!-- $\mathdefault{10^{-4}}$ -->
      <g transform="translate(32.491875 227.47146) scale(0.18 -0.18)">
       <use xlink:href="#DejaVuSans-31" transform="translate(0 0.684375)"/>
       <use xlink:href="#DejaVuSans-30" transform="translate(63.623047 0.684375)"/>
       <use xlink:href="#DejaVuSans-2212" transform="translate(128.203125 38.965625) scale(0.7)"/>
       <use xlink:href="#DejaVuSans-34" transform="translate(186.855469 38.965625) scale(0.7)"/>
      </g>
     </g>
    </g>
    <g id="ytick_3">
     <g id="line2d_21">
      <path d="M 81.791875 37.833282 
L 602.729066 37.833282 
" clip-path="url(#pb829ba8682)" style="fill: none; stroke-dasharray: 0.8,1.32; stroke-dashoffset: 0; stroke: #b0b0b0; stroke-opacity: 0.4; stroke-width: 0.8"/>
     </g>
     <g id="line2d_22">
      <g>
       <use xlink:href="#mdb2247e6f2" x="81.791875" y="37.833282" style="stroke: #000000; stroke-width: 0.8"/>
      </g>
     </g>
     <g id="text_12">
      <!-- $\mathdefault{10^{-3}}$ -->
      <g transform="translate(32.491875 44.671876) scale(0.18 -0.18)">
       <use xlink:href="#DejaVuSans-31" transform="translate(0 0.765625)"/>
       <use xlink:href="#DejaVuSans-30" transform="translate(63.623047 0.765625)"/>
       <use xlink:href="#DejaVuSans-2212" transform="translate(128.203125 39.046875) scale(0.7)"/>
       <use xlink:href="#DejaVuSans-33" transform="translate(186.855469 39.046875) scale(0.7)"/>
      </g>
     </g>
    </g>
    <g id="text_13">
     <!-- RMS relative eigenvalue difference -->
     <g transform="translate(23.916562 429.326875) rotate(-90) scale(0.22 -0.22)">
      <defs>
       <path id="DejaVuSans-4d" d="M 628 4666 
L 1569 4666 
L 2759 1491 
L 3956 4666 
L 4897 4666 
L 4897 0 
L 4281 0 
L 4281 4097 
L 3078 897 
L 2444 897 
L 1241 4097 
L 1241 0 
L 628 0 
L 628 4666 
z
" transform="scale(0.015625)"/>
       <path id="DejaVuSans-53" d="M 3425 4513 
L 3425 3897 
Q 3066 4069 2747 4153 
Q 2428 4238 2131 4238 
Q 1616 4238 1336 4038 
Q 1056 3838 1056 3469 
Q 1056 3159 1242 3001 
Q 1428 2844 1947 2747 
L 2328 2669 
Q 3034 2534 3370 2195 
Q 3706 1856 3706 1288 
Q 3706 609 3251 259 
Q 2797 -91 1919 -91 
Q 1588 -91 1214 -16 
Q 841 59 441 206 
L 441 856 
Q 825 641 1194 531 
Q 1563 422 1919 422 
Q 2459 422 2753 634 
Q 3047 847 3047 1241 
Q 3047 1584 2836 1778 
Q 2625 1972 2144 2069 
L 1759 2144 
Q 1053 2284 737 2584 
Q 422 2884 422 3419 
Q 422 4038 858 4394 
Q 1294 4750 2059 4750 
Q 2388 4750 2728 4690 
Q 3069 4631 3425 4513 
z
" transform="scale(0.015625)"/>
       <path id="DejaVuSans-72" d="M 2631 2963 
Q 2534 3019 2420 3045 
Q 2306 3072 2169 3072 
Q 1681 3072 1420 2755 
Q 1159 2438 1159 1844 
L 1159 0 
L 581 0 
L 581 3500 
L 1159 3500 
L 1159 2956 
Q 1341 3275 1631 3429 
Q 1922 3584 2338 3584 
Q 2397 3584 2469 3576 
Q 2541 3569 2628 3553 
L 2631 2963 
z
" transform="scale(0.015625)"/>
       <path id="DejaVuSans-61" d="M 2194 1759 
Q 1497 1759 1228 1600 
Q 959 1441 959 1056 
Q 959 750 1161 570 
Q 1363 391 1709 391 
Q 2188 391 2477 730 
Q 2766 1069 2766 1631 
L 2766 1759 
L 2194 1759 
z
M 3341 1997 
L 3341 0 
L 2766 0 
L 2766 531 
Q 2569 213 2275 61 
Q 1981 -91 1556 -91 
Q 1019 -91 701 211 
Q 384 513 384 1019 
Q 384 1609 779 1909 
Q 1175 2209 1959 2209 
L 2766 2209 
L 2766 2266 
Q 2766 2663 2505 2880 
Q 2244 3097 1772 3097 
Q 1472 3097 1187 3025 
Q 903 2953 641 2809 
L 641 3341 
Q 956 3463 1253 3523 
Q 1550 3584 1831 3584 
Q 2591 3584 2966 3190 
Q 3341 2797 3341 1997 
z
" transform="scale(0.015625)"/>
       <path id="DejaVuSans-76" d="M 191 3500 
L 800 3500 
L 1894 563 
L 2988 3500 
L 3597 3500 
L 2284 0 
L 1503 0 
L 191 3500 
z
" transform="scale(0.015625)"/>
       <path id="DejaVuSans-67" d="M 2906 1791 
Q 2906 2416 2648 2759 
Q 2391 3103 1925 3103 
Q 1463 3103 1205 2759 
Q 947 2416 947 1791 
Q 947 1169 1205 825 
Q 1463 481 1925 481 
Q 2391 481 2648 825 
Q 2906 1169 2906 1791 
z
M 3481 434 
Q 3481 -459 3084 -895 
Q 2688 -1331 1869 -1331 
Q 1566 -1331 1297 -1286 
Q 1028 -1241 775 -1147 
L 775 -588 
Q 1028 -725 1275 -790 
Q 1522 -856 1778 -856 
Q 2344 -856 2625 -561 
Q 2906 -266 2906 331 
L 2906 616 
Q 2728 306 2450 153 
Q 2172 0 1784 0 
Q 1141 0 747 490 
Q 353 981 353 1791 
Q 353 2603 747 3093 
Q 1141 3584 1784 3584 
Q 2172 3584 2450 3431 
Q 2728 3278 2906 2969 
L 2906 3500 
L 3481 3500 
L 3481 434 
z
" transform="scale(0.015625)"/>
       <path id="DejaVuSans-64" d="M 2906 2969 
L 2906 4863 
L 3481 4863 
L 3481 0 
L 2906 0 
L 2906 525 
Q 2725 213 2448 61 
Q 2172 -91 1784 -91 
Q 1150 -91 751 415 
Q 353 922 353 1747 
Q 353 2572 751 3078 
Q 1150 3584 1784 3584 
Q 2172 3584 2448 3432 
Q 2725 3281 2906 2969 
z
M 947 1747 
Q 947 1113 1208 752 
Q 1469 391 1925 391 
Q 2381 391 2643 752 
Q 2906 1113 2906 1747 
Q 2906 2381 2643 2742 
Q 2381 3103 1925 3103 
Q 1469 3103 1208 2742 
Q 947 2381 947 1747 
z
" transform="scale(0.015625)"/>
       <path id="DejaVuSans-66" d="M 2375 4863 
L 2375 4384 
L 1825 4384 
Q 1516 4384 1395 4259 
Q 1275 4134 1275 3809 
L 1275 3500 
L 2222 3500 
L 2222 3053 
L 1275 3053 
L 1275 0 
L 697 0 
L 697 3053 
L 147 3053 
L 147 3500 
L 697 3500 
L 697 3744 
Q 697 4328 969 4595 
Q 1241 4863 1831 4863 
L 2375 4863 
z
" transform="scale(0.015625)"/>
       <path id="DejaVuSans-63" d="M 3122 3366 
L 3122 2828 
Q 2878 2963 2633 3030 
Q 2388 3097 2138 3097 
Q 1578 3097 1268 2742 
Q 959 2388 959 1747 
Q 959 1106 1268 751 
Q 1578 397 2138 397 
Q 2388 397 2633 464 
Q 2878 531 3122 666 
L 3122 134 
Q 2881 22 2623 -34 
Q 2366 -91 2075 -91 
Q 1284 -91 818 406 
Q 353 903 353 1747 
Q 353 2603 823 3093 
Q 1294 3584 2113 3584 
Q 2378 3584 2631 3529 
Q 2884 3475 3122 3366 
z
" transform="scale(0.015625)"/>
      </defs>
      <use xlink:href="#DejaVuSans-52"/>
      <use xlink:href="#DejaVuSans-4d" transform="translate(69.482422 0)"/>
      <use xlink:href="#DejaVuSans-53" transform="translate(155.761719 0)"/>
      <use xlink:href="#DejaVuSans-20" transform="translate(219.238281 0)"/>
      <use xlink:href="#DejaVuSans-72" transform="translate(251.025391 0)"/>
      <use xlink:href="#DejaVuSans-65" transform="translate(289.888672 0)"/>
      <use xlink:href="#DejaVuSans-6c" transform="translate(351.412109 0)"/>
      <use xlink:href="#DejaVuSans-61" transform="translate(379.195312 0)"/>
      <use xlink:href="#DejaVuSans-74" transform="translate(440.474609 0)"/>
      <use xlink:href="#DejaVuSans-69" transform="translate(479.683594 0)"/>
      <use xlink:href="#DejaVuSans-76" transform="translate(507.466797 0)"/>
      <use xlink:href="#DejaVuSans-65" transform="translate(566.646484 0)"/>
      <use xlink:href="#DejaVuSans-20" transform="translate(628.169922 0)"/>
      <use xlink:href="#DejaVuSans-65" transform="translate(659.957031 0)"/>
      <use xlink:href="#DejaVuSans-69" transform="translate(721.480469 0)"/>
      <use xlink:href="#DejaVuSans-67" transform="translate(749.263672 0)"/>
      <use xlink:href="#DejaVuSans-65" transform="translate(812.740234 0)"/>
      <use xlink:href="#DejaVuSans-6e" transform="translate(874.263672 0)"/>
      <use xlink:href="#DejaVuSans-76" transform="translate(937.642578 0)"/>
      <use xlink:href="#DejaVuSans-61" transform="translate(996.822266 0)"/>
      <use xlink:href="#DejaVuSans-6c" transform="translate(1058.101562 0)"/>
      <use xlink:href="#DejaVuSans-75" transform="translate(1085.884766 0)"/>
      <use xlink:href="#DejaVuSans-65" transform="translate(1149.263672 0)"/>
      <use xlink:href="#DejaVuSans-20" transform="translate(1210.787109 0)"/>
      <use xlink:href="#DejaVuSans-64" transform="translate(1242.574219 0)"/>
      <use xlink:href="#DejaVuSans-69" transform="translate(1306.050781 0)"/>
      <use xlink:href="#DejaVuSans-66" transform="translate(1333.833984 0)"/>
      <use xlink:href="#DejaVuSans-66" transform="translate(1369.039062 0)"/>
      <use xlink:href="#DejaVuSans-65" transform="translate(1404.244141 0)"/>
      <use xlink:href="#DejaVuSans-72" transform="translate(1465.767578 0)"/>
      <use xlink:href="#DejaVuSans-65" transform="translate(1504.630859 0)"/>
      <use xlink:href="#DejaVuSans-6e" transform="translate(1566.154297 0)"/>
      <use xlink:href="#DejaVuSans-63" transform="translate(1629.533203 0)"/>
      <use xlink:href="#DejaVuSans-65" transform="translate(1684.513672 0)"/>
     </g>
    </g>
   </g>
   <g id="line2d_23">
    <path d="M 105.470838 151.874202 
L 223.865654 122.848815 
L 293.122182 166.434341 
L 342.26047 207.812041 
L 411.516998 379.91952 
L 460.655286 292.124761 
L 529.911814 307.295304 
L 579.050102 321.5825 
" clip-path="url(#pb829ba8682)" style="fill: none; stroke: #a5c6df; stroke-width: 2; stroke-linecap: square"/>
    <defs>
     <path id="md49e5db141" d="M 0 3.5 
C 0.928211 3.5 1.81853 3.131218 2.474874 2.474874 
C 3.131218 1.81853 3.5 0.928211 3.5 0 
C 3.5 -0.928211 3.131218 -1.81853 2.474874 -2.474874 
C 1.81853 -3.131218 0.928211 -3.5 0 -3.5 
C -0.928211 -3.5 -1.81853 -3.131218 -2.474874 -2.474874 
C -3.131218 -1.81853 -3.5 -0.928211 -3.5 0 
C -3.5 0.928211 -3.131218 1.81853 -2.474874 2.474874 
C -1.81853 3.131218 -0.928211 3.5 0 3.5 
z
" style="stroke: #a5c6df"/>
    </defs>
    <g clip-path="url(#pb829ba8682)">
     <use xlink:href="#md49e5db141" x="105.470838" y="151.874202" style="fill: #a5c6df; stroke: #a5c6df"/>
     <use xlink:href="#md49e5db141" x="223.865654" y="122.848815" style="fill: #a5c6df; stroke: #a5c6df"/>
     <use xlink:href="#md49e5db141" x="293.122182" y="166.434341" style="fill: #a5c6df; stroke: #a5c6df"/>
     <use xlink:href="#md49e5db141" x="342.26047" y="207.812041" style="fill: #a5c6df; stroke: #a5c6df"/>
     <use xlink:href="#md49e5db141" x="411.516998" y="379.91952" style="fill: #a5c6df; stroke: #a5c6df"/>
     <use xlink:href="#md49e5db141" x="460.655286" y="292.124761" style="fill: #a5c6df; stroke: #a5c6df"/>
     <use xlink:href="#md49e5db141" x="529.911814" y="307.295304" style="fill: #a5c6df; stroke: #a5c6df"/>
     <use xlink:href="#md49e5db141" x="579.050102" y="321.5825" style="fill: #a5c6df; stroke: #a5c6df"/>
    </g>
   </g>
   <g id="line2d_24">
    <path d="M 105.470838 131.11148 
L 223.865654 129.746865 
L 293.122182 177.686445 
L 342.26047 223.183353 
L 411.516998 395.778192 
L 460.655286 305.939331 
L 529.911814 318.3403 
L 579.050102 333.516152 
" clip-path="url(#pb829ba8682)" style="fill: none; stroke: #8bbde8; stroke-width: 2; stroke-linecap: square"/>
    <defs>
     <path id="m200262a205" d="M 0 3.5 
C 0.928211 3.5 1.81853 3.131218 2.474874 2.474874 
C 3.131218 1.81853 3.5 0.928211 3.5 0 
C 3.5 -0.928211 3.131218 -1.81853 2.474874 -2.474874 
C 1.81853 -3.131218 0.928211 -3.5 0 -3.5 
C -0.928211 -3.5 -1.81853 -3.131218 -2.474874 -2.474874 
C -3.131218 -1.81853 -3.5 -0.928211 -3.5 0 
C -3.5 0.928211 -3.131218 1.81853 -2.474874 2.474874 
C -1.81853 3.131218 -0.928211 3.5 0 3.5 
z
" style="stroke: #8bbde8"/>
    </defs>
    <g clip-path="url(#pb829ba8682)">
     <use xlink:href="#m200262a205" x="105.470838" y="131.11148" style="fill: #8bbde8; stroke: #8bbde8"/>
     <use xlink:href="#m200262a205" x="223.865654" y="129.746865" style="fill: #8bbde8; stroke: #8bbde8"/>
     <use xlink:href="#m200262a205" x="293.122182" y="177.686445" style="fill: #8bbde8; stroke: #8bbde8"/>
     <use xlink:href="#m200262a205" x="342.26047" y="223.183353" style="fill: #8bbde8; stroke: #8bbde8"/>
     <use xlink:href="#m200262a205" x="411.516998" y="395.778192" style="fill: #8bbde8; stroke: #8bbde8"/>
     <use xlink:href="#m200262a205" x="460.655286" y="305.939331" style="fill: #8bbde8; stroke: #8bbde8"/>
     <use xlink:href="#m200262a205" x="529.911814" y="318.3403" style="fill: #8bbde8; stroke: #8bbde8"/>
     <use xlink:href="#m200262a205" x="579.050102" y="333.516152" style="fill: #8bbde8; stroke: #8bbde8"/>
    </g>
   </g>
   <g id="line2d_25">
    <path d="M 105.470838 139.906894 
L 223.865654 94.00686 
L 293.122182 138.665764 
L 342.26047 178.688743 
L 411.516998 348.048989 
L 460.655286 267.825243 
L 529.911814 277.837943 
L 579.050102 295.007757 
" clip-path="url(#pb829ba8682)" style="fill: none; stroke: #4e9ae1; stroke-width: 2; stroke-linecap: square"/>
    <defs>
     <path id="mfcc031de18" d="M 0 3.5 
C 0.928211 3.5 1.81853 3.131218 2.474874 2.474874 
C 3.131218 1.81853 3.5 0.928211 3.5 0 
C 3.5 -0.928211 3.131218 -1.81853 2.474874 -2.474874 
C 1.81853 -3.131218 0.928211 -3.5 0 -3.5 
C -0.928211 -3.5 -1.81853 -3.131218 -2.474874 -2.474874 
C -3.131218 -1.81853 -3.5 -0.928211 -3.5 0 
C -3.5 0.928211 -3.131218 1.81853 -2.474874 2.474874 
C -1.81853 3.131218 -0.928211 3.5 0 3.5 
z
" style="stroke: #4e9ae1"/>
    </defs>
    <g clip-path="url(#pb829ba8682)">
     <use xlink:href="#mfcc031de18" x="105.470838" y="139.906894" style="fill: #4e9ae1; stroke: #4e9ae1"/>
     <use xlink:href="#mfcc031de18" x="223.865654" y="94.00686" style="fill: #4e9ae1; stroke: #4e9ae1"/>
     <use xlink:href="#mfcc031de18" x="293.122182" y="138.665764" style="fill: #4e9ae1; stroke: #4e9ae1"/>
     <use xlink:href="#mfcc031de18" x="342.26047" y="178.688743" style="fill: #4e9ae1; stroke: #4e9ae1"/>
     <use xlink:href="#mfcc031de18" x="411.516998" y="348.048989" style="fill: #4e9ae1; stroke: #4e9ae1"/>
     <use xlink:href="#mfcc031de18" x="460.655286" y="267.825243" style="fill: #4e9ae1; stroke: #4e9ae1"/>
     <use xlink:href="#mfcc031de18" x="529.911814" y="277.837943" style="fill: #4e9ae1; stroke: #4e9ae1"/>
     <use xlink:href="#mfcc031de18" x="579.050102" y="295.007757" style="fill: #4e9ae1; stroke: #4e9ae1"/>
    </g>
   </g>
   <g id="line2d_26">
    <path d="M 105.470838 232.835093 
L 223.865654 152.315783 
L 293.122182 190.533921 
L 342.26047 223.576653 
L 411.516998 394.645738 
L 460.655286 322.800582 
L 529.911814 327.211689 
L 579.050102 342.078954 
" clip-path="url(#pb829ba8682)" style="fill: none; stroke: #4d7b9e; stroke-width: 2; stroke-linecap: square"/>
    <defs>
     <path id="m66b6047041" d="M 0 3.5 
C 0.928211 3.5 1.81853 3.131218 2.474874 2.474874 
C 3.131218 1.81853 3.5 0.928211 3.5 0 
C 3.5 -0.928211 3.131218 -1.81853 2.474874 -2.474874 
C 1.81853 -3.131218 0.928211 -3.5 0 -3.5 
C -0.928211 -3.5 -1.81853 -3.131218 -2.474874 -2.474874 
C -3.131218 -1.81853 -3.5 -0.928211 -3.5 0 
C -3.5 0.928211 -3.131218 1.81853 -2.474874 2.474874 
C -1.81853 3.131218 -0.928211 3.5 0 3.5 
z
" style="stroke: #4d7b9e"/>
    </defs>
    <g clip-path="url(#pb829ba8682)">
     <use xlink:href="#m66b6047041" x="105.470838" y="232.835093" style="fill: #4d7b9e; stroke: #4d7b9e"/>
     <use xlink:href="#m66b6047041" x="223.865654" y="152.315783" style="fill: #4d7b9e; stroke: #4d7b9e"/>
     <use xlink:href="#m66b6047041" x="293.122182" y="190.533921" style="fill: #4d7b9e; stroke: #4d7b9e"/>
     <use xlink:href="#m66b6047041" x="342.26047" y="223.576653" style="fill: #4d7b9e; stroke: #4d7b9e"/>
     <use xlink:href="#m66b6047041" x="411.516998" y="394.645738" style="fill: #4d7b9e; stroke: #4d7b9e"/>
     <use xlink:href="#m66b6047041" x="460.655286" y="322.800582" style="fill: #4d7b9e; stroke: #4d7b9e"/>
     <use xlink:href="#m66b6047041" x="529.911814" y="327.211689" style="fill: #4d7b9e; stroke: #4d7b9e"/>
     <use xlink:href="#m66b6047041" x="579.050102" y="342.078954" style="fill: #4d7b9e; stroke: #4d7b9e"/>
    </g>
   </g>
   <g id="line2d_27">
    <path d="M 105.470838 74.584402 
L 223.865654 94.825226 
L 293.122182 163.370368 
L 342.26047 191.208073 
L 411.516998 334.825125 
L 460.655286 271.616734 
L 529.911814 352.716799 
L 579.050102 371.724247 
" clip-path="url(#pb829ba8682)" style="fill: none; stroke: #4f5f6b; stroke-width: 2; stroke-linecap: square"/>
    <defs>
     <path id="mce0cf7d2ac" d="M 0 3.5 
C 0.928211 3.5 1.81853 3.131218 2.474874 2.474874 
C 3.131218 1.81853 3.5 0.928211 3.5 0 
C 3.5 -0.928211 3.131218 -1.81853 2.474874 -2.474874 
C 1.81853 -3.131218 0.928211 -3.5 0 -3.5 
C -0.928211 -3.5 -1.81853 -3.131218 -2.474874 -2.474874 
C -3.131218 -1.81853 -3.5 -0.928211 -3.5 0 
C -3.5 0.928211 -3.131218 1.81853 -2.474874 2.474874 
C -1.81853 3.131218 -0.928211 3.5 0 3.5 
z
" style="stroke: #4f5f6b"/>
    </defs>
    <g clip-path="url(#pb829ba8682)">
     <use xlink:href="#mce0cf7d2ac" x="105.470838" y="74.584402" style="fill: #4f5f6b; stroke: #4f5f6b"/>
     <use xlink:href="#mce0cf7d2ac" x="223.865654" y="94.825226" style="fill: #4f5f6b; stroke: #4f5f6b"/>
     <use xlink:href="#mce0cf7d2ac" x="293.122182" y="163.370368" style="fill: #4f5f6b; stroke: #4f5f6b"/>
     <use xlink:href="#mce0cf7d2ac" x="342.26047" y="191.208073" style="fill: #4f5f6b; stroke: #4f5f6b"/>
     <use xlink:href="#mce0cf7d2ac" x="411.516998" y="334.825125" style="fill: #4f5f6b; stroke: #4f5f6b"/>
     <use xlink:href="#mce0cf7d2ac" x="460.655286" y="271.616734" style="fill: #4f5f6b; stroke: #4f5f6b"/>
     <use xlink:href="#mce0cf7d2ac" x="529.911814" y="352.716799" style="fill: #4f5f6b; stroke: #4f5f6b"/>
     <use xlink:href="#mce0cf7d2ac" x="579.050102" y="371.724247" style="fill: #4f5f6b; stroke: #4f5f6b"/>
    </g>
   </g>
   <g id="line2d_28">
    <path d="M 105.470838 105.101552 
L 223.865654 183.937376 
L 293.122182 191.629983 
L 342.26047 271.705794 
L 411.516998 422.111108 
L 460.655286 378.843402 
L 529.911814 263.870247 
L 579.050102 277.923642 
" clip-path="url(#pb829ba8682)" style="fill: none; stroke: #857255; stroke-width: 2; stroke-linecap: square"/>
    <defs>
     <path id="mab2ca29985" d="M 0 3.5 
C 0.928211 3.5 1.81853 3.131218 2.474874 2.474874 
C 3.131218 1.81853 3.5 0.928211 3.5 0 
C 3.5 -0.928211 3.131218 -1.81853 2.474874 -2.474874 
C 1.81853 -3.131218 0.928211 -3.5 0 -3.5 
C -0.928211 -3.5 -1.81853 -3.131218 -2.474874 -2.474874 
C -3.131218 -1.81853 -3.5 -0.928211 -3.5 0 
C -3.5 0.928211 -3.131218 1.81853 -2.474874 2.474874 
C -1.81853 3.131218 -0.928211 3.5 0 3.5 
z
" style="stroke: #857255"/>
    </defs>
    <g clip-path="url(#pb829ba8682)">
     <use xlink:href="#mab2ca29985" x="105.470838" y="105.101552" style="fill: #857255; stroke: #857255"/>
     <use xlink:href="#mab2ca29985" x="223.865654" y="183.937376" style="fill: #857255; stroke: #857255"/>
     <use xlink:href="#mab2ca29985" x="293.122182" y="191.629983" style="fill: #857255; stroke: #857255"/>
     <use xlink:href="#mab2ca29985" x="342.26047" y="271.705794" style="fill: #857255; stroke: #857255"/>
     <use xlink:href="#mab2ca29985" x="411.516998" y="422.111108" style="fill: #857255; stroke: #857255"/>
     <use xlink:href="#mab2ca29985" x="460.655286" y="378.843402" style="fill: #857255; stroke: #857255"/>
     <use xlink:href="#mab2ca29985" x="529.911814" y="263.870247" style="fill: #857255; stroke: #857255"/>
     <use xlink:href="#mab2ca29985" x="579.050102" y="277.923642" style="fill: #857255; stroke: #857255"/>
    </g>
   </g>
   <g id="line2d_29">
    <path d="M 105.470838 75.198237 
L 223.865654 52.402017 
L 293.122182 119.59712 
L 342.26047 139.895739 
L 411.516998 295.694968 
L 460.655286 232.641705 
L 529.911814 298.55067 
L 579.050102 315.022772 
" clip-path="url(#pb829ba8682)" style="fill: none; stroke: #e3b064; stroke-width: 2; stroke-linecap: square"/>
    <defs>
     <path id="m39c14a0a14" d="M 0 3.5 
C 0.928211 3.5 1.81853 3.131218 2.474874 2.474874 
C 3.131218 1.81853 3.5 0.928211 3.5 0 
C 3.5 -0.928211 3.131218 -1.81853 2.474874 -2.474874 
C 1.81853 -3.131218 0.928211 -3.5 0 -3.5 
C -0.928211 -3.5 -1.81853 -3.131218 -2.474874 -2.474874 
C -3.131218 -1.81853 -3.5 -0.928211 -3.5 0 
C -3.5 0.928211 -3.131218 1.81853 -2.474874 2.474874 
C -1.81853 3.131218 -0.928211 3.5 0 3.5 
z
" style="stroke: #e3b064"/>
    </defs>
    <g clip-path="url(#pb829ba8682)">
     <use xlink:href="#m39c14a0a14" x="105.470838" y="75.198237" style="fill: #e3b064; stroke: #e3b064"/>
     <use xlink:href="#m39c14a0a14" x="223.865654" y="52.402017" style="fill: #e3b064; stroke: #e3b064"/>
     <use xlink:href="#m39c14a0a14" x="293.122182" y="119.59712" style="fill: #e3b064; stroke: #e3b064"/>
     <use xlink:href="#m39c14a0a14" x="342.26047" y="139.895739" style="fill: #e3b064; stroke: #e3b064"/>
     <use xlink:href="#m39c14a0a14" x="411.516998" y="295.694968" style="fill: #e3b064; stroke: #e3b064"/>
     <use xlink:href="#m39c14a0a14" x="460.655286" y="232.641705" style="fill: #e3b064; stroke: #e3b064"/>
     <use xlink:href="#m39c14a0a14" x="529.911814" y="298.55067" style="fill: #e3b064; stroke: #e3b064"/>
     <use xlink:href="#m39c14a0a14" x="579.050102" y="315.022772" style="fill: #e3b064; stroke: #e3b064"/>
    </g>
   </g>
   <g id="line2d_30">
    <path d="M 105.470838 117.78942 
L 223.865654 85.348497 
L 293.122182 176.889606 
L 342.26047 201.518624 
L 411.516998 361.046729 
L 460.655286 302.254897 
L 529.911814 317.537473 
L 579.050102 333.880173 
" clip-path="url(#pb829ba8682)" style="fill: none; stroke: #eba538; stroke-width: 2; stroke-linecap: square"/>
    <defs>
     <path id="m47c7f4fa01" d="M 0 3.5 
C 0.928211 3.5 1.81853 3.131218 2.474874 2.474874 
C 3.131218 1.81853 3.5 0.928211 3.5 0 
C 3.5 -0.928211 3.131218 -1.81853 2.474874 -2.474874 
C 1.81853 -3.131218 0.928211 -3.5 0 -3.5 
C -0.928211 -3.5 -1.81853 -3.131218 -2.474874 -2.474874 
C -3.131218 -1.81853 -3.5 -0.928211 -3.5 0 
C -3.5 0.928211 -3.131218 1.81853 -2.474874 2.474874 
C -1.81853 3.131218 -0.928211 3.5 0 3.5 
z
" style="stroke: #eba538"/>
    </defs>
    <g clip-path="url(#pb829ba8682)">
     <use xlink:href="#m47c7f4fa01" x="105.470838" y="117.78942" style="fill: #eba538; stroke: #eba538"/>
     <use xlink:href="#m47c7f4fa01" x="223.865654" y="85.348497" style="fill: #eba538; stroke: #eba538"/>
     <use xlink:href="#m47c7f4fa01" x="293.122182" y="176.889606" style="fill: #eba538; stroke: #eba538"/>
     <use xlink:href="#m47c7f4fa01" x="342.26047" y="201.518624" style="fill: #eba538; stroke: #eba538"/>
     <use xlink:href="#m47c7f4fa01" x="411.516998" y="361.046729" style="fill: #eba538; stroke: #eba538"/>
     <use xlink:href="#m47c7f4fa01" x="460.655286" y="302.254897" style="fill: #eba538; stroke: #eba538"/>
     <use xlink:href="#m47c7f4fa01" x="529.911814" y="317.537473" style="fill: #eba538; stroke: #eba538"/>
     <use xlink:href="#m47c7f4fa01" x="579.050102" y="333.880173" style="fill: #eba538; stroke: #eba538"/>
    </g>
   </g>
   <g id="patch_3">
    <path d="M 81.791875 440.596563 
L 81.791875 33.916563 
" style="fill: none; stroke: #000000; stroke-width: 0.8; stroke-linejoin: miter; stroke-linecap: square"/>
   </g>
   <g id="patch_4">
    <path d="M 602.729066 440.596563 
L 602.729066 33.916563 
" style="fill: none; stroke: #000000; stroke-width: 0.8; stroke-linejoin: miter; stroke-linecap: square"/>
   </g>
   <g id="patch_5">
    <path d="M 81.791875 440.596562 
L 602.729066 440.596562 
" style="fill: none; stroke: #000000; stroke-width: 0.8; stroke-linejoin: miter; stroke-linecap: square"/>
   </g>
   <g id="patch_6">
    <path d="M 81.791875 33.916562 
L 602.729066 33.916562 
" style="fill: none; stroke: #000000; stroke-width: 0.8; stroke-linejoin: miter; stroke-linecap: square"/>
   </g>
   <g id="text_14">
    <!-- TM polarization -->
    <g transform="translate(245.917658 23.916562) scale(0.22 -0.22)">
     <defs>
      <path id="DejaVuSans-Bold-54" d="M 31 4666 
L 4331 4666 
L 4331 3756 
L 2784 3756 
L 2784 0 
L 1581 0 
L 1581 3756 
L 31 3756 
L 31 4666 
z
" transform="scale(0.015625)"/>
      <path id="DejaVuSans-Bold-4d" d="M 588 4666 
L 2119 4666 
L 3181 2169 
L 4250 4666 
L 5778 4666 
L 5778 0 
L 4641 0 
L 4641 3413 
L 3566 897 
L 2803 897 
L 1728 3413 
L 1728 0 
L 588 0 
L 588 4666 
z
" transform="scale(0.015625)"/>
      <path id="DejaVuSans-Bold-20" transform="scale(0.015625)"/>
      <path id="DejaVuSans-Bold-70" d="M 1656 506 
L 1656 -1331 
L 538 -1331 
L 538 3500 
L 1656 3500 
L 1656 2988 
Q 1888 3294 2169 3439 
Q 2450 3584 2816 3584 
Q 3463 3584 3878 3070 
Q 4294 2556 4294 1747 
Q 4294 938 3878 423 
Q 3463 -91 2816 -91 
Q 2450 -91 2169 54 
Q 1888 200 1656 506 
z
M 2400 2772 
Q 2041 2772 1848 2508 
Q 1656 2244 1656 1747 
Q 1656 1250 1848 986 
Q 2041 722 2400 722 
Q 2759 722 2948 984 
Q 3138 1247 3138 1747 
Q 3138 2247 2948 2509 
Q 2759 2772 2400 2772 
z
" transform="scale(0.015625)"/>
      <path id="DejaVuSans-Bold-6f" d="M 2203 2784 
Q 1831 2784 1636 2517 
Q 1441 2250 1441 1747 
Q 1441 1244 1636 976 
Q 1831 709 2203 709 
Q 2569 709 2762 976 
Q 2956 1244 2956 1747 
Q 2956 2250 2762 2517 
Q 2569 2784 2203 2784 
z
M 2203 3584 
Q 3106 3584 3614 3096 
Q 4122 2609 4122 1747 
Q 4122 884 3614 396 
Q 3106 -91 2203 -91 
Q 1297 -91 786 396 
Q 275 884 275 1747 
Q 275 2609 786 3096 
Q 1297 3584 2203 3584 
z
" transform="scale(0.015625)"/>
      <path id="DejaVuSans-Bold-6c" d="M 538 4863 
L 1656 4863 
L 1656 0 
L 538 0 
L 538 4863 
z
" transform="scale(0.015625)"/>
      <path id="DejaVuSans-Bold-61" d="M 2106 1575 
Q 1756 1575 1579 1456 
Q 1403 1338 1403 1106 
Q 1403 894 1545 773 
Q 1688 653 1941 653 
Q 2256 653 2472 879 
Q 2688 1106 2688 1447 
L 2688 1575 
L 2106 1575 
z
M 3816 1997 
L 3816 0 
L 2688 0 
L 2688 519 
Q 2463 200 2181 54 
Q 1900 -91 1497 -91 
Q 953 -91 614 226 
Q 275 544 275 1050 
Q 275 1666 698 1953 
Q 1122 2241 2028 2241 
L 2688 2241 
L 2688 2328 
Q 2688 2594 2478 2717 
Q 2269 2841 1825 2841 
Q 1466 2841 1156 2769 
Q 847 2697 581 2553 
L 581 3406 
Q 941 3494 1303 3539 
Q 1666 3584 2028 3584 
Q 2975 3584 3395 3211 
Q 3816 2838 3816 1997 
z
" transform="scale(0.015625)"/>
      <path id="DejaVuSans-Bold-72" d="M 3138 2547 
Q 2991 2616 2845 2648 
Q 2700 2681 2553 2681 
Q 2122 2681 1889 2404 
Q 1656 2128 1656 1613 
L 1656 0 
L 538 0 
L 538 3500 
L 1656 3500 
L 1656 2925 
Q 1872 3269 2151 3426 
Q 2431 3584 2822 3584 
Q 2878 3584 2943 3579 
Q 3009 3575 3134 3559 
L 3138 2547 
z
" transform="scale(0.015625)"/>
      <path id="DejaVuSans-Bold-69" d="M 538 3500 
L 1656 3500 
L 1656 0 
L 538 0 
L 538 3500 
z
M 538 4863 
L 1656 4863 
L 1656 3950 
L 538 3950 
L 538 4863 
z
" transform="scale(0.015625)"/>
      <path id="DejaVuSans-Bold-7a" d="M 366 3500 
L 3419 3500 
L 3419 2719 
L 1575 800 
L 3419 800 
L 3419 0 
L 288 0 
L 288 781 
L 2131 2700 
L 366 2700 
L 366 3500 
z
" transform="scale(0.015625)"/>
      <path id="DejaVuSans-Bold-74" d="M 1759 4494 
L 1759 3500 
L 2913 3500 
L 2913 2700 
L 1759 2700 
L 1759 1216 
Q 1759 972 1856 886 
Q 1953 800 2241 800 
L 2816 800 
L 2816 0 
L 1856 0 
Q 1194 0 917 276 
Q 641 553 641 1216 
L 641 2700 
L 84 2700 
L 84 3500 
L 641 3500 
L 641 4494 
L 1759 4494 
z
" transform="scale(0.015625)"/>
      <path id="DejaVuSans-Bold-6e" d="M 4056 2131 
L 4056 0 
L 2931 0 
L 2931 347 
L 2931 1631 
Q 2931 2084 2911 2256 
Q 2891 2428 2841 2509 
Q 2775 2619 2662 2680 
Q 2550 2741 2406 2741 
Q 2056 2741 1856 2470 
Q 1656 2200 1656 1722 
L 1656 0 
L 538 0 
L 538 3500 
L 1656 3500 
L 1656 2988 
Q 1909 3294 2193 3439 
Q 2478 3584 2822 3584 
Q 3428 3584 3742 3212 
Q 4056 2841 4056 2131 
z
" transform="scale(0.015625)"/>
     </defs>
     <use xlink:href="#DejaVuSans-Bold-54"/>
     <use xlink:href="#DejaVuSans-Bold-4d" transform="translate(68.212891 0)"/>
     <use xlink:href="#DejaVuSans-Bold-20" transform="translate(167.724609 0)"/>
     <use xlink:href="#DejaVuSans-Bold-70" transform="translate(202.539062 0)"/>
     <use xlink:href="#DejaVuSans-Bold-6f" transform="translate(274.121094 0)"/>
     <use xlink:href="#DejaVuSans-Bold-6c" transform="translate(342.822266 0)"/>
     <use xlink:href="#DejaVuSans-Bold-61" transform="translate(377.099609 0)"/>
     <use xlink:href="#DejaVuSans-Bold-72" transform="translate(444.580078 0)"/>
     <use xlink:href="#DejaVuSans-Bold-69" transform="translate(493.896484 0)"/>
     <use xlink:href="#DejaVuSans-Bold-7a" transform="translate(528.173828 0)"/>
     <use xlink:href="#DejaVuSans-Bold-61" transform="translate(586.376953 0)"/>
     <use xlink:href="#DejaVuSans-Bold-74" transform="translate(653.857422 0)"/>
     <use xlink:href="#DejaVuSans-Bold-69" transform="translate(701.660156 0)"/>
     <use xlink:href="#DejaVuSans-Bold-6f" transform="translate(735.9375 0)"/>
     <use xlink:href="#DejaVuSans-Bold-6e" transform="translate(804.638672 0)"/>
    </g>
   </g>
  </g>
  <g id="axes_2">
   <g id="patch_7">
    <path d="M 617.029066 440.596562 
L 1137.966256 440.596562 
L 1137.966256 33.916562 
L 617.029066 33.916562 
z
" style="fill: #ffffff"/>
   </g>
   <g id="matplotlib.axis_3">
    <g id="xtick_9">
     <g id="line2d_31">
      <path d="M 640.708029 440.596562 
L 640.708029 33.916562 
" clip-path="url(#pea923a51a5)" style="fill: none; stroke-dasharray: 0.8,1.32; stroke-dashoffset: 0; stroke: #b0b0b0; stroke-opacity: 0.4; stroke-width: 0.8"/>
     </g>
     <g id="line2d_32">
      <g>
       <use xlink:href="#mf165043763" x="640.708029" y="440.596562" style="stroke: #000000; stroke-width: 0.8"/>
      </g>
     </g>
     <g id="text_15">
      <!-- 8 -->
      <g transform="translate(634.981779 461.27375) scale(0.18 -0.18)">
       <use xlink:href="#DejaVuSans-38"/>
      </g>
     </g>
    </g>
    <g id="xtick_10">
     <g id="line2d_33">
      <path d="M 759.102845 440.596562 
L 759.102845 33.916562 
" clip-path="url(#pea923a51a5)" style="fill: none; stroke-dasharray: 0.8,1.32; stroke-dashoffset: 0; stroke: #b0b0b0; stroke-opacity: 0.4; stroke-width: 0.8"/>
     </g>
     <g id="line2d_34">
      <g>
       <use xlink:href="#mf165043763" x="759.102845" y="440.596562" style="stroke: #000000; stroke-width: 0.8"/>
      </g>
     </g>
     <g id="text_16">
      <!-- 16 -->
      <g transform="translate(747.650345 461.27375) scale(0.18 -0.18)">
       <use xlink:href="#DejaVuSans-31"/>
       <use xlink:href="#DejaVuSans-36" transform="translate(63.623047 0)"/>
      </g>
     </g>
    </g>
    <g id="xtick_11">
     <g id="line2d_35">
      <path d="M 828.359373 440.596562 
L 828.359373 33.916562 
" clip-path="url(#pea923a51a5)" style="fill: none; stroke-dasharray: 0.8,1.32; stroke-dashoffset: 0; stroke: #b0b0b0; stroke-opacity: 0.4; stroke-width: 0.8"/>
     </g>
     <g id="line2d_36">
      <g>
       <use xlink:href="#mf165043763" x="828.359373" y="440.596562" style="stroke: #000000; stroke-width: 0.8"/>
      </g>
     </g>
     <g id="text_17">
      <!-- 24 -->
      <g transform="translate(816.906873 461.27375) scale(0.18 -0.18)">
       <use xlink:href="#DejaVuSans-32"/>
       <use xlink:href="#DejaVuSans-34" transform="translate(63.623047 0)"/>
      </g>
     </g>
    </g>
    <g id="xtick_12">
     <g id="line2d_37">
      <path d="M 877.497661 440.596562 
L 877.497661 33.916562 
" clip-path="url(#pea923a51a5)" style="fill: none; stroke-dasharray: 0.8,1.32; stroke-dashoffset: 0; stroke: #b0b0b0; stroke-opacity: 0.4; stroke-width: 0.8"/>
     </g>
     <g id="line2d_38">
      <g>
       <use xlink:href="#mf165043763" x="877.497661" y="440.596562" style="stroke: #000000; stroke-width: 0.8"/>
      </g>
     </g>
     <g id="text_18">
      <!-- 32 -->
      <g transform="translate(866.045161 461.27375) scale(0.18 -0.18)">
       <use xlink:href="#DejaVuSans-33"/>
       <use xlink:href="#DejaVuSans-32" transform="translate(63.623047 0)"/>
      </g>
     </g>
    </g>
    <g id="xtick_13">
     <g id="line2d_39">
      <path d="M 946.754189 440.596562 
L 946.754189 33.916562 
" clip-path="url(#pea923a51a5)" style="fill: none; stroke-dasharray: 0.8,1.32; stroke-dashoffset: 0; stroke: #b0b0b0; stroke-opacity: 0.4; stroke-width: 0.8"/>
     </g>
     <g id="line2d_40">
      <g>
       <use xlink:href="#mf165043763" x="946.754189" y="440.596562" style="stroke: #000000; stroke-width: 0.8"/>
      </g>
     </g>
     <g id="text_19">
      <!-- 48 -->
      <g transform="translate(935.301689 461.27375) scale(0.18 -0.18)">
       <use xlink:href="#DejaVuSans-34"/>
       <use xlink:href="#DejaVuSans-38" transform="translate(63.623047 0)"/>
      </g>
     </g>
    </g>
    <g id="xtick_14">
     <g id="line2d_41">
      <path d="M 995.892477 440.596562 
L 995.892477 33.916562 
" clip-path="url(#pea923a51a5)" style="fill: none; stroke-dasharray: 0.8,1.32; stroke-dashoffset: 0; stroke: #b0b0b0; stroke-opacity: 0.4; stroke-width: 0.8"/>
     </g>
     <g id="line2d_42">
      <g>
       <use xlink:href="#mf165043763" x="995.892477" y="440.596562" style="stroke: #000000; stroke-width: 0.8"/>
      </g>
     </g>
     <g id="text_20">
      <!-- 64 -->
      <g transform="translate(984.439977 461.27375) scale(0.18 -0.18)">
       <use xlink:href="#DejaVuSans-36"/>
       <use xlink:href="#DejaVuSans-34" transform="translate(63.623047 0)"/>
      </g>
     </g>
    </g>
    <g id="xtick_15">
     <g id="line2d_43">
      <path d="M 1065.149005 440.596562 
L 1065.149005 33.916562 
" clip-path="url(#pea923a51a5)" style="fill: none; stroke-dasharray: 0.8,1.32; stroke-dashoffset: 0; stroke: #b0b0b0; stroke-opacity: 0.4; stroke-width: 0.8"/>
     </g>
     <g id="line2d_44">
      <g>
       <use xlink:href="#mf165043763" x="1065.149005" y="440.596562" style="stroke: #000000; stroke-width: 0.8"/>
      </g>
     </g>
     <g id="text_21">
      <!-- 96 -->
      <g transform="translate(1053.696505 461.27375) scale(0.18 -0.18)">
       <use xlink:href="#DejaVuSans-39"/>
       <use xlink:href="#DejaVuSans-36" transform="translate(63.623047 0)"/>
      </g>
     </g>
    </g>
    <g id="xtick_16">
     <g id="line2d_45">
      <path d="M 1114.287293 440.596562 
L 1114.287293 33.916562 
" clip-path="url(#pea923a51a5)" style="fill: none; stroke-dasharray: 0.8,1.32; stroke-dashoffset: 0; stroke: #b0b0b0; stroke-opacity: 0.4; stroke-width: 0.8"/>
     </g>
     <g id="line2d_46">
      <g>
       <use xlink:href="#mf165043763" x="1114.287293" y="440.596562" style="stroke: #000000; stroke-width: 0.8"/>
      </g>
     </g>
     <g id="text_22">
      <!-- 128 -->
      <g transform="translate(1097.108543 461.27375) scale(0.18 -0.18)">
       <use xlink:href="#DejaVuSans-31"/>
       <use xlink:href="#DejaVuSans-32" transform="translate(63.623047 0)"/>
       <use xlink:href="#DejaVuSans-38" transform="translate(127.246094 0)"/>
      </g>
     </g>
    </g>
    <g id="text_23">
     <!-- Resolution $N$ -->
     <g transform="translate(807.757661 485.73375) scale(0.22 -0.22)">
      <use xlink:href="#DejaVuSans-52" transform="translate(0 0.015625)"/>
      <use xlink:href="#DejaVuSans-65" transform="translate(69.482422 0.015625)"/>
      <use xlink:href="#DejaVuSans-73" transform="translate(131.005859 0.015625)"/>
      <use xlink:href="#DejaVuSans-6f" transform="translate(183.105469 0.015625)"/>
      <use xlink:href="#DejaVuSans-6c" transform="translate(244.287109 0.015625)"/>
      <use xlink:href="#DejaVuSans-75" transform="translate(272.070312 0.015625)"/>
      <use xlink:href="#DejaVuSans-74" transform="translate(335.449219 0.015625)"/>
      <use xlink:href="#DejaVuSans-69" transform="translate(374.658203 0.015625)"/>
      <use xlink:href="#DejaVuSans-6f" transform="translate(402.441406 0.015625)"/>
      <use xlink:href="#DejaVuSans-6e" transform="translate(463.623047 0.015625)"/>
      <use xlink:href="#DejaVuSans-20" transform="translate(527.001953 0.015625)"/>
      <use xlink:href="#DejaVuSans-Oblique-4e" transform="translate(558.789062 0.015625)"/>
     </g>
    </g>
   </g>
   <g id="matplotlib.axis_4">
    <g id="ytick_4">
     <g id="line2d_47">
      <path d="M 617.029066 403.43245 
L 1137.966256 403.43245 
" clip-path="url(#pea923a51a5)" style="fill: none; stroke-dasharray: 0.8,1.32; stroke-dashoffset: 0; stroke: #b0b0b0; stroke-opacity: 0.4; stroke-width: 0.8"/>
     </g>
     <g id="line2d_48">
      <g>
       <use xlink:href="#mdb2247e6f2" x="617.029066" y="403.43245" style="stroke: #000000; stroke-width: 0.8"/>
      </g>
     </g>
    </g>
    <g id="ytick_5">
     <g id="line2d_49">
      <path d="M 617.029066 220.632866 
L 1137.966256 220.632866 
" clip-path="url(#pea923a51a5)" style="fill: none; stroke-dasharray: 0.8,1.32; stroke-dashoffset: 0; stroke: #b0b0b0; stroke-opacity: 0.4; stroke-width: 0.8"/>
     </g>
     <g id="line2d_50">
      <g>
       <use xlink:href="#mdb2247e6f2" x="617.029066" y="220.632866" style="stroke: #000000; stroke-width: 0.8"/>
      </g>
     </g>
    </g>
    <g id="ytick_6">
     <g id="line2d_51">
      <path d="M 617.029066 37.833282 
L 1137.966256 37.833282 
" clip-path="url(#pea923a51a5)" style="fill: none; stroke-dasharray: 0.8,1.32; stroke-dashoffset: 0; stroke: #b0b0b0; stroke-opacity: 0.4; stroke-width: 0.8"/>
     </g>
     <g id="line2d_52">
      <g>
       <use xlink:href="#mdb2247e6f2" x="617.029066" y="37.833282" style="stroke: #000000; stroke-width: 0.8"/>
      </g>
     </g>
    </g>
   </g>
   <g id="line2d_53">
    <path d="M 640.708029 139.701503 
L 759.102845 158.848745 
L 828.359373 200.223787 
L 877.497661 252.231453 
L 946.754189 358.102695 
L 995.892477 333.423979 
L 1065.149005 335.223193 
L 1114.287293 354.050712 
" clip-path="url(#pea923a51a5)" style="fill: none; stroke: #a5c6df; stroke-width: 2; stroke-linecap: square"/>
    <g clip-path="url(#pea923a51a5)">
     <use xlink:href="#md49e5db141" x="640.708029" y="139.701503" style="fill: #a5c6df; stroke: #a5c6df"/>
     <use xlink:href="#md49e5db141" x="759.102845" y="158.848745" style="fill: #a5c6df; stroke: #a5c6df"/>
     <use xlink:href="#md49e5db141" x="828.359373" y="200.223787" style="fill: #a5c6df; stroke: #a5c6df"/>
     <use xlink:href="#md49e5db141" x="877.497661" y="252.231453" style="fill: #a5c6df; stroke: #a5c6df"/>
     <use xlink:href="#md49e5db141" x="946.754189" y="358.102695" style="fill: #a5c6df; stroke: #a5c6df"/>
     <use xlink:href="#md49e5db141" x="995.892477" y="333.423979" style="fill: #a5c6df; stroke: #a5c6df"/>
     <use xlink:href="#md49e5db141" x="1065.149005" y="335.223193" style="fill: #a5c6df; stroke: #a5c6df"/>
     <use xlink:href="#md49e5db141" x="1114.287293" y="354.050712" style="fill: #a5c6df; stroke: #a5c6df"/>
    </g>
   </g>
   <g id="line2d_54">
    <path d="M 640.708029 120.135031 
L 759.102845 110.333716 
L 828.359373 175.609964 
L 877.497661 215.526443 
L 946.754189 311.856993 
L 995.892477 296.099462 
L 1065.149005 300.844413 
L 1114.287293 321.187423 
" clip-path="url(#pea923a51a5)" style="fill: none; stroke: #8bbde8; stroke-width: 2; stroke-linecap: square"/>
    <g clip-path="url(#pea923a51a5)">
     <use xlink:href="#m200262a205" x="640.708029" y="120.135031" style="fill: #8bbde8; stroke: #8bbde8"/>
     <use xlink:href="#m200262a205" x="759.102845" y="110.333716" style="fill: #8bbde8; stroke: #8bbde8"/>
     <use xlink:href="#m200262a205" x="828.359373" y="175.609964" style="fill: #8bbde8; stroke: #8bbde8"/>
     <use xlink:href="#m200262a205" x="877.497661" y="215.526443" style="fill: #8bbde8; stroke: #8bbde8"/>
     <use xlink:href="#m200262a205" x="946.754189" y="311.856993" style="fill: #8bbde8; stroke: #8bbde8"/>
     <use xlink:href="#m200262a205" x="995.892477" y="296.099462" style="fill: #8bbde8; stroke: #8bbde8"/>
     <use xlink:href="#m200262a205" x="1065.149005" y="300.844413" style="fill: #8bbde8; stroke: #8bbde8"/>
     <use xlink:href="#m200262a205" x="1114.287293" y="321.187423" style="fill: #8bbde8; stroke: #8bbde8"/>
    </g>
   </g>
   <g id="line2d_55">
    <path d="M 640.708029 175.729467 
L 759.102845 168.731977 
L 828.359373 199.191925 
L 877.497661 235.987093 
L 946.754189 351.930852 
L 995.892477 333.546515 
L 1065.149005 328.787821 
L 1114.287293 346.544754 
" clip-path="url(#pea923a51a5)" style="fill: none; stroke: #4e9ae1; stroke-width: 2; stroke-linecap: square"/>
    <g clip-path="url(#pea923a51a5)">
     <use xlink:href="#mfcc031de18" x="640.708029" y="175.729467" style="fill: #4e9ae1; stroke: #4e9ae1"/>
     <use xlink:href="#mfcc031de18" x="759.102845" y="168.731977" style="fill: #4e9ae1; stroke: #4e9ae1"/>
     <use xlink:href="#mfcc031de18" x="828.359373" y="199.191925" style="fill: #4e9ae1; stroke: #4e9ae1"/>
     <use xlink:href="#mfcc031de18" x="877.497661" y="235.987093" style="fill: #4e9ae1; stroke: #4e9ae1"/>
     <use xlink:href="#mfcc031de18" x="946.754189" y="351.930852" style="fill: #4e9ae1; stroke: #4e9ae1"/>
     <use xlink:href="#mfcc031de18" x="995.892477" y="333.546515" style="fill: #4e9ae1; stroke: #4e9ae1"/>
     <use xlink:href="#mfcc031de18" x="1065.149005" y="328.787821" style="fill: #4e9ae1; stroke: #4e9ae1"/>
     <use xlink:href="#mfcc031de18" x="1114.287293" y="346.544754" style="fill: #4e9ae1; stroke: #4e9ae1"/>
    </g>
   </g>
   <g id="line2d_56">
    <path d="M 640.708029 129.026441 
L 759.102845 169.172135 
L 828.359373 193.032528 
L 877.497661 225.445378 
L 946.754189 345.866696 
L 995.892477 318.492027 
L 1065.149005 330.915056 
L 1114.287293 348.598369 
" clip-path="url(#pea923a51a5)" style="fill: none; stroke: #4d7b9e; stroke-width: 2; stroke-linecap: square"/>
    <g clip-path="url(#pea923a51a5)">
     <use xlink:href="#m66b6047041" x="640.708029" y="129.026441" style="fill: #4d7b9e; stroke: #4d7b9e"/>
     <use xlink:href="#m66b6047041" x="759.102845" y="169.172135" style="fill: #4d7b9e; stroke: #4d7b9e"/>
     <use xlink:href="#m66b6047041" x="828.359373" y="193.032528" style="fill: #4d7b9e; stroke: #4d7b9e"/>
     <use xlink:href="#m66b6047041" x="877.497661" y="225.445378" style="fill: #4d7b9e; stroke: #4d7b9e"/>
     <use xlink:href="#m66b6047041" x="946.754189" y="345.866696" style="fill: #4d7b9e; stroke: #4d7b9e"/>
     <use xlink:href="#m66b6047041" x="995.892477" y="318.492027" style="fill: #4d7b9e; stroke: #4d7b9e"/>
     <use xlink:href="#m66b6047041" x="1065.149005" y="330.915056" style="fill: #4d7b9e; stroke: #4d7b9e"/>
     <use xlink:href="#m66b6047041" x="1114.287293" y="348.598369" style="fill: #4d7b9e; stroke: #4d7b9e"/>
    </g>
   </g>
   <g id="line2d_57">
    <path d="M 640.708029 144.739167 
L 759.102845 158.781116 
L 828.359373 197.677807 
L 877.497661 234.640478 
L 946.754189 338.659002 
L 995.892477 321.30642 
L 1065.149005 314.21122 
L 1114.287293 332.507608 
" clip-path="url(#pea923a51a5)" style="fill: none; stroke: #4f5f6b; stroke-width: 2; stroke-linecap: square"/>
    <g clip-path="url(#pea923a51a5)">
     <use xlink:href="#mce0cf7d2ac" x="640.708029" y="144.739167" style="fill: #4f5f6b; stroke: #4f5f6b"/>
     <use xlink:href="#mce0cf7d2ac" x="759.102845" y="158.781116" style="fill: #4f5f6b; stroke: #4f5f6b"/>
     <use xlink:href="#mce0cf7d2ac" x="828.359373" y="197.677807" style="fill: #4f5f6b; stroke: #4f5f6b"/>
     <use xlink:href="#mce0cf7d2ac" x="877.497661" y="234.640478" style="fill: #4f5f6b; stroke: #4f5f6b"/>
     <use xlink:href="#mce0cf7d2ac" x="946.754189" y="338.659002" style="fill: #4f5f6b; stroke: #4f5f6b"/>
     <use xlink:href="#mce0cf7d2ac" x="995.892477" y="321.30642" style="fill: #4f5f6b; stroke: #4f5f6b"/>
     <use xlink:href="#mce0cf7d2ac" x="1065.149005" y="314.21122" style="fill: #4f5f6b; stroke: #4f5f6b"/>
     <use xlink:href="#mce0cf7d2ac" x="1114.287293" y="332.507608" style="fill: #4f5f6b; stroke: #4f5f6b"/>
    </g>
   </g>
   <g id="line2d_58">
    <path d="M 640.708029 103.096576 
L 759.102845 114.706339 
L 828.359373 175.285697 
L 877.497661 205.856844 
L 946.754189 302.444353 
L 995.892477 301.50913 
L 1065.149005 308.327034 
L 1114.287293 328.39756 
" clip-path="url(#pea923a51a5)" style="fill: none; stroke: #857255; stroke-width: 2; stroke-linecap: square"/>
    <g clip-path="url(#pea923a51a5)">
     <use xlink:href="#mab2ca29985" x="640.708029" y="103.096576" style="fill: #857255; stroke: #857255"/>
     <use xlink:href="#mab2ca29985" x="759.102845" y="114.706339" style="fill: #857255; stroke: #857255"/>
     <use xlink:href="#mab2ca29985" x="828.359373" y="175.285697" style="fill: #857255; stroke: #857255"/>
     <use xlink:href="#mab2ca29985" x="877.497661" y="205.856844" style="fill: #857255; stroke: #857255"/>
     <use xlink:href="#mab2ca29985" x="946.754189" y="302.444353" style="fill: #857255; stroke: #857255"/>
     <use xlink:href="#mab2ca29985" x="995.892477" y="301.50913" style="fill: #857255; stroke: #857255"/>
     <use xlink:href="#mab2ca29985" x="1065.149005" y="308.327034" style="fill: #857255; stroke: #857255"/>
     <use xlink:href="#mab2ca29985" x="1114.287293" y="328.39756" style="fill: #857255; stroke: #857255"/>
    </g>
   </g>
   <g id="line2d_59">
    <path d="M 640.708029 125.85093 
L 759.102845 131.718086 
L 828.359373 193.329768 
L 877.497661 226.632336 
L 946.754189 275.668281 
L 995.892477 308.442407 
L 1065.149005 285.739426 
L 1114.287293 347.01289 
" clip-path="url(#pea923a51a5)" style="fill: none; stroke: #e3b064; stroke-width: 2; stroke-linecap: square"/>
    <g clip-path="url(#pea923a51a5)">
     <use xlink:href="#m39c14a0a14" x="640.708029" y="125.85093" style="fill: #e3b064; stroke: #e3b064"/>
     <use xlink:href="#m39c14a0a14" x="759.102845" y="131.718086" style="fill: #e3b064; stroke: #e3b064"/>
     <use xlink:href="#m39c14a0a14" x="828.359373" y="193.329768" style="fill: #e3b064; stroke: #e3b064"/>
     <use xlink:href="#m39c14a0a14" x="877.497661" y="226.632336" style="fill: #e3b064; stroke: #e3b064"/>
     <use xlink:href="#m39c14a0a14" x="946.754189" y="275.668281" style="fill: #e3b064; stroke: #e3b064"/>
     <use xlink:href="#m39c14a0a14" x="995.892477" y="308.442407" style="fill: #e3b064; stroke: #e3b064"/>
     <use xlink:href="#m39c14a0a14" x="1065.149005" y="285.739426" style="fill: #e3b064; stroke: #e3b064"/>
     <use xlink:href="#m39c14a0a14" x="1114.287293" y="347.01289" style="fill: #e3b064; stroke: #e3b064"/>
    </g>
   </g>
   <g id="line2d_60">
    <path d="M 640.708029 149.627917 
L 759.102845 156.301303 
L 828.359373 189.288589 
L 877.497661 207.050136 
L 946.754189 289.671414 
L 995.892477 282.815848 
L 1065.149005 290.9588 
L 1114.287293 304.404903 
" clip-path="url(#pea923a51a5)" style="fill: none; stroke: #eba538; stroke-width: 2; stroke-linecap: square"/>
    <g clip-path="url(#pea923a51a5)">
     <use xlink:href="#m47c7f4fa01" x="640.708029" y="149.627917" style="fill: #eba538; stroke: #eba538"/>
     <use xlink:href="#m47c7f4fa01" x="759.102845" y="156.301303" style="fill: #eba538; stroke: #eba538"/>
     <use xlink:href="#m47c7f4fa01" x="828.359373" y="189.288589" style="fill: #eba538; stroke: #eba538"/>
     <use xlink:href="#m47c7f4fa01" x="877.497661" y="207.050136" style="fill: #eba538; stroke: #eba538"/>
     <use xlink:href="#m47c7f4fa01" x="946.754189" y="289.671414" style="fill: #eba538; stroke: #eba538"/>
     <use xlink:href="#m47c7f4fa01" x="995.892477" y="282.815848" style="fill: #eba538; stroke: #eba538"/>
     <use xlink:href="#m47c7f4fa01" x="1065.149005" y="290.9588" style="fill: #eba538; stroke: #eba538"/>
     <use xlink:href="#m47c7f4fa01" x="1114.287293" y="304.404903" style="fill: #eba538; stroke: #eba538"/>
    </g>
   </g>
   <g id="patch_8">
    <path d="M 617.029066 440.596563 
L 617.029066 33.916563 
" style="fill: none; stroke: #000000; stroke-width: 0.8; stroke-linejoin: miter; stroke-linecap: square"/>
   </g>
   <g id="patch_9">
    <path d="M 1137.966256 440.596563 
L 1137.966256 33.916563 
" style="fill: none; stroke: #000000; stroke-width: 0.8; stroke-linejoin: miter; stroke-linecap: square"/>
   </g>
   <g id="patch_10">
    <path d="M 617.029066 440.596562 
L 1137.966256 440.596562 
" style="fill: none; stroke: #000000; stroke-width: 0.8; stroke-linejoin: miter; stroke-linecap: square"/>
   </g>
   <g id="patch_11">
    <path d="M 617.029066 33.916562 
L 1137.966256 33.916562 
" style="fill: none; stroke: #000000; stroke-width: 0.8; stroke-linejoin: miter; stroke-linecap: square"/>
   </g>
   <g id="text_24">
    <!-- TE polarization -->
    <g transform="translate(784.587192 23.916562) scale(0.22 -0.22)">
     <defs>
      <path id="DejaVuSans-Bold-45" d="M 588 4666 
L 3834 4666 
L 3834 3756 
L 1791 3756 
L 1791 2888 
L 3713 2888 
L 3713 1978 
L 1791 1978 
L 1791 909 
L 3903 909 
L 3903 0 
L 588 0 
L 588 4666 
z
" transform="scale(0.015625)"/>
     </defs>
     <use xlink:href="#DejaVuSans-Bold-54"/>
     <use xlink:href="#DejaVuSans-Bold-45" transform="translate(68.212891 0)"/>
     <use xlink:href="#DejaVuSans-Bold-20" transform="translate(136.523438 0)"/>
     <use xlink:href="#DejaVuSans-Bold-70" transform="translate(171.337891 0)"/>
     <use xlink:href="#DejaVuSans-Bold-6f" transform="translate(242.919922 0)"/>
     <use xlink:href="#DejaVuSans-Bold-6c" transform="translate(311.621094 0)"/>
     <use xlink:href="#DejaVuSans-Bold-61" transform="translate(345.898438 0)"/>
     <use xlink:href="#DejaVuSans-Bold-72" transform="translate(413.378906 0)"/>
     <use xlink:href="#DejaVuSans-Bold-69" transform="translate(462.695312 0)"/>
     <use xlink:href="#DejaVuSans-Bold-7a" transform="translate(496.972656 0)"/>
     <use xlink:href="#DejaVuSans-Bold-61" transform="translate(555.175781 0)"/>
     <use xlink:href="#DejaVuSans-Bold-74" transform="translate(622.65625 0)"/>
     <use xlink:href="#DejaVuSans-Bold-69" transform="translate(670.458984 0)"/>
     <use xlink:href="#DejaVuSans-Bold-6f" transform="translate(704.736328 0)"/>
     <use xlink:href="#DejaVuSans-Bold-6e" transform="translate(773.4375 0)"/>
    </g>
   </g>
   <g id="legend_1">
    <g id="patch_12">
     <path d="M 886.076256 140.656562 
L 1126.766256 140.656562 
Q 1129.966256 140.656562 1129.966256 137.456562 
L 1129.966256 45.116562 
Q 1129.966256 41.916562 1126.766256 41.916562 
L 886.076256 41.916562 
Q 882.876256 41.916562 882.876256 45.116562 
L 882.876256 137.456562 
Q 882.876256 140.656562 886.076256 140.656562 
z
" style="fill: #ffffff; opacity: 0.8; stroke: #cccccc; stroke-linejoin: miter"/>
    </g>
    <g id="line2d_61">
     <path d="M 889.276256 54.874062 
L 905.276256 54.874062 
L 921.276256 54.874062 
" style="fill: none; stroke: #a5c6df; stroke-width: 2; stroke-linecap: square"/>
     <g>
      <use xlink:href="#md49e5db141" x="905.276256" y="54.874062" style="fill: #a5c6df; stroke: #a5c6df"/>
     </g>
    </g>
    <g id="text_25">
     <!-- Band 1 -->
     <g transform="translate(934.076256 60.474062) scale(0.16 -0.16)">
      <defs>
       <path id="DejaVuSans-42" d="M 1259 2228 
L 1259 519 
L 2272 519 
Q 2781 519 3026 730 
Q 3272 941 3272 1375 
Q 3272 1813 3026 2020 
Q 2781 2228 2272 2228 
L 1259 2228 
z
M 1259 4147 
L 1259 2741 
L 2194 2741 
Q 2656 2741 2882 2914 
Q 3109 3088 3109 3444 
Q 3109 3797 2882 3972 
Q 2656 4147 2194 4147 
L 1259 4147 
z
M 628 4666 
L 2241 4666 
Q 2963 4666 3353 4366 
Q 3744 4066 3744 3513 
Q 3744 3084 3544 2831 
Q 3344 2578 2956 2516 
Q 3422 2416 3680 2098 
Q 3938 1781 3938 1306 
Q 3938 681 3513 340 
Q 3088 0 2303 0 
L 628 0 
L 628 4666 
z
" transform="scale(0.015625)"/>
      </defs>
      <use xlink:href="#DejaVuSans-42"/>
      <use xlink:href="#DejaVuSans-61" transform="translate(68.603516 0)"/>
      <use xlink:href="#DejaVuSans-6e" transform="translate(129.882812 0)"/>
      <use xlink:href="#DejaVuSans-64" transform="translate(193.261719 0)"/>
      <use xlink:href="#DejaVuSans-20" transform="translate(256.738281 0)"/>
      <use xlink:href="#DejaVuSans-31" transform="translate(288.525391 0)"/>
     </g>
    </g>
    <g id="line2d_62">
     <path d="M 889.276256 78.359062 
L 905.276256 78.359062 
L 921.276256 78.359062 
" style="fill: none; stroke: #8bbde8; stroke-width: 2; stroke-linecap: square"/>
     <g>
      <use xlink:href="#m200262a205" x="905.276256" y="78.359062" style="fill: #8bbde8; stroke: #8bbde8"/>
     </g>
    </g>
    <g id="text_26">
     <!-- Band 2 -->
     <g transform="translate(934.076256 83.959062) scale(0.16 -0.16)">
      <use xlink:href="#DejaVuSans-42"/>
      <use xlink:href="#DejaVuSans-61" transform="translate(68.603516 0)"/>
      <use xlink:href="#DejaVuSans-6e" transform="translate(129.882812 0)"/>
      <use xlink:href="#DejaVuSans-64" transform="translate(193.261719 0)"/>
      <use xlink:href="#DejaVuSans-20" transform="translate(256.738281 0)"/>
      <use xlink:href="#DejaVuSans-32" transform="translate(288.525391 0)"/>
     </g>
    </g>
    <g id="line2d_63">
     <path d="M 889.276256 101.844062 
L 905.276256 101.844062 
L 921.276256 101.844062 
" style="fill: none; stroke: #4e9ae1; stroke-width: 2; stroke-linecap: square"/>
     <g>
      <use xlink:href="#mfcc031de18" x="905.276256" y="101.844062" style="fill: #4e9ae1; stroke: #4e9ae1"/>
     </g>
    </g>
    <g id="text_27">
     <!-- Band 3 -->
     <g transform="translate(934.076256 107.444062) scale(0.16 -0.16)">
      <use xlink:href="#DejaVuSans-42"/>
      <use xlink:href="#DejaVuSans-61" transform="translate(68.603516 0)"/>
      <use xlink:href="#DejaVuSans-6e" transform="translate(129.882812 0)"/>
      <use xlink:href="#DejaVuSans-64" transform="translate(193.261719 0)"/>
      <use xlink:href="#DejaVuSans-20" transform="translate(256.738281 0)"/>
      <use xlink:href="#DejaVuSans-33" transform="translate(288.525391 0)"/>
     </g>
    </g>
    <g id="line2d_64">
     <path d="M 889.276256 125.329062 
L 905.276256 125.329062 
L 921.276256 125.329062 
" style="fill: none; stroke: #4d7b9e; stroke-width: 2; stroke-linecap: square"/>
     <g>
      <use xlink:href="#m66b6047041" x="905.276256" y="125.329062" style="fill: #4d7b9e; stroke: #4d7b9e"/>
     </g>
    </g>
    <g id="text_28">
     <!-- Band 4 -->
     <g transform="translate(934.076256 130.929062) scale(0.16 -0.16)">
      <use xlink:href="#DejaVuSans-42"/>
      <use xlink:href="#DejaVuSans-61" transform="translate(68.603516 0)"/>
      <use xlink:href="#DejaVuSans-6e" transform="translate(129.882812 0)"/>
      <use xlink:href="#DejaVuSans-64" transform="translate(193.261719 0)"/>
      <use xlink:href="#DejaVuSans-20" transform="translate(256.738281 0)"/>
      <use xlink:href="#DejaVuSans-34" transform="translate(288.525391 0)"/>
     </g>
    </g>
    <g id="line2d_65">
     <path d="M 1022.421256 54.874062 
L 1038.421256 54.874062 
L 1054.421256 54.874062 
" style="fill: none; stroke: #4f5f6b; stroke-width: 2; stroke-linecap: square"/>
     <g>
      <use xlink:href="#mce0cf7d2ac" x="1038.421256" y="54.874062" style="fill: #4f5f6b; stroke: #4f5f6b"/>
     </g>
    </g>
    <g id="text_29">
     <!-- Band 5 -->
     <g transform="translate(1067.221256 60.474062) scale(0.16 -0.16)">
      <use xlink:href="#DejaVuSans-42"/>
      <use xlink:href="#DejaVuSans-61" transform="translate(68.603516 0)"/>
      <use xlink:href="#DejaVuSans-6e" transform="translate(129.882812 0)"/>
      <use xlink:href="#DejaVuSans-64" transform="translate(193.261719 0)"/>
      <use xlink:href="#DejaVuSans-20" transform="translate(256.738281 0)"/>
      <use xlink:href="#DejaVuSans-35" transform="translate(288.525391 0)"/>
     </g>
    </g>
    <g id="line2d_66">
     <path d="M 1022.421256 78.359062 
L 1038.421256 78.359062 
L 1054.421256 78.359062 
" style="fill: none; stroke: #857255; stroke-width: 2; stroke-linecap: square"/>
     <g>
      <use xlink:href="#mab2ca29985" x="1038.421256" y="78.359062" style="fill: #857255; stroke: #857255"/>
     </g>
    </g>
    <g id="text_30">
     <!-- Band 6 -->
     <g transform="translate(1067.221256 83.959062) scale(0.16 -0.16)">
      <use xlink:href="#DejaVuSans-42"/>
      <use xlink:href="#DejaVuSans-61" transform="translate(68.603516 0)"/>
      <use xlink:href="#DejaVuSans-6e" transform="translate(129.882812 0)"/>
      <use xlink:href="#DejaVuSans-64" transform="translate(193.261719 0)"/>
      <use xlink:href="#DejaVuSans-20" transform="translate(256.738281 0)"/>
      <use xlink:href="#DejaVuSans-36" transform="translate(288.525391 0)"/>
     </g>
    </g>
    <g id="line2d_67">
     <path d="M 1022.421256 101.844062 
L 1038.421256 101.844062 
L 1054.421256 101.844062 
" style="fill: none; stroke: #e3b064; stroke-width: 2; stroke-linecap: square"/>
     <g>
      <use xlink:href="#m39c14a0a14" x="1038.421256" y="101.844062" style="fill: #e3b064; stroke: #e3b064"/>
     </g>
    </g>
    <g id="text_31">
     <!-- Band 7 -->
     <g transform="translate(1067.221256 107.444062) scale(0.16 -0.16)">
      <defs>
       <path id="DejaVuSans-37" d="M 525 4666 
L 3525 4666 
L 3525 4397 
L 1831 0 
L 1172 0 
L 2766 4134 
L 525 4134 
L 525 4666 
z
" transform="scale(0.015625)"/>
      </defs>
      <use xlink:href="#DejaVuSans-42"/>
      <use xlink:href="#DejaVuSans-61" transform="translate(68.603516 0)"/>
      <use xlink:href="#DejaVuSans-6e" transform="translate(129.882812 0)"/>
      <use xlink:href="#DejaVuSans-64" transform="translate(193.261719 0)"/>
      <use xlink:href="#DejaVuSans-20" transform="translate(256.738281 0)"/>
      <use xlink:href="#DejaVuSans-37" transform="translate(288.525391 0)"/>
     </g>
    </g>
    <g id="line2d_68">
     <path d="M 1022.421256 125.329062 
L 1038.421256 125.329062 
L 1054.421256 125.329062 
" style="fill: none; stroke: #eba538; stroke-width: 2; stroke-linecap: square"/>
     <g>
      <use xlink:href="#m47c7f4fa01" x="1038.421256" y="125.329062" style="fill: #eba538; stroke: #eba538"/>
     </g>
    </g>
    <g id="text_32">
     <!-- Band 8 -->
     <g transform="translate(1067.221256 130.929062) scale(0.16 -0.16)">
      <use xlink:href="#DejaVuSans-42"/>
      <use xlink:href="#DejaVuSans-61" transform="translate(68.603516 0)"/>
      <use xlink:href="#DejaVuSans-6e" transform="translate(129.882812 0)"/>
      <use xlink:href="#DejaVuSans-64" transform="translate(193.261719 0)"/>
      <use xlink:href="#DejaVuSans-20" transform="translate(256.738281 0)"/>
      <use xlink:href="#DejaVuSans-38" transform="translate(288.525391 0)"/>
     </g>
    </g>
   </g>
  </g>
 </g>
 <defs>
  <clipPath id="pb829ba8682">
   <rect x="81.791875" y="33.916562" width="520.937191" height="406.68"/>
  </clipPath>
  <clipPath id="pea923a51a5">
   <rect x="617.029066" y="33.916562" width="520.937191" height="406.68"/>
  </clipPath>
 </defs>
</svg>
