<?xml version="1.0" encoding="utf-8" standalone="no"?>
<!DOCTYPE svg PUBLIC "-//W3C//DTD SVG 1.1//EN"
  "http://www.w3.org/Graphics/SVG/1.1/DTD/svg11.dtd">
<svg xmlns:xlink="http://www.w3.org/1999/xlink" width="494.81712pt" height="383.21875pt" viewBox="0 0 494.81712 383.21875" xmlns="http://www.w3.org/2000/svg" version="1.1">
 <metadata>
  <rdf:RDF xmlns:dc="http://purl.org/dc/elements/1.1/" xmlns:cc="http://creativecommons.org/ns#" xmlns:rdf="http://www.w3.org/1999/02/22-rdf-syntax-ns#">
   <cc:Work>
    <dc:type rdf:resource="http://purl.org/dc/dcmitype/StillImage"/>
    <dc:date>2026-03-27T17:33:06.027338</dc:date>
    <dc:format>image/svg+xml</dc:format>
    <dc:creator>
     <cc:Agent>
      <dc:title>Matplotlib v3.10.8, https://matplotlib.org/</dc:title>
     </cc:Agent>
    </dc:creator>
   </cc:Work>
  </rdf:RDF>
 </metadata>
 <defs>
  <style type="text/css">*{stroke-linejoin: round; stroke-linecap: butt}</style>
 </defs>
 <g id="figure_1">
  <g id="patch_1">
   <path d="M 0 383.21875 
L 494.81712 383.21875 
L 494.81712 0 
L 0 0 
z
" style="fill: #ffffff"/>
  </g>
  <g id="axes_1">
   <g id="patch_2">
    <path d="M 64.235 336.757187 
L 487.61712 336.757187 
L 487.61712 30.877187 
L 64.235 30.877187 
z
" style="fill: #ffffff"/>
   </g>
   <g id="matplotlib.axis_1">
    <g id="xtick_1">
     <g id="line2d_1">
      <path d="M 117.484227 336.757187 
L 117.484227 30.877187 
" clip-path="url(#p587c6320c8)" style="fill: none; stroke: #b0b0b0; stroke-opacity: 0.2; stroke-width: 0.8; stroke-linecap: square"/>
     </g>
     <g id="line2d_2">
      <defs>
       <path id="m7b16b72ed7" d="M 0 0 
L 0 3.5 
" style="stroke: #000000; stroke-width: 0.8"/>
      </defs>
      <g>
       <use xlink:href="#m7b16b72ed7" x="117.484227" y="336.757187" style="stroke: #000000; stroke-width: 0.8"/>
      </g>
     </g>
     <g id="text_1">
      <!-- 1° -->
      <g transform="translate(110.098602 353.635156) scale(0.13 -0.13)">
       <defs>
        <path id="DejaVuSans-31" d="M 794 531 
L 1825 531 
L 1825 4091 
L 703 3866 
L 703 4441 
L 1819 4666 
L 2450 4666 
L 2450 531 
L 3481 531 
L 3481 0 
L 794 0 
L 794 531 
z
" transform="scale(0.015625)"/>
        <path id="DejaVuSans-b0" d="M 1600 4347 
Q 1350 4347 1178 4173 
Q 1006 4000 1006 3750 
Q 1006 3503 1178 3333 
Q 1350 3163 1600 3163 
Q 1850 3163 2022 3333 
Q 2194 3503 2194 3750 
Q 2194 3997 2020 4172 
Q 1847 4347 1600 4347 
z
M 1600 4750 
Q 1800 4750 1984 4673 
Q 2169 4597 2303 4453 
Q 2447 4313 2519 4134 
Q 2591 3956 2591 3750 
Q 2591 3338 2302 3052 
Q 2013 2766 1594 2766 
Q 1172 2766 890 3047 
Q 609 3328 609 3750 
Q 609 4169 896 4459 
Q 1184 4750 1600 4750 
z
" transform="scale(0.015625)"/>
       </defs>
       <use xlink:href="#DejaVuSans-31"/>
       <use xlink:href="#DejaVuSans-b0" transform="translate(63.623047 0)"/>
      </g>
     </g>
    </g>
    <g id="xtick_2">
     <g id="line2d_3">
      <path d="M 223.112116 336.757187 
L 223.112116 30.877187 
" clip-path="url(#p587c6320c8)" style="fill: none; stroke: #b0b0b0; stroke-opacity: 0.2; stroke-width: 0.8; stroke-linecap: square"/>
     </g>
     <g id="line2d_4">
      <g>
       <use xlink:href="#m7b16b72ed7" x="223.112116" y="336.757187" style="stroke: #000000; stroke-width: 0.8"/>
      </g>
     </g>
     <g id="text_2">
      <!-- 2° -->
      <g transform="translate(215.726491 353.635156) scale(0.13 -0.13)">
       <defs>
        <path id="DejaVuSans-32" d="M 1228 531 
L 3431 531 
L 3431 0 
L 469 0 
L 469 531 
Q 828 903 1448 1529 
Q 2069 2156 2228 2338 
Q 2531 2678 2651 2914 
Q 2772 3150 2772 3378 
Q 2772 3750 2511 3984 
Q 2250 4219 1831 4219 
Q 1534 4219 1204 4116 
Q 875 4013 500 3803 
L 500 4441 
Q 881 4594 1212 4672 
Q 1544 4750 1819 4750 
Q 2544 4750 2975 4387 
Q 3406 4025 3406 3419 
Q 3406 3131 3298 2873 
Q 3191 2616 2906 2266 
Q 2828 2175 2409 1742 
Q 1991 1309 1228 531 
z
" transform="scale(0.015625)"/>
       </defs>
       <use xlink:href="#DejaVuSans-32"/>
       <use xlink:href="#DejaVuSans-b0" transform="translate(63.623047 0)"/>
      </g>
     </g>
    </g>
    <g id="xtick_3">
     <g id="line2d_5">
      <path d="M 328.740005 336.757187 
L 328.740005 30.877187 
" clip-path="url(#p587c6320c8)" style="fill: none; stroke: #b0b0b0; stroke-opacity: 0.2; stroke-width: 0.8; stroke-linecap: square"/>
     </g>
     <g id="line2d_6">
      <g>
       <use xlink:href="#m7b16b72ed7" x="328.740005" y="336.757187" style="stroke: #000000; stroke-width: 0.8"/>
      </g>
     </g>
     <g id="text_3">
      <!-- 4° -->
      <g transform="translate(321.35438 353.635156) scale(0.13 -0.13)">
       <defs>
        <path id="DejaVuSans-34" d="M 2419 4116 
L 825 1625 
L 2419 1625 
L 2419 4116 
z
M 2253 4666 
L 3047 4666 
L 3047 1625 
L 3713 1625 
L 3713 1100 
L 3047 1100 
L 3047 0 
L 2419 0 
L 2419 1100 
L 313 1100 
L 313 1709 
L 2253 4666 
z
" transform="scale(0.015625)"/>
       </defs>
       <use xlink:href="#DejaVuSans-34"/>
       <use xlink:href="#DejaVuSans-b0" transform="translate(63.623047 0)"/>
      </g>
     </g>
    </g>
    <g id="xtick_4">
     <g id="line2d_7">
      <path d="M 434.367894 336.757187 
L 434.367894 30.877187 
" clip-path="url(#p587c6320c8)" style="fill: none; stroke: #b0b0b0; stroke-opacity: 0.2; stroke-width: 0.8; stroke-linecap: square"/>
     </g>
     <g id="line2d_8">
      <g>
       <use xlink:href="#m7b16b72ed7" x="434.367894" y="336.757187" style="stroke: #000000; stroke-width: 0.8"/>
      </g>
     </g>
     <g id="text_4">
      <!-- 8° -->
      <g transform="translate(426.982269 353.635156) scale(0.13 -0.13)">
       <defs>
        <path id="DejaVuSans-38" d="M 2034 2216 
Q 1584 2216 1326 1975 
Q 1069 1734 1069 1313 
Q 1069 891 1326 650 
Q 1584 409 2034 409 
Q 2484 409 2743 651 
Q 3003 894 3003 1313 
Q 3003 1734 2745 1975 
Q 2488 2216 2034 2216 
z
M 1403 2484 
Q 997 2584 770 2862 
Q 544 3141 544 3541 
Q 544 4100 942 4425 
Q 1341 4750 2034 4750 
Q 2731 4750 3128 4425 
Q 3525 4100 3525 3541 
Q 3525 3141 3298 2862 
Q 3072 2584 2669 2484 
Q 3125 2378 3379 2068 
Q 3634 1759 3634 1313 
Q 3634 634 3220 271 
Q 2806 -91 2034 -91 
Q 1263 -91 848 271 
Q 434 634 434 1313 
Q 434 1759 690 2068 
Q 947 2378 1403 2484 
z
M 1172 3481 
Q 1172 3119 1398 2916 
Q 1625 2713 2034 2713 
Q 2441 2713 2670 2916 
Q 2900 3119 2900 3481 
Q 2900 3844 2670 4047 
Q 2441 4250 2034 4250 
Q 1625 4250 1398 4047 
Q 1172 3844 1172 3481 
z
" transform="scale(0.015625)"/>
       </defs>
       <use xlink:href="#DejaVuSans-38"/>
       <use xlink:href="#DejaVuSans-b0" transform="translate(63.623047 0)"/>
      </g>
     </g>
    </g>
    <g id="xtick_5">
     <g id="line2d_9">
      <path d="M 83.479642 336.757187 
L 83.479642 30.877187 
" clip-path="url(#p587c6320c8)" style="fill: none; stroke: #b0b0b0; stroke-opacity: 0.2; stroke-width: 0.8; stroke-linecap: square"/>
     </g>
     <g id="line2d_10">
      <defs>
       <path id="m278e0aa38e" d="M 0 0 
L 0 2 
" style="stroke: #000000; stroke-width: 0.6"/>
      </defs>
      <g>
       <use xlink:href="#m278e0aa38e" x="83.479642" y="336.757187" style="stroke: #000000; stroke-width: 0.6"/>
      </g>
     </g>
    </g>
    <g id="xtick_6">
     <g id="line2d_11">
      <path d="M 101.428461 336.757187 
L 101.428461 30.877187 
" clip-path="url(#p587c6320c8)" style="fill: none; stroke: #b0b0b0; stroke-opacity: 0.2; stroke-width: 0.8; stroke-linecap: square"/>
     </g>
     <g id="line2d_12">
      <g>
       <use xlink:href="#m278e0aa38e" x="101.428461" y="336.757187" style="stroke: #000000; stroke-width: 0.6"/>
      </g>
     </g>
    </g>
    <g id="xtick_7">
     <g id="line2d_13">
      <path d="M 284.90047 336.757187 
L 284.90047 30.877187 
" clip-path="url(#p587c6320c8)" style="fill: none; stroke: #b0b0b0; stroke-opacity: 0.2; stroke-width: 0.8; stroke-linecap: square"/>
     </g>
     <g id="line2d_14">
      <g>
       <use xlink:href="#m278e0aa38e" x="284.90047" y="336.757187" style="stroke: #000000; stroke-width: 0.6"/>
      </g>
     </g>
    </g>
    <g id="xtick_8">
     <g id="line2d_15">
      <path d="M 362.74459 336.757187 
L 362.74459 30.877187 
" clip-path="url(#p587c6320c8)" style="fill: none; stroke: #b0b0b0; stroke-opacity: 0.2; stroke-width: 0.8; stroke-linecap: square"/>
     </g>
     <g id="line2d_16">
      <g>
       <use xlink:href="#m278e0aa38e" x="362.74459" y="336.757187" style="stroke: #000000; stroke-width: 0.6"/>
      </g>
     </g>
    </g>
    <g id="xtick_9">
     <g id="line2d_17">
      <path d="M 390.528359 336.757187 
L 390.528359 30.877187 
" clip-path="url(#p587c6320c8)" style="fill: none; stroke: #b0b0b0; stroke-opacity: 0.2; stroke-width: 0.8; stroke-linecap: square"/>
     </g>
     <g id="line2d_18">
      <g>
       <use xlink:href="#m278e0aa38e" x="390.528359" y="336.757187" style="stroke: #000000; stroke-width: 0.6"/>
      </g>
     </g>
    </g>
    <g id="xtick_10">
     <g id="line2d_19">
      <path d="M 414.019201 336.757187 
L 414.019201 30.877187 
" clip-path="url(#p587c6320c8)" style="fill: none; stroke: #b0b0b0; stroke-opacity: 0.2; stroke-width: 0.8; stroke-linecap: square"/>
     </g>
     <g id="line2d_20">
      <g>
       <use xlink:href="#m278e0aa38e" x="414.019201" y="336.757187" style="stroke: #000000; stroke-width: 0.6"/>
      </g>
     </g>
    </g>
    <g id="xtick_11">
     <g id="line2d_21">
      <path d="M 452.316713 336.757187 
L 452.316713 30.877187 
" clip-path="url(#p587c6320c8)" style="fill: none; stroke: #b0b0b0; stroke-opacity: 0.2; stroke-width: 0.8; stroke-linecap: square"/>
     </g>
     <g id="line2d_22">
      <g>
       <use xlink:href="#m278e0aa38e" x="452.316713" y="336.757187" style="stroke: #000000; stroke-width: 0.6"/>
      </g>
     </g>
    </g>
    <g id="text_5">
     <!-- Twist angle $\theta$ (°) -->
     <g transform="translate(210.00606 372.65875) scale(0.16 -0.16)">
      <defs>
       <path id="DejaVuSans-54" d="M -19 4666 
L 3928 4666 
L 3928 4134 
L 2272 4134 
L 2272 0 
L 1638 0 
L 1638 4134 
L -19 4134 
L -19 4666 
z
" transform="scale(0.015625)"/>
       <path id="DejaVuSans-77" d="M 269 3500 
L 844 3500 
L 1563 769 
L 2278 3500 
L 2956 3500 
L 3675 769 
L 4391 3500 
L 4966 3500 
L 4050 0 
L 3372 0 
L 2619 2869 
L 1863 0 
L 1184 0 
L 269 3500 
z
" transform="scale(0.015625)"/>
       <path id="DejaVuSans-69" d="M 603 3500 
L 1178 3500 
L 1178 0 
L 603 0 
L 603 3500 
z
M 603 4863 
L 1178 4863 
L 1178 4134 
L 603 4134 
L 603 4863 
z
" transform="scale(0.015625)"/>
       <path id="DejaVuSans-73" d="M 2834 3397 
L 2834 2853 
Q 2591 2978 2328 3040 
Q 2066 3103 1784 3103 
Q 1356 3103 1142 2972 
Q 928 2841 928 2578 
Q 928 2378 1081 2264 
Q 1234 2150 1697 2047 
L 1894 2003 
Q 2506 1872 2764 1633 
Q 3022 1394 3022 966 
Q 3022 478 2636 193 
Q 2250 -91 1575 -91 
Q 1294 -91 989 -36 
Q 684 19 347 128 
L 347 722 
Q 666 556 975 473 
Q 1284 391 1588 391 
Q 1994 391 2212 530 
Q 2431 669 2431 922 
Q 2431 1156 2273 1281 
Q 2116 1406 1581 1522 
L 1381 1569 
Q 847 1681 609 1914 
Q 372 2147 372 2553 
Q 372 3047 722 3315 
Q 1072 3584 1716 3584 
Q 2034 3584 2315 3537 
Q 2597 3491 2834 3397 
z
" transform="scale(0.015625)"/>
       <path id="DejaVuSans-74" d="M 1172 4494 
L 1172 3500 
L 2356 3500 
L 2356 3053 
L 1172 3053 
L 1172 1153 
Q 1172 725 1289 603 
Q 1406 481 1766 481 
L 2356 481 
L 2356 0 
L 1766 0 
Q 1100 0 847 248 
Q 594 497 594 1153 
L 594 3053 
L 172 3053 
L 172 3500 
L 594 3500 
L 594 4494 
L 1172 4494 
z
" transform="scale(0.015625)"/>
       <path id="DejaVuSans-20" transform="scale(0.015625)"/>
       <path id="DejaVuSans-61" d="M 2194 1759 
Q 1497 1759 1228 1600 
Q 959 1441 959 1056 
Q 959 750 1161 570 
Q 1363 391 1709 391 
Q 2188 391 2477 730 
Q 2766 1069 2766 1631 
L 2766 1759 
L 2194 1759 
z
M 3341 1997 
L 3341 0 
L 2766 0 
L 2766 531 
Q 2569 213 2275 61 
Q 1981 -91 1556 -91 
Q 1019 -91 701 211 
Q 384 513 384 1019 
Q 384 1609 779 1909 
Q 1175 2209 1959 2209 
L 2766 2209 
L 2766 2266 
Q 2766 2663 2505 2880 
Q 2244 3097 1772 3097 
Q 1472 3097 1187 3025 
Q 903 2953 641 2809 
L 641 3341 
Q 956 3463 1253 3523 
Q 1550 3584 1831 3584 
Q 2591 3584 2966 3190 
Q 3341 2797 3341 1997 
z
" transform="scale(0.015625)"/>
       <path id="DejaVuSans-6e" d="M 3513 2113 
L 3513 0 
L 2938 0 
L 2938 2094 
Q 2938 2591 2744 2837 
Q 2550 3084 2163 3084 
Q 1697 3084 1428 2787 
Q 1159 2491 1159 1978 
L 1159 0 
L 581 0 
L 581 3500 
L 1159 3500 
L 1159 2956 
Q 1366 3272 1645 3428 
Q 1925 3584 2291 3584 
Q 2894 3584 3203 3211 
Q 3513 2838 3513 2113 
z
" transform="scale(0.015625)"/>
       <path id="DejaVuSans-67" d="M 2906 1791 
Q 2906 2416 2648 2759 
Q 2391 3103 1925 3103 
Q 1463 3103 1205 2759 
Q 947 2416 947 1791 
Q 947 1169 1205 825 
Q 1463 481 1925 481 
Q 2391 481 2648 825 
Q 2906 1169 2906 1791 
z
M 3481 434 
Q 3481 -459 3084 -895 
Q 2688 -1331 1869 -1331 
Q 1566 -1331 1297 -1286 
Q 1028 -1241 775 -1147 
L 775 -588 
Q 1028 -725 1275 -790 
Q 1522 -856 1778 -856 
Q 2344 -856 2625 -561 
Q 2906 -266 2906 331 
L 2906 616 
Q 2728 306 2450 153 
Q 2172 0 1784 0 
Q 1141 0 747 490 
Q 353 981 353 1791 
Q 353 2603 747 3093 
Q 1141 3584 1784 3584 
Q 2172 3584 2450 3431 
Q 2728 3278 2906 2969 
L 2906 3500 
L 3481 3500 
L 3481 434 
z
" transform="scale(0.015625)"/>
       <path id="DejaVuSans-6c" d="M 603 4863 
L 1178 4863 
L 1178 0 
L 603 0 
L 603 4863 
z
" transform="scale(0.015625)"/>
       <path id="DejaVuSans-65" d="M 3597 1894 
L 3597 1613 
L 953 1613 
Q 991 1019 1311 708 
Q 1631 397 2203 397 
Q 2534 397 2845 478 
Q 3156 559 3463 722 
L 3463 178 
Q 3153 47 2828 -22 
Q 2503 -91 2169 -91 
Q 1331 -91 842 396 
Q 353 884 353 1716 
Q 353 2575 817 3079 
Q 1281 3584 2069 3584 
Q 2775 3584 3186 3129 
Q 3597 2675 3597 1894 
z
M 3022 2063 
Q 3016 2534 2758 2815 
Q 2500 3097 2075 3097 
Q 1594 3097 1305 2825 
Q 1016 2553 972 2059 
L 3022 2063 
z
" transform="scale(0.015625)"/>
       <path id="DejaVuSans-Oblique-3b8" d="M 2913 2219 
L 925 2219 
Q 791 1284 928 888 
Q 1100 400 1566 400 
Q 2034 400 2391 891 
Q 2703 1322 2913 2219 
z
M 3009 2750 
Q 3094 3638 2984 3950 
Q 2813 4444 2353 4444 
Q 1875 4444 1525 3956 
Q 1250 3563 1034 2750 
L 3009 2750 
z
M 2444 4913 
Q 3194 4913 3494 4250 
Q 3794 3591 3566 2422 
Q 3341 1256 2781 594 
Q 2225 -72 1475 -72 
Q 722 -72 425 594 
Q 128 1256 353 2422 
Q 581 3591 1134 4250 
Q 1691 4913 2444 4913 
z
" transform="scale(0.015625)"/>
       <path id="DejaVuSans-28" d="M 1984 4856 
Q 1566 4138 1362 3434 
Q 1159 2731 1159 2009 
Q 1159 1288 1364 580 
Q 1569 -128 1984 -844 
L 1484 -844 
Q 1016 -109 783 600 
Q 550 1309 550 2009 
Q 550 2706 781 3412 
Q 1013 4119 1484 4856 
L 1984 4856 
z
" transform="scale(0.015625)"/>
       <path id="DejaVuSans-29" d="M 513 4856 
L 1013 4856 
Q 1481 4119 1714 3412 
Q 1947 2706 1947 2009 
Q 1947 1309 1714 600 
Q 1481 -109 1013 -844 
L 513 -844 
Q 928 -128 1133 580 
Q 1338 1288 1338 2009 
Q 1338 2731 1133 3434 
Q 928 4138 513 4856 
z
" transform="scale(0.015625)"/>
      </defs>
      <use xlink:href="#DejaVuSans-54" transform="translate(0 0.234375)"/>
      <use xlink:href="#DejaVuSans-77" transform="translate(61.083984 0.234375)"/>
      <use xlink:href="#DejaVuSans-69" transform="translate(142.871094 0.234375)"/>
      <use xlink:href="#DejaVuSans-73" transform="translate(170.654297 0.234375)"/>
      <use xlink:href="#DejaVuSans-74" transform="translate(222.753906 0.234375)"/>
      <use xlink:href="#DejaVuSans-20" transform="translate(261.962891 0.234375)"/>
      <use xlink:href="#DejaVuSans-61" transform="translate(293.75 0.234375)"/>
      <use xlink:href="#DejaVuSans-6e" transform="translate(355.029297 0.234375)"/>
      <use xlink:href="#DejaVuSans-67" transform="translate(418.408203 0.234375)"/>
      <use xlink:href="#DejaVuSans-6c" transform="translate(481.884766 0.234375)"/>
      <use xlink:href="#DejaVuSans-65" transform="translate(509.667969 0.234375)"/>
      <use xlink:href="#DejaVuSans-20" transform="translate(571.191406 0.234375)"/>
      <use xlink:href="#DejaVuSans-Oblique-3b8" transform="translate(602.978516 0.234375)"/>
      <use xlink:href="#DejaVuSans-20" transform="translate(664.160156 0.234375)"/>
      <use xlink:href="#DejaVuSans-28" transform="translate(695.947266 0.234375)"/>
      <use xlink:href="#DejaVuSans-b0" transform="translate(734.960938 0.234375)"/>
      <use xlink:href="#DejaVuSans-29" transform="translate(784.960938 0.234375)"/>
     </g>
    </g>
   </g>
   <g id="matplotlib.axis_2">
    <g id="ytick_1">
     <g id="line2d_23">
      <path d="M 64.235 259.470135 
L 487.61712 259.470135 
" clip-path="url(#p587c6320c8)" style="fill: none; stroke: #b0b0b0; stroke-opacity: 0.2; stroke-width: 0.8; stroke-linecap: square"/>
     </g>
     <g id="line2d_24">
      <defs>
       <path id="mef480a320e" d="M 0 0 
L -3.5 0 
" style="stroke: #000000; stroke-width: 0.8"/>
      </defs>
      <g>
       <use xlink:href="#mef480a320e" x="64.235" y="259.470135" style="stroke: #000000; stroke-width: 0.8"/>
      </g>
     </g>
     <g id="text_6">
      <!-- $\mathdefault{10^{-3}}$ -->
      <g transform="translate(26.685 264.409119) scale(0.13 -0.13)">
       <defs>
        <path id="DejaVuSans-30" d="M 2034 4250 
Q 1547 4250 1301 3770 
Q 1056 3291 1056 2328 
Q 1056 1369 1301 889 
Q 1547 409 2034 409 
Q 2525 409 2770 889 
Q 3016 1369 3016 2328 
Q 3016 3291 2770 3770 
Q 2525 4250 2034 4250 
z
M 2034 4750 
Q 2819 4750 3233 4129 
Q 3647 3509 3647 2328 
Q 3647 1150 3233 529 
Q 2819 -91 2034 -91 
Q 1250 -91 836 529 
Q 422 1150 422 2328 
Q 422 3509 836 4129 
Q 1250 4750 2034 4750 
z
" transform="scale(0.015625)"/>
        <path id="DejaVuSans-2212" d="M 678 2272 
L 4684 2272 
L 4684 1741 
L 678 1741 
L 678 2272 
z
" transform="scale(0.015625)"/>
        <path id="DejaVuSans-33" d="M 2597 2516 
Q 3050 2419 3304 2112 
Q 3559 1806 3559 1356 
Q 3559 666 3084 287 
Q 2609 -91 1734 -91 
Q 1441 -91 1130 -33 
Q 819 25 488 141 
L 488 750 
Q 750 597 1062 519 
Q 1375 441 1716 441 
Q 2309 441 2620 675 
Q 2931 909 2931 1356 
Q 2931 1769 2642 2001 
Q 2353 2234 1838 2234 
L 1294 2234 
L 1294 2753 
L 1863 2753 
Q 2328 2753 2575 2939 
Q 2822 3125 2822 3475 
Q 2822 3834 2567 4026 
Q 2313 4219 1838 4219 
Q 1578 4219 1281 4162 
Q 984 4106 628 3988 
L 628 4550 
Q 988 4650 1302 4700 
Q 1616 4750 1894 4750 
Q 2613 4750 3031 4423 
Q 3450 4097 3450 3541 
Q 3450 3153 3228 2886 
Q 3006 2619 2597 2516 
z
" transform="scale(0.015625)"/>
       </defs>
       <use xlink:href="#DejaVuSans-31" transform="translate(0 0.765625)"/>
       <use xlink:href="#DejaVuSans-30" transform="translate(63.623047 0.765625)"/>
       <use xlink:href="#DejaVuSans-2212" transform="translate(128.203125 39.046875) scale(0.7)"/>
       <use xlink:href="#DejaVuSans-33" transform="translate(186.855469 39.046875) scale(0.7)"/>
      </g>
     </g>
    </g>
    <g id="ytick_2">
     <g id="line2d_25">
      <path d="M 64.235 142.493676 
L 487.61712 142.493676 
" clip-path="url(#p587c6320c8)" style="fill: none; stroke: #b0b0b0; stroke-opacity: 0.2; stroke-width: 0.8; stroke-linecap: square"/>
     </g>
     <g id="line2d_26">
      <g>
       <use xlink:href="#mef480a320e" x="64.235" y="142.493676" style="stroke: #000000; stroke-width: 0.8"/>
      </g>
     </g>
     <g id="text_7">
      <!-- $\mathdefault{10^{-2}}$ -->
      <g transform="translate(26.685 147.43266) scale(0.13 -0.13)">
       <use xlink:href="#DejaVuSans-31" transform="translate(0 0.765625)"/>
       <use xlink:href="#DejaVuSans-30" transform="translate(63.623047 0.765625)"/>
       <use xlink:href="#DejaVuSans-2212" transform="translate(128.203125 39.046875) scale(0.7)"/>
       <use xlink:href="#DejaVuSans-32" transform="translate(186.855469 39.046875) scale(0.7)"/>
      </g>
     </g>
    </g>
    <g id="ytick_3">
     <g id="line2d_27">
      <path d="M 64.235 320.634639 
L 487.61712 320.634639 
" clip-path="url(#p587c6320c8)" style="fill: none; stroke: #b0b0b0; stroke-opacity: 0.2; stroke-width: 0.8; stroke-linecap: square"/>
     </g>
     <g id="line2d_28">
      <defs>
       <path id="m7d83491743" d="M 0 0 
L -2 0 
" style="stroke: #000000; stroke-width: 0.6"/>
      </defs>
      <g>
       <use xlink:href="#m7d83491743" x="64.235" y="320.634639" style="stroke: #000000; stroke-width: 0.6"/>
      </g>
     </g>
    </g>
    <g id="ytick_4">
     <g id="line2d_29">
      <path d="M 64.235 306.019748 
L 487.61712 306.019748 
" clip-path="url(#p587c6320c8)" style="fill: none; stroke: #b0b0b0; stroke-opacity: 0.2; stroke-width: 0.8; stroke-linecap: square"/>
     </g>
     <g id="line2d_30">
      <g>
       <use xlink:href="#m7d83491743" x="64.235" y="306.019748" style="stroke: #000000; stroke-width: 0.6"/>
      </g>
     </g>
    </g>
    <g id="ytick_5">
     <g id="line2d_31">
      <path d="M 64.235 294.683558 
L 487.61712 294.683558 
" clip-path="url(#p587c6320c8)" style="fill: none; stroke: #b0b0b0; stroke-opacity: 0.2; stroke-width: 0.8; stroke-linecap: square"/>
     </g>
     <g id="line2d_32">
      <g>
       <use xlink:href="#m7d83491743" x="64.235" y="294.683558" style="stroke: #000000; stroke-width: 0.6"/>
      </g>
     </g>
    </g>
    <g id="ytick_6">
     <g id="line2d_33">
      <path d="M 64.235 285.421216 
L 487.61712 285.421216 
" clip-path="url(#p587c6320c8)" style="fill: none; stroke: #b0b0b0; stroke-opacity: 0.2; stroke-width: 0.8; stroke-linecap: square"/>
     </g>
     <g id="line2d_34">
      <g>
       <use xlink:href="#m7d83491743" x="64.235" y="285.421216" style="stroke: #000000; stroke-width: 0.6"/>
      </g>
     </g>
    </g>
    <g id="ytick_7">
     <g id="line2d_35">
      <path d="M 64.235 277.590018 
L 487.61712 277.590018 
" clip-path="url(#p587c6320c8)" style="fill: none; stroke: #b0b0b0; stroke-opacity: 0.2; stroke-width: 0.8; stroke-linecap: square"/>
     </g>
     <g id="line2d_36">
      <g>
       <use xlink:href="#m7d83491743" x="64.235" y="277.590018" style="stroke: #000000; stroke-width: 0.6"/>
      </g>
     </g>
    </g>
    <g id="ytick_8">
     <g id="line2d_37">
      <path d="M 64.235 270.806325 
L 487.61712 270.806325 
" clip-path="url(#p587c6320c8)" style="fill: none; stroke: #b0b0b0; stroke-opacity: 0.2; stroke-width: 0.8; stroke-linecap: square"/>
     </g>
     <g id="line2d_38">
      <g>
       <use xlink:href="#m7d83491743" x="64.235" y="270.806325" style="stroke: #000000; stroke-width: 0.6"/>
      </g>
     </g>
    </g>
    <g id="ytick_9">
     <g id="line2d_39">
      <path d="M 64.235 264.822684 
L 487.61712 264.822684 
" clip-path="url(#p587c6320c8)" style="fill: none; stroke: #b0b0b0; stroke-opacity: 0.2; stroke-width: 0.8; stroke-linecap: square"/>
     </g>
     <g id="line2d_40">
      <g>
       <use xlink:href="#m7d83491743" x="64.235" y="264.822684" style="stroke: #000000; stroke-width: 0.6"/>
      </g>
     </g>
    </g>
    <g id="ytick_10">
     <g id="line2d_41">
      <path d="M 64.235 224.256712 
L 487.61712 224.256712 
" clip-path="url(#p587c6320c8)" style="fill: none; stroke: #b0b0b0; stroke-opacity: 0.2; stroke-width: 0.8; stroke-linecap: square"/>
     </g>
     <g id="line2d_42">
      <g>
       <use xlink:href="#m7d83491743" x="64.235" y="224.256712" style="stroke: #000000; stroke-width: 0.6"/>
      </g>
     </g>
    </g>
    <g id="ytick_11">
     <g id="line2d_43">
      <path d="M 64.235 203.65818 
L 487.61712 203.65818 
" clip-path="url(#p587c6320c8)" style="fill: none; stroke: #b0b0b0; stroke-opacity: 0.2; stroke-width: 0.8; stroke-linecap: square"/>
     </g>
     <g id="line2d_44">
      <g>
       <use xlink:href="#m7d83491743" x="64.235" y="203.65818" style="stroke: #000000; stroke-width: 0.6"/>
      </g>
     </g>
    </g>
    <g id="ytick_12">
     <g id="line2d_45">
      <path d="M 64.235 189.043289 
L 487.61712 189.043289 
" clip-path="url(#p587c6320c8)" style="fill: none; stroke: #b0b0b0; stroke-opacity: 0.2; stroke-width: 0.8; stroke-linecap: square"/>
     </g>
     <g id="line2d_46">
      <g>
       <use xlink:href="#m7d83491743" x="64.235" y="189.043289" style="stroke: #000000; stroke-width: 0.6"/>
      </g>
     </g>
    </g>
    <g id="ytick_13">
     <g id="line2d_47">
      <path d="M 64.235 177.707099 
L 487.61712 177.707099 
" clip-path="url(#p587c6320c8)" style="fill: none; stroke: #b0b0b0; stroke-opacity: 0.2; stroke-width: 0.8; stroke-linecap: square"/>
     </g>
     <g id="line2d_48">
      <g>
       <use xlink:href="#m7d83491743" x="64.235" y="177.707099" style="stroke: #000000; stroke-width: 0.6"/>
      </g>
     </g>
    </g>
    <g id="ytick_14">
     <g id="line2d_49">
      <path d="M 64.235 168.444757 
L 487.61712 168.444757 
" clip-path="url(#p587c6320c8)" style="fill: none; stroke: #b0b0b0; stroke-opacity: 0.2; stroke-width: 0.8; stroke-linecap: square"/>
     </g>
     <g id="line2d_50">
      <g>
       <use xlink:href="#m7d83491743" x="64.235" y="168.444757" style="stroke: #000000; stroke-width: 0.6"/>
      </g>
     </g>
    </g>
    <g id="ytick_15">
     <g id="line2d_51">
      <path d="M 64.235 160.613559 
L 487.61712 160.613559 
" clip-path="url(#p587c6320c8)" style="fill: none; stroke: #b0b0b0; stroke-opacity: 0.2; stroke-width: 0.8; stroke-linecap: square"/>
     </g>
     <g id="line2d_52">
      <g>
       <use xlink:href="#m7d83491743" x="64.235" y="160.613559" style="stroke: #000000; stroke-width: 0.6"/>
      </g>
     </g>
    </g>
    <g id="ytick_16">
     <g id="line2d_53">
      <path d="M 64.235 153.829866 
L 487.61712 153.829866 
" clip-path="url(#p587c6320c8)" style="fill: none; stroke: #b0b0b0; stroke-opacity: 0.2; stroke-width: 0.8; stroke-linecap: square"/>
     </g>
     <g id="line2d_54">
      <g>
       <use xlink:href="#m7d83491743" x="64.235" y="153.829866" style="stroke: #000000; stroke-width: 0.6"/>
      </g>
     </g>
    </g>
    <g id="ytick_17">
     <g id="line2d_55">
      <path d="M 64.235 147.846225 
L 487.61712 147.846225 
" clip-path="url(#p587c6320c8)" style="fill: none; stroke: #b0b0b0; stroke-opacity: 0.2; stroke-width: 0.8; stroke-linecap: square"/>
     </g>
     <g id="line2d_56">
      <g>
       <use xlink:href="#m7d83491743" x="64.235" y="147.846225" style="stroke: #000000; stroke-width: 0.6"/>
      </g>
     </g>
    </g>
    <g id="ytick_18">
     <g id="line2d_57">
      <path d="M 64.235 107.280253 
L 487.61712 107.280253 
" clip-path="url(#p587c6320c8)" style="fill: none; stroke: #b0b0b0; stroke-opacity: 0.2; stroke-width: 0.8; stroke-linecap: square"/>
     </g>
     <g id="line2d_58">
      <g>
       <use xlink:href="#m7d83491743" x="64.235" y="107.280253" style="stroke: #000000; stroke-width: 0.6"/>
      </g>
     </g>
    </g>
    <g id="ytick_19">
     <g id="line2d_59">
      <path d="M 64.235 86.681721 
L 487.61712 86.681721 
" clip-path="url(#p587c6320c8)" style="fill: none; stroke: #b0b0b0; stroke-opacity: 0.2; stroke-width: 0.8; stroke-linecap: square"/>
     </g>
     <g id="line2d_60">
      <g>
       <use xlink:href="#m7d83491743" x="64.235" y="86.681721" style="stroke: #000000; stroke-width: 0.6"/>
      </g>
     </g>
    </g>
    <g id="ytick_20">
     <g id="line2d_61">
      <path d="M 64.235 72.06683 
L 487.61712 72.06683 
" clip-path="url(#p587c6320c8)" style="fill: none; stroke: #b0b0b0; stroke-opacity: 0.2; stroke-width: 0.8; stroke-linecap: square"/>
     </g>
     <g id="line2d_62">
      <g>
       <use xlink:href="#m7d83491743" x="64.235" y="72.06683" style="stroke: #000000; stroke-width: 0.6"/>
      </g>
     </g>
    </g>
    <g id="ytick_21">
     <g id="line2d_63">
      <path d="M 64.235 60.73064 
L 487.61712 60.73064 
" clip-path="url(#p587c6320c8)" style="fill: none; stroke: #b0b0b0; stroke-opacity: 0.2; stroke-width: 0.8; stroke-linecap: square"/>
     </g>
     <g id="line2d_64">
      <g>
       <use xlink:href="#m7d83491743" x="64.235" y="60.73064" style="stroke: #000000; stroke-width: 0.6"/>
      </g>
     </g>
    </g>
    <g id="ytick_22">
     <g id="line2d_65">
      <path d="M 64.235 51.468298 
L 487.61712 51.468298 
" clip-path="url(#p587c6320c8)" style="fill: none; stroke: #b0b0b0; stroke-opacity: 0.2; stroke-width: 0.8; stroke-linecap: square"/>
     </g>
     <g id="line2d_66">
      <g>
       <use xlink:href="#m7d83491743" x="64.235" y="51.468298" style="stroke: #000000; stroke-width: 0.6"/>
      </g>
     </g>
    </g>
    <g id="ytick_23">
     <g id="line2d_67">
      <path d="M 64.235 43.637099 
L 487.61712 43.637099 
" clip-path="url(#p587c6320c8)" style="fill: none; stroke: #b0b0b0; stroke-opacity: 0.2; stroke-width: 0.8; stroke-linecap: square"/>
     </g>
     <g id="line2d_68">
      <g>
       <use xlink:href="#m7d83491743" x="64.235" y="43.637099" style="stroke: #000000; stroke-width: 0.6"/>
      </g>
     </g>
    </g>
    <g id="ytick_24">
     <g id="line2d_69">
      <path d="M 64.235 36.853407 
L 487.61712 36.853407 
" clip-path="url(#p587c6320c8)" style="fill: none; stroke: #b0b0b0; stroke-opacity: 0.2; stroke-width: 0.8; stroke-linecap: square"/>
     </g>
     <g id="line2d_70">
      <g>
       <use xlink:href="#m7d83491743" x="64.235" y="36.853407" style="stroke: #000000; stroke-width: 0.6"/>
      </g>
     </g>
    </g>
    <g id="text_8">
     <!-- Bandwidth $\Delta\omega\;(a/2\pi c)$ -->
     <g transform="translate(19.3575 271.177187) rotate(-90) scale(0.16 -0.16)">
      <defs>
       <path id="DejaVuSans-42" d="M 1259 2228 
L 1259 519 
L 2272 519 
Q 2781 519 3026 730 
Q 3272 941 3272 1375 
Q 3272 1813 3026 2020 
Q 2781 2228 2272 2228 
L 1259 2228 
z
M 1259 4147 
L 1259 2741 
L 2194 2741 
Q 2656 2741 2882 2914 
Q 3109 3088 3109 3444 
Q 3109 3797 2882 3972 
Q 2656 4147 2194 4147 
L 1259 4147 
z
M 628 4666 
L 2241 4666 
Q 2963 4666 3353 4366 
Q 3744 4066 3744 3513 
Q 3744 3084 3544 2831 
Q 3344 2578 2956 2516 
Q 3422 2416 3680 2098 
Q 3938 1781 3938 1306 
Q 3938 681 3513 340 
Q 3088 0 2303 0 
L 628 0 
L 628 4666 
z
" transform="scale(0.015625)"/>
       <path id="DejaVuSans-64" d="M 2906 2969 
L 2906 4863 
L 3481 4863 
L 3481 0 
L 2906 0 
L 2906 525 
Q 2725 213 2448 61 
Q 2172 -91 1784 -91 
Q 1150 -91 751 415 
Q 353 922 353 1747 
Q 353 2572 751 3078 
Q 1150 3584 1784 3584 
Q 2172 3584 2448 3432 
Q 2725 3281 2906 2969 
z
M 947 1747 
Q 947 1113 1208 752 
Q 1469 391 1925 391 
Q 2381 391 2643 752 
Q 2906 1113 2906 1747 
Q 2906 2381 2643 2742 
Q 2381 3103 1925 3103 
Q 1469 3103 1208 2742 
Q 947 2381 947 1747 
z
" transform="scale(0.015625)"/>
       <path id="DejaVuSans-68" d="M 3513 2113 
L 3513 0 
L 2938 0 
L 2938 2094 
Q 2938 2591 2744 2837 
Q 2550 3084 2163 3084 
Q 1697 3084 1428 2787 
Q 1159 2491 1159 1978 
L 1159 0 
L 581 0 
L 581 4863 
L 1159 4863 
L 1159 2956 
Q 1366 3272 1645 3428 
Q 1925 3584 2291 3584 
Q 2894 3584 3203 3211 
Q 3513 2838 3513 2113 
z
" transform="scale(0.015625)"/>
       <path id="DejaVuSans-394" d="M 2188 4044 
L 906 525 
L 3472 525 
L 2188 4044 
z
M 50 0 
L 1831 4666 
L 2547 4666 
L 4325 0 
L 50 0 
z
" transform="scale(0.015625)"/>
       <path id="DejaVuSans-Oblique-3c9" d="M 1369 -91 
Q 72 -91 434 1766 
Q 575 2500 1256 3500 
L 1875 3500 
Q 1231 2500 1088 1750 
Q 819 397 1519 397 
Q 2166 397 2478 2078 
L 3009 2078 
Q 2669 388 3316 397 
Q 4013 403 4275 1750 
Q 4419 2500 4169 3500 
L 4788 3500 
Q 5075 2500 4934 1766 
Q 4578 -94 3278 -91 
Q 2428 -88 2503 844 
Q 2194 -91 1369 -91 
z
" transform="scale(0.015625)"/>
       <path id="DejaVuSans-Oblique-61" d="M 3438 1997 
L 3047 0 
L 2472 0 
L 2578 531 
Q 2325 219 2001 64 
Q 1678 -91 1281 -91 
Q 834 -91 548 182 
Q 263 456 263 884 
Q 263 1497 752 1853 
Q 1241 2209 2100 2209 
L 2900 2209 
L 2931 2363 
Q 2938 2388 2941 2417 
Q 2944 2447 2944 2509 
Q 2944 2788 2717 2942 
Q 2491 3097 2081 3097 
Q 1800 3097 1504 3025 
Q 1209 2953 897 2809 
L 997 3341 
Q 1322 3463 1633 3523 
Q 1944 3584 2234 3584 
Q 2853 3584 3176 3315 
Q 3500 3047 3500 2534 
Q 3500 2431 3484 2292 
Q 3469 2153 3438 1997 
z
M 2816 1759 
L 2241 1759 
Q 1534 1759 1195 1570 
Q 856 1381 856 984 
Q 856 709 1029 553 
Q 1203 397 1509 397 
Q 1978 397 2328 733 
Q 2678 1069 2791 1631 
L 2816 1759 
z
" transform="scale(0.015625)"/>
       <path id="DejaVuSans-2f" d="M 1625 4666 
L 2156 4666 
L 531 -594 
L 0 -594 
L 1625 4666 
z
" transform="scale(0.015625)"/>
       <path id="DejaVuSans-Oblique-3c0" d="M 584 3500 
L 3938 3500 
L 3825 2925 
L 3384 2925 
L 2966 775 
Q 2922 550 2981 450 
Q 3038 353 3209 353 
Q 3256 353 3325 363 
Q 3397 369 3419 372 
L 3338 -44 
Q 3222 -84 3103 -103 
Q 2981 -122 2866 -122 
Q 2491 -122 2388 81 
Q 2284 288 2391 838 
L 2797 2925 
L 1506 2925 
L 938 0 
L 350 0 
L 919 2925 
L 472 2925 
L 584 3500 
z
" transform="scale(0.015625)"/>
       <path id="DejaVuSans-Oblique-63" d="M 3431 3366 
L 3316 2797 
Q 3109 2947 2876 3022 
Q 2644 3097 2394 3097 
Q 2119 3097 1870 3000 
Q 1622 2903 1453 2725 
Q 1184 2453 1037 2087 
Q 891 1722 891 1331 
Q 891 859 1127 628 
Q 1363 397 1844 397 
Q 2081 397 2348 469 
Q 2616 541 2906 684 
L 2797 116 
Q 2547 13 2283 -39 
Q 2019 -91 1741 -91 
Q 1044 -91 669 257 
Q 294 606 294 1253 
Q 294 1797 489 2255 
Q 684 2713 1069 3078 
Q 1331 3328 1684 3456 
Q 2038 3584 2456 3584 
Q 2700 3584 2940 3529 
Q 3181 3475 3431 3366 
z
" transform="scale(0.015625)"/>
      </defs>
      <use xlink:href="#DejaVuSans-42" transform="translate(0 0.015625)"/>
      <use xlink:href="#DejaVuSans-61" transform="translate(68.603516 0.015625)"/>
      <use xlink:href="#DejaVuSans-6e" transform="translate(129.882812 0.015625)"/>
      <use xlink:href="#DejaVuSans-64" transform="translate(193.261719 0.015625)"/>
      <use xlink:href="#DejaVuSans-77" transform="translate(256.738281 0.015625)"/>
      <use xlink:href="#DejaVuSans-69" transform="translate(338.525391 0.015625)"/>
      <use xlink:href="#DejaVuSans-64" transform="translate(366.308594 0.015625)"/>
      <use xlink:href="#DejaVuSans-74" transform="translate(429.785156 0.015625)"/>
      <use xlink:href="#DejaVuSans-68" transform="translate(468.994141 0.015625)"/>
      <use xlink:href="#DejaVuSans-20" transform="translate(532.373047 0.015625)"/>
      <use xlink:href="#DejaVuSans-394" transform="translate(564.160156 0.015625)"/>
      <use xlink:href="#DejaVuSans-Oblique-3c9" transform="translate(632.568359 0.015625)"/>
      <use xlink:href="#DejaVuSans-28" transform="translate(743.367729 0.015625)"/>
      <use xlink:href="#DejaVuSans-Oblique-61" transform="translate(782.381401 0.015625)"/>
      <use xlink:href="#DejaVuSans-2f" transform="translate(843.660698 0.015625)"/>
      <use xlink:href="#DejaVuSans-32" transform="translate(873.727104 0.015625)"/>
      <use xlink:href="#DejaVuSans-Oblique-3c0" transform="translate(937.350151 0.015625)"/>
      <use xlink:href="#DejaVuSans-Oblique-63" transform="translate(997.555229 0.015625)"/>
      <use xlink:href="#DejaVuSans-29" transform="translate(1052.535698 0.015625)"/>
     </g>
    </g>
   </g>
   <g id="line2d_71">
    <path d="M 83.479642 301.406123 
L 468.372479 44.780824 
L 468.372479 44.780824 
" clip-path="url(#p587c6320c8)" style="fill: none; stroke-dasharray: 6.66,2.88; stroke-dashoffset: 0; stroke: #857255; stroke-opacity: 0.7; stroke-width: 1.8"/>
   </g>
   <g id="patch_3">
    <path d="M 64.235 336.757187 
L 64.235 30.877187 
" style="fill: none; stroke: #000000; stroke-width: 0.8; stroke-linejoin: miter; stroke-linecap: square"/>
   </g>
   <g id="patch_4">
    <path d="M 64.235 336.757187 
L 487.61712 336.757187 
" style="fill: none; stroke: #000000; stroke-width: 0.8; stroke-linejoin: miter; stroke-linecap: square"/>
   </g>
   <g id="text_9">
    <!-- Hex rods $\varepsilon{=}12$, $r/a{=}0.22$, TM at $M$ -->
    <g transform="translate(104.92606 20.877187) scale(0.18 -0.18)">
     <defs>
      <path id="DejaVuSans-Bold-48" d="M 588 4666 
L 1791 4666 
L 1791 2888 
L 3566 2888 
L 3566 4666 
L 4769 4666 
L 4769 0 
L 3566 0 
L 3566 1978 
L 1791 1978 
L 1791 0 
L 588 0 
L 588 4666 
z
" transform="scale(0.015625)"/>
      <path id="DejaVuSans-Bold-65" d="M 4031 1759 
L 4031 1441 
L 1416 1441 
Q 1456 1047 1700 850 
Q 1944 653 2381 653 
Q 2734 653 3104 758 
Q 3475 863 3866 1075 
L 3866 213 
Q 3469 63 3072 -14 
Q 2675 -91 2278 -91 
Q 1328 -91 801 392 
Q 275 875 275 1747 
Q 275 2603 792 3093 
Q 1309 3584 2216 3584 
Q 3041 3584 3536 3087 
Q 4031 2591 4031 1759 
z
M 2881 2131 
Q 2881 2450 2695 2645 
Q 2509 2841 2209 2841 
Q 1884 2841 1681 2658 
Q 1478 2475 1428 2131 
L 2881 2131 
z
" transform="scale(0.015625)"/>
      <path id="DejaVuSans-Bold-78" d="M 1422 1791 
L 159 3500 
L 1344 3500 
L 2059 2463 
L 2784 3500 
L 3969 3500 
L 2706 1797 
L 4031 0 
L 2847 0 
L 2059 1106 
L 1281 0 
L 97 0 
L 1422 1791 
z
" transform="scale(0.015625)"/>
      <path id="DejaVuSans-Bold-20" transform="scale(0.015625)"/>
      <path id="DejaVuSans-Bold-72" d="M 3138 2547 
Q 2991 2616 2845 2648 
Q 2700 2681 2553 2681 
Q 2122 2681 1889 2404 
Q 1656 2128 1656 1613 
L 1656 0 
L 538 0 
L 538 3500 
L 1656 3500 
L 1656 2925 
Q 1872 3269 2151 3426 
Q 2431 3584 2822 3584 
Q 2878 3584 2943 3579 
Q 3009 3575 3134 3559 
L 3138 2547 
z
" transform="scale(0.015625)"/>
      <path id="DejaVuSans-Bold-6f" d="M 2203 2784 
Q 1831 2784 1636 2517 
Q 1441 2250 1441 1747 
Q 1441 1244 1636 976 
Q 1831 709 2203 709 
Q 2569 709 2762 976 
Q 2956 1244 2956 1747 
Q 2956 2250 2762 2517 
Q 2569 2784 2203 2784 
z
M 2203 3584 
Q 3106 3584 3614 3096 
Q 4122 2609 4122 1747 
Q 4122 884 3614 396 
Q 3106 -91 2203 -91 
Q 1297 -91 786 396 
Q 275 884 275 1747 
Q 275 2609 786 3096 
Q 1297 3584 2203 3584 
z
" transform="scale(0.015625)"/>
      <path id="DejaVuSans-Bold-64" d="M 2919 2988 
L 2919 4863 
L 4044 4863 
L 4044 0 
L 2919 0 
L 2919 506 
Q 2688 197 2409 53 
Q 2131 -91 1766 -91 
Q 1119 -91 703 423 
Q 288 938 288 1747 
Q 288 2556 703 3070 
Q 1119 3584 1766 3584 
Q 2128 3584 2408 3439 
Q 2688 3294 2919 2988 
z
M 2181 722 
Q 2541 722 2730 984 
Q 2919 1247 2919 1747 
Q 2919 2247 2730 2509 
Q 2541 2772 2181 2772 
Q 1825 2772 1636 2509 
Q 1447 2247 1447 1747 
Q 1447 1247 1636 984 
Q 1825 722 2181 722 
z
" transform="scale(0.015625)"/>
      <path id="DejaVuSans-Bold-73" d="M 3272 3391 
L 3272 2541 
Q 2913 2691 2578 2766 
Q 2244 2841 1947 2841 
Q 1628 2841 1473 2761 
Q 1319 2681 1319 2516 
Q 1319 2381 1436 2309 
Q 1553 2238 1856 2203 
L 2053 2175 
Q 2913 2066 3209 1816 
Q 3506 1566 3506 1031 
Q 3506 472 3093 190 
Q 2681 -91 1863 -91 
Q 1516 -91 1145 -36 
Q 775 19 384 128 
L 384 978 
Q 719 816 1070 734 
Q 1422 653 1784 653 
Q 2113 653 2278 743 
Q 2444 834 2444 1013 
Q 2444 1163 2330 1236 
Q 2216 1309 1875 1350 
L 1678 1375 
Q 931 1469 631 1722 
Q 331 1975 331 2491 
Q 331 3047 712 3315 
Q 1094 3584 1881 3584 
Q 2191 3584 2531 3537 
Q 2872 3491 3272 3391 
z
" transform="scale(0.015625)"/>
      <path id="DejaVuSans-Oblique-3b5" d="M 1263 1888 
Q 925 1963 778 2166 
Q 669 2309 669 2503 
Q 669 3034 1175 3344 
Q 1575 3588 2188 3588 
Q 2425 3588 2684 3550 
Q 2944 3513 3234 3438 
L 3134 2916 
Q 2847 3006 2606 3047 
Q 2359 3088 2138 3088 
Q 1766 3088 1522 2944 
Q 1228 2772 1228 2522 
Q 1228 2356 1381 2241 
Q 1563 2103 1925 2103 
L 2409 2103 
L 2319 1628 
L 1856 1628 
Q 1425 1628 1172 1469 
Q 828 1253 828 916 
Q 828 703 1013 563 
Q 1244 388 1716 388 
Q 2006 388 2284 444 
Q 2563 503 2806 619 
L 2700 84 
Q 2403 -3 2131 -47 
Q 1859 -91 1609 -91 
Q 866 -91 516 194 
Q 250 413 250 781 
Q 250 1278 600 1584 
Q 859 1813 1263 1888 
z
" transform="scale(0.015625)"/>
      <path id="DejaVuSans-3d" d="M 678 2906 
L 4684 2906 
L 4684 2381 
L 678 2381 
L 678 2906 
z
M 678 1631 
L 4684 1631 
L 4684 1100 
L 678 1100 
L 678 1631 
z
" transform="scale(0.015625)"/>
      <path id="DejaVuSans-Bold-2c" d="M 653 1209 
L 1778 1209 
L 1778 256 
L 1006 -909 
L 341 -909 
L 653 256 
L 653 1209 
z
" transform="scale(0.015625)"/>
      <path id="DejaVuSans-Oblique-72" d="M 2853 2969 
Q 2766 3016 2653 3041 
Q 2541 3066 2413 3066 
Q 1953 3066 1609 2717 
Q 1266 2369 1153 1784 
L 800 0 
L 225 0 
L 909 3500 
L 1484 3500 
L 1375 2956 
Q 1603 3259 1920 3421 
Q 2238 3584 2597 3584 
Q 2691 3584 2781 3573 
Q 2872 3563 2963 3538 
L 2853 2969 
z
" transform="scale(0.015625)"/>
      <path id="DejaVuSans-2e" d="M 684 794 
L 1344 794 
L 1344 0 
L 684 0 
L 684 794 
z
" transform="scale(0.015625)"/>
      <path id="DejaVuSans-Bold-54" d="M 31 4666 
L 4331 4666 
L 4331 3756 
L 2784 3756 
L 2784 0 
L 1581 0 
L 1581 3756 
L 31 3756 
L 31 4666 
z
" transform="scale(0.015625)"/>
      <path id="DejaVuSans-Bold-4d" d="M 588 4666 
L 2119 4666 
L 3181 2169 
L 4250 4666 
L 5778 4666 
L 5778 0 
L 4641 0 
L 4641 3413 
L 3566 897 
L 2803 897 
L 1728 3413 
L 1728 0 
L 588 0 
L 588 4666 
z
" transform="scale(0.015625)"/>
      <path id="DejaVuSans-Bold-61" d="M 2106 1575 
Q 1756 1575 1579 1456 
Q 1403 1338 1403 1106 
Q 1403 894 1545 773 
Q 1688 653 1941 653 
Q 2256 653 2472 879 
Q 2688 1106 2688 1447 
L 2688 1575 
L 2106 1575 
z
M 3816 1997 
L 3816 0 
L 2688 0 
L 2688 519 
Q 2463 200 2181 54 
Q 1900 -91 1497 -91 
Q 953 -91 614 226 
Q 275 544 275 1050 
Q 275 1666 698 1953 
Q 1122 2241 2028 2241 
L 2688 2241 
L 2688 2328 
Q 2688 2594 2478 2717 
Q 2269 2841 1825 2841 
Q 1466 2841 1156 2769 
Q 847 2697 581 2553 
L 581 3406 
Q 941 3494 1303 3539 
Q 1666 3584 2028 3584 
Q 2975 3584 3395 3211 
Q 3816 2838 3816 1997 
z
" transform="scale(0.015625)"/>
      <path id="DejaVuSans-Bold-74" d="M 1759 4494 
L 1759 3500 
L 2913 3500 
L 2913 2700 
L 1759 2700 
L 1759 1216 
Q 1759 972 1856 886 
Q 1953 800 2241 800 
L 2816 800 
L 2816 0 
L 1856 0 
Q 1194 0 917 276 
Q 641 553 641 1216 
L 641 2700 
L 84 2700 
L 84 3500 
L 641 3500 
L 641 4494 
L 1759 4494 
z
" transform="scale(0.015625)"/>
      <path id="DejaVuSans-Oblique-4d" d="M 1081 4666 
L 2028 4666 
L 2572 1522 
L 4378 4666 
L 5350 4666 
L 4441 0 
L 3828 0 
L 4622 4091 
L 2791 897 
L 2175 897 
L 1581 4103 
L 788 0 
L 172 0 
L 1081 4666 
z
" transform="scale(0.015625)"/>
     </defs>
     <use xlink:href="#DejaVuSans-Bold-48" transform="translate(0 0.015625)"/>
     <use xlink:href="#DejaVuSans-Bold-65" transform="translate(83.691406 0.015625)"/>
     <use xlink:href="#DejaVuSans-Bold-78" transform="translate(151.513672 0.015625)"/>
     <use xlink:href="#DejaVuSans-Bold-20" transform="translate(216.015625 0.015625)"/>
     <use xlink:href="#DejaVuSans-Bold-72" transform="translate(250.830078 0.015625)"/>
     <use xlink:href="#DejaVuSans-Bold-6f" transform="translate(300.146484 0.015625)"/>
     <use xlink:href="#DejaVuSans-Bold-64" transform="translate(368.847656 0.015625)"/>
     <use xlink:href="#DejaVuSans-Bold-73" transform="translate(440.429688 0.015625)"/>
     <use xlink:href="#DejaVuSans-Bold-20" transform="translate(499.951172 0.015625)"/>
     <use xlink:href="#DejaVuSans-Oblique-3b5" transform="translate(534.765625 0.015625)"/>
     <use xlink:href="#DejaVuSans-3d" transform="translate(608.300781 0.015625)"/>
     <use xlink:href="#DejaVuSans-31" transform="translate(711.572266 0.015625)"/>
     <use xlink:href="#DejaVuSans-32" transform="translate(775.195312 0.015625)"/>
     <use xlink:href="#DejaVuSans-Bold-2c" transform="translate(838.818359 0.015625)"/>
     <use xlink:href="#DejaVuSans-Bold-20" transform="translate(876.806641 0.015625)"/>
     <use xlink:href="#DejaVuSans-Oblique-72" transform="translate(911.621094 0.015625)"/>
     <use xlink:href="#DejaVuSans-2f" transform="translate(952.734375 0.015625)"/>
     <use xlink:href="#DejaVuSans-Oblique-61" transform="translate(986.425781 0.015625)"/>
     <use xlink:href="#DejaVuSans-3d" transform="translate(1067.1875 0.015625)"/>
     <use xlink:href="#DejaVuSans-30" transform="translate(1170.458984 0.015625)"/>
     <use xlink:href="#DejaVuSans-2e" transform="translate(1234.082031 0.015625)"/>
     <use xlink:href="#DejaVuSans-32" transform="translate(1260.369141 0.015625)"/>
     <use xlink:href="#DejaVuSans-32" transform="translate(1323.992188 0.015625)"/>
     <use xlink:href="#DejaVuSans-Bold-2c" transform="translate(1387.615234 0.015625)"/>
     <use xlink:href="#DejaVuSans-Bold-20" transform="translate(1425.603516 0.015625)"/>
     <use xlink:href="#DejaVuSans-Bold-54" transform="translate(1460.417969 0.015625)"/>
     <use xlink:href="#DejaVuSans-Bold-4d" transform="translate(1528.630859 0.015625)"/>
     <use xlink:href="#DejaVuSans-Bold-20" transform="translate(1628.142578 0.015625)"/>
     <use xlink:href="#DejaVuSans-Bold-61" transform="translate(1662.957031 0.015625)"/>
     <use xlink:href="#DejaVuSans-Bold-74" transform="translate(1730.4375 0.015625)"/>
     <use xlink:href="#DejaVuSans-Bold-20" transform="translate(1778.240234 0.015625)"/>
     <use xlink:href="#DejaVuSans-Oblique-4d" transform="translate(1813.054688 0.015625)"/>
    </g>
   </g>
   <g id="line2d_72">
    <path d="M 117.484227 220.260951 
L 223.112116 105.852173 
L 328.740005 63.100779 
L 434.367894 64.676327 
" clip-path="url(#p587c6320c8)" style="fill: none; stroke: #b39ddb; stroke-opacity: 0.85; stroke-width: 2; stroke-linecap: square"/>
    <defs>
     <path id="m7cc1706917" d="M 0 4 
C 1.060812 4 2.078319 3.578535 2.828427 2.828427 
C 3.578535 2.078319 4 1.060812 4 0 
C 4 -1.060812 3.578535 -2.078319 2.828427 -2.828427 
C 2.078319 -3.578535 1.060812 -4 0 -4 
C -1.060812 -4 -2.078319 -3.578535 -2.828427 -2.828427 
C -3.578535 -2.078319 -4 -1.060812 -4 0 
C -4 1.060812 -3.578535 2.078319 -2.828427 2.828427 
C -2.078319 3.578535 -1.060812 4 0 4 
z
" style="stroke: #b39ddb; stroke-opacity: 0.85"/>
    </defs>
    <g clip-path="url(#p587c6320c8)">
     <use xlink:href="#m7cc1706917" x="117.484227" y="220.260951" style="fill: #b39ddb; fill-opacity: 0.85; stroke: #b39ddb; stroke-opacity: 0.85"/>
     <use xlink:href="#m7cc1706917" x="223.112116" y="105.852173" style="fill: #b39ddb; fill-opacity: 0.85; stroke: #b39ddb; stroke-opacity: 0.85"/>
     <use xlink:href="#m7cc1706917" x="328.740005" y="63.100779" style="fill: #b39ddb; fill-opacity: 0.85; stroke: #b39ddb; stroke-opacity: 0.85"/>
     <use xlink:href="#m7cc1706917" x="434.367894" y="64.676327" style="fill: #b39ddb; fill-opacity: 0.85; stroke: #b39ddb; stroke-opacity: 0.85"/>
    </g>
   </g>
   <g id="line2d_73">
    <path d="M 117.484227 322.853551 
L 223.112116 179.850448 
L 328.740005 108.034389 
L 434.367894 101.522195 
" clip-path="url(#p587c6320c8)" style="fill: none; stroke: #5c6bc0; stroke-opacity: 0.85; stroke-width: 2; stroke-linecap: square"/>
    <defs>
     <path id="m035da5c400" d="M -0 5.656854 
L 5.656854 0 
L 0 -5.656854 
L -5.656854 -0 
z
" style="stroke: #5c6bc0; stroke-opacity: 0.85; stroke-linejoin: miter"/>
    </defs>
    <g clip-path="url(#p587c6320c8)">
     <use xlink:href="#m035da5c400" x="117.484227" y="322.853551" style="fill: #5c6bc0; fill-opacity: 0.85; stroke: #5c6bc0; stroke-opacity: 0.85; stroke-linejoin: miter"/>
     <use xlink:href="#m035da5c400" x="223.112116" y="179.850448" style="fill: #5c6bc0; fill-opacity: 0.85; stroke: #5c6bc0; stroke-opacity: 0.85; stroke-linejoin: miter"/>
     <use xlink:href="#m035da5c400" x="328.740005" y="108.034389" style="fill: #5c6bc0; fill-opacity: 0.85; stroke: #5c6bc0; stroke-opacity: 0.85; stroke-linejoin: miter"/>
     <use xlink:href="#m035da5c400" x="434.367894" y="101.522195" style="fill: #5c6bc0; fill-opacity: 0.85; stroke: #5c6bc0; stroke-opacity: 0.85; stroke-linejoin: miter"/>
    </g>
   </g>
   <g id="line2d_74">
    <path d="M 117.484227 321.207579 
L 223.112116 173.593496 
L 328.740005 104.038933 
L 434.367894 94.646668 
" clip-path="url(#p587c6320c8)" style="fill: none; stroke: #4d7b9e; stroke-opacity: 0.85; stroke-width: 2; stroke-linecap: square"/>
    <defs>
     <path id="m4d3db339a3" d="M -4 4 
L 4 4 
L 4 -4 
L -4 -4 
z
" style="stroke: #4d7b9e; stroke-opacity: 0.85; stroke-linejoin: miter"/>
    </defs>
    <g clip-path="url(#p587c6320c8)">
     <use xlink:href="#m4d3db339a3" x="117.484227" y="321.207579" style="fill: #4d7b9e; fill-opacity: 0.85; stroke: #4d7b9e; stroke-opacity: 0.85; stroke-linejoin: miter"/>
     <use xlink:href="#m4d3db339a3" x="223.112116" y="173.593496" style="fill: #4d7b9e; fill-opacity: 0.85; stroke: #4d7b9e; stroke-opacity: 0.85; stroke-linejoin: miter"/>
     <use xlink:href="#m4d3db339a3" x="328.740005" y="104.038933" style="fill: #4d7b9e; fill-opacity: 0.85; stroke: #4d7b9e; stroke-opacity: 0.85; stroke-linejoin: miter"/>
     <use xlink:href="#m4d3db339a3" x="434.367894" y="94.646668" style="fill: #4d7b9e; fill-opacity: 0.85; stroke: #4d7b9e; stroke-opacity: 0.85; stroke-linejoin: miter"/>
    </g>
   </g>
   <g id="line2d_75">
    <path d="M 223.112116 173.365516 
L 328.740005 103.617331 
L 434.367894 94.183468 
" clip-path="url(#p587c6320c8)" style="fill: none; stroke: #263238; stroke-opacity: 0.85; stroke-width: 2; stroke-linecap: square"/>
    <defs>
     <path id="me2eb6c2978" d="M 0 -4 
L -4 4 
L 4 4 
z
" style="stroke: #263238; stroke-opacity: 0.85; stroke-linejoin: miter"/>
    </defs>
    <g clip-path="url(#p587c6320c8)">
     <use xlink:href="#me2eb6c2978" x="223.112116" y="173.365516" style="fill: #263238; fill-opacity: 0.85; stroke: #263238; stroke-opacity: 0.85; stroke-linejoin: miter"/>
     <use xlink:href="#me2eb6c2978" x="328.740005" y="103.617331" style="fill: #263238; fill-opacity: 0.85; stroke: #263238; stroke-opacity: 0.85; stroke-linejoin: miter"/>
     <use xlink:href="#me2eb6c2978" x="434.367894" y="94.183468" style="fill: #263238; fill-opacity: 0.85; stroke: #263238; stroke-opacity: 0.85; stroke-linejoin: miter"/>
    </g>
   </g>
   <g id="line2d_76">
    <path d="M 117.484227 298.933935 
L 223.112116 240.835524 
L 328.740005 183.320531 
L 434.367894 122.008089 
" clip-path="url(#p587c6320c8)" style="fill: none; stroke: #6baf6b; stroke-width: 2.5; stroke-linecap: square"/>
    <defs>
     <path id="m40d7859dcc" d="M -1.666667 5 
L 1.666667 5 
L 1.666667 1.666667 
L 5 1.666667 
L 5 -1.666667 
L 1.666667 -1.666667 
L 1.666667 -5 
L -1.666667 -5 
L -1.666667 -1.666667 
L -5 -1.666667 
L -5 1.666667 
L -1.666667 1.666667 
z
" style="stroke: #6baf6b; stroke-linejoin: miter"/>
    </defs>
    <g clip-path="url(#p587c6320c8)">
     <use xlink:href="#m40d7859dcc" x="117.484227" y="298.933935" style="fill: #6baf6b; stroke: #6baf6b; stroke-linejoin: miter"/>
     <use xlink:href="#m40d7859dcc" x="223.112116" y="240.835524" style="fill: #6baf6b; stroke: #6baf6b; stroke-linejoin: miter"/>
     <use xlink:href="#m40d7859dcc" x="328.740005" y="183.320531" style="fill: #6baf6b; stroke: #6baf6b; stroke-linejoin: miter"/>
     <use xlink:href="#m40d7859dcc" x="434.367894" y="122.008089" style="fill: #6baf6b; stroke: #6baf6b; stroke-linejoin: miter"/>
    </g>
   </g>
   <g id="legend_1">
    <g id="patch_5">
     <path d="M 359.45712 330.757187 
L 479.21712 330.757187 
Q 481.61712 330.757187 481.61712 328.357187 
L 481.61712 223.777187 
Q 481.61712 221.377187 479.21712 221.377187 
L 359.45712 221.377187 
Q 357.05712 221.377187 357.05712 223.777187 
L 357.05712 328.357187 
Q 357.05712 330.757187 359.45712 330.757187 
z
" style="fill: #ffffff; opacity: 0.85; stroke: #cccccc; stroke-linejoin: miter"/>
    </g>
    <g id="line2d_77">
     <path d="M 361.85712 231.095312 
L 373.85712 231.095312 
L 385.85712 231.095312 
" style="fill: none; stroke: #b39ddb; stroke-opacity: 0.85; stroke-width: 2; stroke-linecap: square"/>
     <g>
      <use xlink:href="#m7cc1706917" x="373.85712" y="231.095312" style="fill: #b39ddb; fill-opacity: 0.85; stroke: #b39ddb; stroke-opacity: 0.85"/>
     </g>
    </g>
    <g id="text_10">
     <!-- FDFD 1 px/$a$ -->
     <g transform="translate(395.45712 235.295312) scale(0.12 -0.12)">
      <defs>
       <path id="DejaVuSans-46" d="M 628 4666 
L 3309 4666 
L 3309 4134 
L 1259 4134 
L 1259 2759 
L 3109 2759 
L 3109 2228 
L 1259 2228 
L 1259 0 
L 628 0 
L 628 4666 
z
" transform="scale(0.015625)"/>
       <path id="DejaVuSans-44" d="M 1259 4147 
L 1259 519 
L 2022 519 
Q 2988 519 3436 956 
Q 3884 1394 3884 2338 
Q 3884 3275 3436 3711 
Q 2988 4147 2022 4147 
L 1259 4147 
z
M 628 4666 
L 1925 4666 
Q 3281 4666 3915 4102 
Q 4550 3538 4550 2338 
Q 4550 1131 3912 565 
Q 3275 0 1925 0 
L 628 0 
L 628 4666 
z
" transform="scale(0.015625)"/>
       <path id="DejaVuSans-70" d="M 1159 525 
L 1159 -1331 
L 581 -1331 
L 581 3500 
L 1159 3500 
L 1159 2969 
Q 1341 3281 1617 3432 
Q 1894 3584 2278 3584 
Q 2916 3584 3314 3078 
Q 3713 2572 3713 1747 
Q 3713 922 3314 415 
Q 2916 -91 2278 -91 
Q 1894 -91 1617 61 
Q 1341 213 1159 525 
z
M 3116 1747 
Q 3116 2381 2855 2742 
Q 2594 3103 2138 3103 
Q 1681 3103 1420 2742 
Q 1159 2381 1159 1747 
Q 1159 1113 1420 752 
Q 1681 391 2138 391 
Q 2594 391 2855 752 
Q 3116 1113 3116 1747 
z
" transform="scale(0.015625)"/>
       <path id="DejaVuSans-78" d="M 3513 3500 
L 2247 1797 
L 3578 0 
L 2900 0 
L 1881 1375 
L 863 0 
L 184 0 
L 1544 1831 
L 300 3500 
L 978 3500 
L 1906 2253 
L 2834 3500 
L 3513 3500 
z
" transform="scale(0.015625)"/>
      </defs>
      <use xlink:href="#DejaVuSans-46" transform="translate(0 0.09375)"/>
      <use xlink:href="#DejaVuSans-44" transform="translate(57.519531 0.09375)"/>
      <use xlink:href="#DejaVuSans-46" transform="translate(134.521484 0.09375)"/>
      <use xlink:href="#DejaVuSans-44" transform="translate(192.041016 0.09375)"/>
      <use xlink:href="#DejaVuSans-20" transform="translate(269.042969 0.09375)"/>
      <use xlink:href="#DejaVuSans-31" transform="translate(300.830078 0.09375)"/>
      <use xlink:href="#DejaVuSans-20" transform="translate(364.453125 0.09375)"/>
      <use xlink:href="#DejaVuSans-70" transform="translate(396.240234 0.09375)"/>
      <use xlink:href="#DejaVuSans-78" transform="translate(459.716797 0.09375)"/>
      <use xlink:href="#DejaVuSans-2f" transform="translate(518.896484 0.09375)"/>
      <use xlink:href="#DejaVuSans-Oblique-61" transform="translate(552.587891 0.09375)"/>
     </g>
    </g>
    <g id="line2d_78">
     <path d="M 361.85712 248.733437 
L 373.85712 248.733437 
L 385.85712 248.733437 
" style="fill: none; stroke: #5c6bc0; stroke-opacity: 0.85; stroke-width: 2; stroke-linecap: square"/>
     <g>
      <use xlink:href="#m035da5c400" x="373.85712" y="248.733437" style="fill: #5c6bc0; fill-opacity: 0.85; stroke: #5c6bc0; stroke-opacity: 0.85; stroke-linejoin: miter"/>
     </g>
    </g>
    <g id="text_11">
     <!-- FDFD 4 px/$a$ -->
     <g transform="translate(395.45712 252.933437) scale(0.12 -0.12)">
      <use xlink:href="#DejaVuSans-46" transform="translate(0 0.09375)"/>
      <use xlink:href="#DejaVuSans-44" transform="translate(57.519531 0.09375)"/>
      <use xlink:href="#DejaVuSans-46" transform="translate(134.521484 0.09375)"/>
      <use xlink:href="#DejaVuSans-44" transform="translate(192.041016 0.09375)"/>
      <use xlink:href="#DejaVuSans-20" transform="translate(269.042969 0.09375)"/>
      <use xlink:href="#DejaVuSans-34" transform="translate(300.830078 0.09375)"/>
      <use xlink:href="#DejaVuSans-20" transform="translate(364.453125 0.09375)"/>
      <use xlink:href="#DejaVuSans-70" transform="translate(396.240234 0.09375)"/>
      <use xlink:href="#DejaVuSans-78" transform="translate(459.716797 0.09375)"/>
      <use xlink:href="#DejaVuSans-2f" transform="translate(518.896484 0.09375)"/>
      <use xlink:href="#DejaVuSans-Oblique-61" transform="translate(552.587891 0.09375)"/>
     </g>
    </g>
    <g id="line2d_79">
     <path d="M 361.85712 266.371562 
L 373.85712 266.371562 
L 385.85712 266.371562 
" style="fill: none; stroke: #4d7b9e; stroke-opacity: 0.85; stroke-width: 2; stroke-linecap: square"/>
     <g>
      <use xlink:href="#m4d3db339a3" x="373.85712" y="266.371562" style="fill: #4d7b9e; fill-opacity: 0.85; stroke: #4d7b9e; stroke-opacity: 0.85; stroke-linejoin: miter"/>
     </g>
    </g>
    <g id="text_12">
     <!-- FDFD 8 px/$a$ -->
     <g transform="translate(395.45712 270.571562) scale(0.12 -0.12)">
      <use xlink:href="#DejaVuSans-46" transform="translate(0 0.78125)"/>
      <use xlink:href="#DejaVuSans-44" transform="translate(57.519531 0.78125)"/>
      <use xlink:href="#DejaVuSans-46" transform="translate(134.521484 0.78125)"/>
      <use xlink:href="#DejaVuSans-44" transform="translate(192.041016 0.78125)"/>
      <use xlink:href="#DejaVuSans-20" transform="translate(269.042969 0.78125)"/>
      <use xlink:href="#DejaVuSans-38" transform="translate(300.830078 0.78125)"/>
      <use xlink:href="#DejaVuSans-20" transform="translate(364.453125 0.78125)"/>
      <use xlink:href="#DejaVuSans-70" transform="translate(396.240234 0.78125)"/>
      <use xlink:href="#DejaVuSans-78" transform="translate(459.716797 0.78125)"/>
      <use xlink:href="#DejaVuSans-2f" transform="translate(518.896484 0.78125)"/>
      <use xlink:href="#DejaVuSans-Oblique-61" transform="translate(552.587891 0.78125)"/>
     </g>
    </g>
    <g id="line2d_80">
     <path d="M 361.85712 284.009687 
L 373.85712 284.009687 
L 385.85712 284.009687 
" style="fill: none; stroke: #263238; stroke-opacity: 0.85; stroke-width: 2; stroke-linecap: square"/>
     <g>
      <use xlink:href="#me2eb6c2978" x="373.85712" y="284.009687" style="fill: #263238; fill-opacity: 0.85; stroke: #263238; stroke-opacity: 0.85; stroke-linejoin: miter"/>
     </g>
    </g>
    <g id="text_13">
     <!-- FDFD 16 px/$a$ -->
     <g transform="translate(395.45712 288.209687) scale(0.12 -0.12)">
      <defs>
       <path id="DejaVuSans-36" d="M 2113 2584 
Q 1688 2584 1439 2293 
Q 1191 2003 1191 1497 
Q 1191 994 1439 701 
Q 1688 409 2113 409 
Q 2538 409 2786 701 
Q 3034 994 3034 1497 
Q 3034 2003 2786 2293 
Q 2538 2584 2113 2584 
z
M 3366 4563 
L 3366 3988 
Q 3128 4100 2886 4159 
Q 2644 4219 2406 4219 
Q 1781 4219 1451 3797 
Q 1122 3375 1075 2522 
Q 1259 2794 1537 2939 
Q 1816 3084 2150 3084 
Q 2853 3084 3261 2657 
Q 3669 2231 3669 1497 
Q 3669 778 3244 343 
Q 2819 -91 2113 -91 
Q 1303 -91 875 529 
Q 447 1150 447 2328 
Q 447 3434 972 4092 
Q 1497 4750 2381 4750 
Q 2619 4750 2861 4703 
Q 3103 4656 3366 4563 
z
" transform="scale(0.015625)"/>
      </defs>
      <use xlink:href="#DejaVuSans-46" transform="translate(0 0.78125)"/>
      <use xlink:href="#DejaVuSans-44" transform="translate(57.519531 0.78125)"/>
      <use xlink:href="#DejaVuSans-46" transform="translate(134.521484 0.78125)"/>
      <use xlink:href="#DejaVuSans-44" transform="translate(192.041016 0.78125)"/>
      <use xlink:href="#DejaVuSans-20" transform="translate(269.042969 0.78125)"/>
      <use xlink:href="#DejaVuSans-31" transform="translate(300.830078 0.78125)"/>
      <use xlink:href="#DejaVuSans-36" transform="translate(364.453125 0.78125)"/>
      <use xlink:href="#DejaVuSans-20" transform="translate(428.076172 0.78125)"/>
      <use xlink:href="#DejaVuSans-70" transform="translate(459.863281 0.78125)"/>
      <use xlink:href="#DejaVuSans-78" transform="translate(523.339844 0.78125)"/>
      <use xlink:href="#DejaVuSans-2f" transform="translate(582.519531 0.78125)"/>
      <use xlink:href="#DejaVuSans-Oblique-61" transform="translate(616.210938 0.78125)"/>
     </g>
    </g>
    <g id="line2d_81">
     <path d="M 361.85712 301.647812 
L 373.85712 301.647812 
L 385.85712 301.647812 
" style="fill: none; stroke: #6baf6b; stroke-width: 2.5; stroke-linecap: square"/>
     <g>
      <use xlink:href="#m40d7859dcc" x="373.85712" y="301.647812" style="fill: #6baf6b; stroke: #6baf6b; stroke-linejoin: miter"/>
     </g>
    </g>
    <g id="text_14">
     <!-- EA -->
     <g transform="translate(395.45712 305.847812) scale(0.12 -0.12)">
      <defs>
       <path id="DejaVuSans-45" d="M 628 4666 
L 3578 4666 
L 3578 4134 
L 1259 4134 
L 1259 2753 
L 3481 2753 
L 3481 2222 
L 1259 2222 
L 1259 531 
L 3634 531 
L 3634 0 
L 628 0 
L 628 4666 
z
" transform="scale(0.015625)"/>
       <path id="DejaVuSans-41" d="M 2188 4044 
L 1331 1722 
L 3047 1722 
L 2188 4044 
z
M 1831 4666 
L 2547 4666 
L 4325 0 
L 3669 0 
L 3244 1197 
L 1141 1197 
L 716 0 
L 50 0 
L 1831 4666 
z
" transform="scale(0.015625)"/>
      </defs>
      <use xlink:href="#DejaVuSans-45"/>
      <use xlink:href="#DejaVuSans-41" transform="translate(63.183594 0)"/>
     </g>
    </g>
    <g id="line2d_82">
     <path d="M 361.85712 319.261562 
L 373.85712 319.261562 
L 385.85712 319.261562 
" style="fill: none; stroke-dasharray: 6.66,2.88; stroke-dashoffset: 0; stroke: #857255; stroke-opacity: 0.7; stroke-width: 1.8"/>
    </g>
    <g id="text_15">
     <!-- $\propto \theta^2$ -->
     <g transform="translate(395.45712 323.461562) scale(0.12 -0.12)">
      <defs>
       <path id="DejaVuSans-221d" d="M 1647 1134 
Q 2163 1134 2472 1884 
Q 2075 2703 1647 2703 
Q 1334 2703 1175 2478 
Q 1006 2238 1006 1919 
Q 1006 1569 1175 1353 
Q 1350 1134 1647 1134 
z
M 3884 1128 
L 3884 716 
L 3644 716 
Q 3416 716 3247 809 
Q 3078 894 2916 1091 
Q 2819 1203 2666 1466 
Q 2456 1091 2272 925 
Q 2044 725 1681 725 
Q 1259 725 981 1041 
Q 688 1372 688 1919 
Q 688 2444 981 2800 
Q 1241 3116 1688 3116 
Q 1916 3116 2084 3022 
Q 2281 2919 2416 2741 
Q 2541 2581 2666 2366 
Q 2875 2741 3059 2906 
Q 3288 3106 3650 3106 
L 3884 3106 
L 3884 2697 
L 3684 2697 
Q 3222 2697 2859 1947 
Q 3256 1128 3684 1128 
L 3884 1128 
z
" transform="scale(0.015625)"/>
      </defs>
      <use xlink:href="#DejaVuSans-221d" transform="translate(19.482422 0.765625)"/>
      <use xlink:href="#DejaVuSans-Oblique-3b8" transform="translate(110.400391 0.765625)"/>
      <use xlink:href="#DejaVuSans-32" transform="translate(179.139115 39.046875) scale(0.7)"/>
     </g>
    </g>
   </g>
  </g>
 </g>
 <defs>
  <clipPath id="p587c6320c8">
   <rect x="64.235" y="30.877187" width="423.38212" height="305.88"/>
  </clipPath>
 </defs>
</svg>
